<?xml version='1.0' encoding='utf-8'?>
<svg height="195.30mm" viewBox="0.0 0.0 183.90 195.30" width="183.90mm" xmlns="http://www.w3.org/2000/svg" xmlns:cc="http://creativecommons.org/ns#" xmlns:dc="http://purl.org/dc/elements/1.1/" xmlns:inkscape="http://www.inkscape.org/namespaces/inkscape" xmlns:rdf="http://www.w3.org/1999/02/22-rdf-syntax-ns#" xmlns:svg="http://www.w3.org/2000/svg" xmlns:xlink="http://www.w3.org/1999/xlink">
<!--
UniversalBox - Box with various options for different styles and lids

Created with Boxes.py (https://boxes.hackerspace-bamberg.de/)
Creation date: 2025-08-09 10:23:44
Command line (remove spaces between dashes): boxes UniversalBox - -FingerJoint_surroundingspaces=2.5 - -FingerJoint_finger=4.0 - -FingerJoint_space=4.0 - -bottom_edge=s - -y=50 - -h=40 - -outside=0
Url: https://boxes.hackerspace-bamberg.de/UniversalBox?FingerJoint_style=rectangular&FingerJoint_surroundingspaces=2.5&FingerJoint_bottom_lip=0.0&FingerJoint_edge_width=1.0&FingerJoint_extra_length=0.0&FingerJoint_finger=4.0&FingerJoint_play=0.0&FingerJoint_space=4.0&FingerJoint_width=1.0&Stackable_angle=60&Stackable_bottom_stabilizers=0.0&Stackable_height=2.0&Stackable_holedistance=1.0&Stackable_width=4.0&Hinge_grip_percentage=0&Hinge_outset=0&Hinge_outset=1&Hinge_pinwidth=0.5&Hinge_axle=2.0&Hinge_grip_length=0&Hinge_hingestrength=1&CabinetHinge_bore=3.2&CabinetHinge_eyes_per_hinge=5&CabinetHinge_hinges=2&CabinetHinge_style=inside&CabinetHinge_eye=1.5&CabinetHinge_play=0.05&CabinetHinge_spacing=2.0&SlideOnLid_hole_width=0&SlideOnLid_second_pin=0&SlideOnLid_second_pin=1&SlideOnLid_spring=both&SlideOnLid_style=rectangular&SlideOnLid_surroundingspaces=2.0&SlideOnLid_bottom_lip=0.0&SlideOnLid_edge_width=1.0&SlideOnLid_extra_length=0.0&SlideOnLid_finger=3.0&SlideOnLid_play=0.05&SlideOnLid_space=2.0&SlideOnLid_width=1.0&Click_angle=5.0&Click_bottom_radius=0.1&Click_depth=3.0&RoundedTriangleEdge_height=50.0&RoundedTriangleEdge_r_hole=2.0&RoundedTriangleEdge_radius=30.0&RoundedTriangleEdge_outset=1.0&Mounting_d_head=6.5&Mounting_d_shaft=3.0&Mounting_margin=0.125&Mounting_num=2&Mounting_side=back&Mounting_style=straight+edge%2C+within&HandleEdge_height=20.0&HandleEdge_hole_height=75.0&HandleEdge_hole_width=40%3A40&HandleEdge_on_sides=0&HandleEdge_on_sides=1&HandleEdge_radius=10.0&HandleEdge_outset=1.0&Flex_stretch=1.05&Flex_connection=1.0&Flex_distance=0.5&Flex_width=5.0&Lid_handle=none&Lid_style=none&Lid_handle_height=8.0&Lid_height=4.0&Lid_play=0.1&top_edge=e&bottom_edge=s&x=100.0&y=50&h=40&outside=0&vertical_edges=finger+joints&thickness=3.0&format=svg&tabs=0.0&qr_code=0&debug=0&labels=0&labels=1&reference=100.0&inner_corners=loop&burn=0.1&language=en&render=2
Url short: https://boxes.hackerspace-bamberg.de/UniversalBox?FingerJoint_surroundingspaces=2.5&FingerJoint_finger=4.0&FingerJoint_space=4.0&bottom_edge=s&y=50&h=40&outside=0
SettingsUrl: https://boxes.hackerspace-bamberg.de/UniversalBox?FingerJoint_style=rectangular&FingerJoint_surroundingspaces=2.5&FingerJoint_bottom_lip=0.0&FingerJoint_edge_width=1.0&FingerJoint_extra_length=0.0&FingerJoint_finger=4.0&FingerJoint_play=0.0&FingerJoint_space=4.0&FingerJoint_width=1.0&Stackable_angle=60&Stackable_bottom_stabilizers=0.0&Stackable_height=2.0&Stackable_holedistance=1.0&Stackable_width=4.0&Hinge_grip_percentage=0&Hinge_outset=0&Hinge_outset=1&Hinge_pinwidth=0.5&Hinge_axle=2.0&Hinge_grip_length=0&Hinge_hingestrength=1&CabinetHinge_bore=3.2&CabinetHinge_eyes_per_hinge=5&CabinetHinge_hinges=2&CabinetHinge_style=inside&CabinetHinge_eye=1.5&CabinetHinge_play=0.05&CabinetHinge_spacing=2.0&SlideOnLid_hole_width=0&SlideOnLid_second_pin=0&SlideOnLid_second_pin=1&SlideOnLid_spring=both&SlideOnLid_style=rectangular&SlideOnLid_surroundingspaces=2.0&SlideOnLid_bottom_lip=0.0&SlideOnLid_edge_width=1.0&SlideOnLid_extra_length=0.0&SlideOnLid_finger=3.0&SlideOnLid_play=0.05&SlideOnLid_space=2.0&SlideOnLid_width=1.0&Click_angle=5.0&Click_bottom_radius=0.1&Click_depth=3.0&RoundedTriangleEdge_height=50.0&RoundedTriangleEdge_r_hole=2.0&RoundedTriangleEdge_radius=30.0&RoundedTriangleEdge_outset=1.0&Mounting_d_head=6.5&Mounting_d_shaft=3.0&Mounting_margin=0.125&Mounting_num=2&Mounting_side=back&Mounting_style=straight+edge%2C+within&HandleEdge_height=20.0&HandleEdge_hole_height=75.0&HandleEdge_hole_width=40%3A40&HandleEdge_on_sides=0&HandleEdge_on_sides=1&HandleEdge_radius=10.0&HandleEdge_outset=1.0&Flex_stretch=1.05&Flex_connection=1.0&Flex_distance=0.5&Flex_width=5.0&Lid_handle=none&Lid_style=none&Lid_handle_height=8.0&Lid_height=4.0&Lid_play=0.1&top_edge=e&bottom_edge=s&x=100.0&y=50&h=40&outside=0&vertical_edges=finger+joints&thickness=3.0&format=svg&tabs=0.0&qr_code=0&debug=0&labels=0&labels=1&reference=100.0&inner_corners=loop&burn=0.1&language=en&render=2
SettingsUrl short: https://boxes.hackerspace-bamberg.de/UniversalBox?FingerJoint_surroundingspaces=2.5&FingerJoint_finger=4.0&FingerJoint_space=4.0&bottom_edge=s&y=50&h=40&outside=0
-->
<title>UniversalBox</title>
<metadata>
<rdf:RDF><cc:Work>
<dc:title>Box - UniversalBox</dc:title>
<dc:date>2025-08-09 10:23:44</dc:date>
<dc:source>https://boxes.hackerspace-bamberg.de/UniversalBox?FingerJoint_style=rectangular&amp;FingerJoint_surroundingspaces=2.5&amp;FingerJoint_bottom_lip=0.0&amp;FingerJoint_edge_width=1.0&amp;FingerJoint_extra_length=0.0&amp;FingerJoint_finger=4.0&amp;FingerJoint_play=0.0&amp;FingerJoint_space=4.0&amp;FingerJoint_width=1.0&amp;Stackable_angle=60&amp;Stackable_bottom_stabilizers=0.0&amp;Stackable_height=2.0&amp;Stackable_holedistance=1.0&amp;Stackable_width=4.0&amp;Hinge_grip_percentage=0&amp;Hinge_outset=0&amp;Hinge_outset=1&amp;Hinge_pinwidth=0.5&amp;Hinge_axle=2.0&amp;Hinge_grip_length=0&amp;Hinge_hingestrength=1&amp;CabinetHinge_bore=3.2&amp;CabinetHinge_eyes_per_hinge=5&amp;CabinetHinge_hinges=2&amp;CabinetHinge_style=inside&amp;CabinetHinge_eye=1.5&amp;CabinetHinge_play=0.05&amp;CabinetHinge_spacing=2.0&amp;SlideOnLid_hole_width=0&amp;SlideOnLid_second_pin=0&amp;SlideOnLid_second_pin=1&amp;SlideOnLid_spring=both&amp;SlideOnLid_style=rectangular&amp;SlideOnLid_surroundingspaces=2.0&amp;SlideOnLid_bottom_lip=0.0&amp;SlideOnLid_edge_width=1.0&amp;SlideOnLid_extra_length=0.0&amp;SlideOnLid_finger=3.0&amp;SlideOnLid_play=0.05&amp;SlideOnLid_space=2.0&amp;SlideOnLid_width=1.0&amp;Click_angle=5.0&amp;Click_bottom_radius=0.1&amp;Click_depth=3.0&amp;RoundedTriangleEdge_height=50.0&amp;RoundedTriangleEdge_r_hole=2.0&amp;RoundedTriangleEdge_radius=30.0&amp;RoundedTriangleEdge_outset=1.0&amp;Mounting_d_head=6.5&amp;Mounting_d_shaft=3.0&amp;Mounting_margin=0.125&amp;Mounting_num=2&amp;Mounting_side=back&amp;Mounting_style=straight+edge%2C+within&amp;HandleEdge_height=20.0&amp;HandleEdge_hole_height=75.0&amp;HandleEdge_hole_width=40%3A40&amp;HandleEdge_on_sides=0&amp;HandleEdge_on_sides=1&amp;HandleEdge_radius=10.0&amp;HandleEdge_outset=1.0&amp;Flex_stretch=1.05&amp;Flex_connection=1.0&amp;Flex_distance=0.5&amp;Flex_width=5.0&amp;Lid_handle=none&amp;Lid_style=none&amp;Lid_handle_height=8.0&amp;Lid_height=4.0&amp;Lid_play=0.1&amp;top_edge=e&amp;bottom_edge=s&amp;x=100.0&amp;y=50&amp;h=40&amp;outside=0&amp;vertical_edges=finger+joints&amp;thickness=3.0&amp;format=svg&amp;tabs=0.0&amp;qr_code=0&amp;debug=0&amp;labels=0&amp;labels=1&amp;reference=100.0&amp;inner_corners=loop&amp;burn=0.1&amp;language=en&amp;render=2</dc:source>
<dc:source>https://boxes.hackerspace-bamberg.de/UniversalBox?FingerJoint_surroundingspaces=2.5&amp;FingerJoint_finger=4.0&amp;FingerJoint_space=4.0&amp;bottom_edge=s&amp;y=50&amp;h=40&amp;outside=0</dc:source>
<dc:description>Box with various options for different styles and lids

Created with Boxes.py (https://boxes.hackerspace-bamberg.de/)
Command line: boxes UniversalBox --FingerJoint_style=rectangular --FingerJoint_surroundingspaces=2.5 --FingerJoint_bottom_lip=0.0 --FingerJoint_edge_width=1.0 --FingerJoint_extra_length=0.0 --FingerJoint_finger=4.0 --FingerJoint_play=0.0 --FingerJoint_space=4.0 --FingerJoint_width=1.0 --Stackable_angle=60 --Stackable_bottom_stabilizers=0.0 --Stackable_height=2.0 --Stackable_holedistance=1.0 --Stackable_width=4.0 --Hinge_grip_percentage=0 --Hinge_outset=0 --Hinge_outset=1 --Hinge_pinwidth=0.5 --Hinge_axle=2.0 --Hinge_grip_length=0 --Hinge_hingestrength=1 --CabinetHinge_bore=3.2 --CabinetHinge_eyes_per_hinge=5 --CabinetHinge_hinges=2 --CabinetHinge_style=inside --CabinetHinge_eye=1.5 --CabinetHinge_play=0.05 --CabinetHinge_spacing=2.0 --SlideOnLid_hole_width=0 --SlideOnLid_second_pin=0 --SlideOnLid_second_pin=1 --SlideOnLid_spring=both --SlideOnLid_style=rectangular --SlideOnLid_surroundingspaces=2.0 --SlideOnLid_bottom_lip=0.0 --SlideOnLid_edge_width=1.0 --SlideOnLid_extra_length=0.0 --SlideOnLid_finger=3.0 --SlideOnLid_play=0.05 --SlideOnLid_space=2.0 --SlideOnLid_width=1.0 --Click_angle=5.0 --Click_bottom_radius=0.1 --Click_depth=3.0 --RoundedTriangleEdge_height=50.0 --RoundedTriangleEdge_r_hole=2.0 --RoundedTriangleEdge_radius=30.0 --RoundedTriangleEdge_outset=1.0 --Mounting_d_head=6.5 --Mounting_d_shaft=3.0 --Mounting_margin=0.125 --Mounting_num=2 --Mounting_side=back '--Mounting_style=straight edge, within' --HandleEdge_height=20.0 --HandleEdge_hole_height=75.0 --HandleEdge_hole_width=40:40 --HandleEdge_on_sides=0 --HandleEdge_on_sides=1 --HandleEdge_radius=10.0 --HandleEdge_outset=1.0 --Flex_stretch=1.05 --Flex_connection=1.0 --Flex_distance=0.5 --Flex_width=5.0 --Lid_handle=none --Lid_style=none --Lid_handle_height=8.0 --Lid_height=4.0 --Lid_play=0.1 --top_edge=e --bottom_edge=s --x=100.0 --y=50 --h=40 --outside=0 '--vertical_edges=finger joints' --thickness=3.0 --format=svg --tabs=0.0 --qr_code=0 --debug=0 --labels=0 --labels=1 --reference=100.0 --inner_corners=loop --burn=0.1
Command line short: boxes UniversalBox --FingerJoint_surroundingspaces=2.5 --FingerJoint_finger=4.0 --FingerJoint_space=4.0 --bottom_edge=s --y=50 --h=40 --outside=0
Url: https://boxes.hackerspace-bamberg.de/UniversalBox?FingerJoint_style=rectangular&amp;FingerJoint_surroundingspaces=2.5&amp;FingerJoint_bottom_lip=0.0&amp;FingerJoint_edge_width=1.0&amp;FingerJoint_extra_length=0.0&amp;FingerJoint_finger=4.0&amp;FingerJoint_play=0.0&amp;FingerJoint_space=4.0&amp;FingerJoint_width=1.0&amp;Stackable_angle=60&amp;Stackable_bottom_stabilizers=0.0&amp;Stackable_height=2.0&amp;Stackable_holedistance=1.0&amp;Stackable_width=4.0&amp;Hinge_grip_percentage=0&amp;Hinge_outset=0&amp;Hinge_outset=1&amp;Hinge_pinwidth=0.5&amp;Hinge_axle=2.0&amp;Hinge_grip_length=0&amp;Hinge_hingestrength=1&amp;CabinetHinge_bore=3.2&amp;CabinetHinge_eyes_per_hinge=5&amp;CabinetHinge_hinges=2&amp;CabinetHinge_style=inside&amp;CabinetHinge_eye=1.5&amp;CabinetHinge_play=0.05&amp;CabinetHinge_spacing=2.0&amp;SlideOnLid_hole_width=0&amp;SlideOnLid_second_pin=0&amp;SlideOnLid_second_pin=1&amp;SlideOnLid_spring=both&amp;SlideOnLid_style=rectangular&amp;SlideOnLid_surroundingspaces=2.0&amp;SlideOnLid_bottom_lip=0.0&amp;SlideOnLid_edge_width=1.0&amp;SlideOnLid_extra_length=0.0&amp;SlideOnLid_finger=3.0&amp;SlideOnLid_play=0.05&amp;SlideOnLid_space=2.0&amp;SlideOnLid_width=1.0&amp;Click_angle=5.0&amp;Click_bottom_radius=0.1&amp;Click_depth=3.0&amp;RoundedTriangleEdge_height=50.0&amp;RoundedTriangleEdge_r_hole=2.0&amp;RoundedTriangleEdge_radius=30.0&amp;RoundedTriangleEdge_outset=1.0&amp;Mounting_d_head=6.5&amp;Mounting_d_shaft=3.0&amp;Mounting_margin=0.125&amp;Mounting_num=2&amp;Mounting_side=back&amp;Mounting_style=straight+edge%2C+within&amp;HandleEdge_height=20.0&amp;HandleEdge_hole_height=75.0&amp;HandleEdge_hole_width=40%3A40&amp;HandleEdge_on_sides=0&amp;HandleEdge_on_sides=1&amp;HandleEdge_radius=10.0&amp;HandleEdge_outset=1.0&amp;Flex_stretch=1.05&amp;Flex_connection=1.0&amp;Flex_distance=0.5&amp;Flex_width=5.0&amp;Lid_handle=none&amp;Lid_style=none&amp;Lid_handle_height=8.0&amp;Lid_height=4.0&amp;Lid_play=0.1&amp;top_edge=e&amp;bottom_edge=s&amp;x=100.0&amp;y=50&amp;h=40&amp;outside=0&amp;vertical_edges=finger+joints&amp;thickness=3.0&amp;format=svg&amp;tabs=0.0&amp;qr_code=0&amp;debug=0&amp;labels=0&amp;labels=1&amp;reference=100.0&amp;inner_corners=loop&amp;burn=0.1&amp;language=en&amp;render=2
Url short: https://boxes.hackerspace-bamberg.de/UniversalBox?FingerJoint_surroundingspaces=2.5&amp;FingerJoint_finger=4.0&amp;FingerJoint_space=4.0&amp;bottom_edge=s&amp;y=50&amp;h=40&amp;outside=0
SettingsUrl: https://boxes.hackerspace-bamberg.de/UniversalBox?FingerJoint_style=rectangular&amp;FingerJoint_surroundingspaces=2.5&amp;FingerJoint_bottom_lip=0.0&amp;FingerJoint_edge_width=1.0&amp;FingerJoint_extra_length=0.0&amp;FingerJoint_finger=4.0&amp;FingerJoint_play=0.0&amp;FingerJoint_space=4.0&amp;FingerJoint_width=1.0&amp;Stackable_angle=60&amp;Stackable_bottom_stabilizers=0.0&amp;Stackable_height=2.0&amp;Stackable_holedistance=1.0&amp;Stackable_width=4.0&amp;Hinge_grip_percentage=0&amp;Hinge_outset=0&amp;Hinge_outset=1&amp;Hinge_pinwidth=0.5&amp;Hinge_axle=2.0&amp;Hinge_grip_length=0&amp;Hinge_hingestrength=1&amp;CabinetHinge_bore=3.2&amp;CabinetHinge_eyes_per_hinge=5&amp;CabinetHinge_hinges=2&amp;CabinetHinge_style=inside&amp;CabinetHinge_eye=1.5&amp;CabinetHinge_play=0.05&amp;CabinetHinge_spacing=2.0&amp;SlideOnLid_hole_width=0&amp;SlideOnLid_second_pin=0&amp;SlideOnLid_second_pin=1&amp;SlideOnLid_spring=both&amp;SlideOnLid_style=rectangular&amp;SlideOnLid_surroundingspaces=2.0&amp;SlideOnLid_bottom_lip=0.0&amp;SlideOnLid_edge_width=1.0&amp;SlideOnLid_extra_length=0.0&amp;SlideOnLid_finger=3.0&amp;SlideOnLid_play=0.05&amp;SlideOnLid_space=2.0&amp;SlideOnLid_width=1.0&amp;Click_angle=5.0&amp;Click_bottom_radius=0.1&amp;Click_depth=3.0&amp;RoundedTriangleEdge_height=50.0&amp;RoundedTriangleEdge_r_hole=2.0&amp;RoundedTriangleEdge_radius=30.0&amp;RoundedTriangleEdge_outset=1.0&amp;Mounting_d_head=6.5&amp;Mounting_d_shaft=3.0&amp;Mounting_margin=0.125&amp;Mounting_num=2&amp;Mounting_side=back&amp;Mounting_style=straight+edge%2C+within&amp;HandleEdge_height=20.0&amp;HandleEdge_hole_height=75.0&amp;HandleEdge_hole_width=40%3A40&amp;HandleEdge_on_sides=0&amp;HandleEdge_on_sides=1&amp;HandleEdge_radius=10.0&amp;HandleEdge_outset=1.0&amp;Flex_stretch=1.05&amp;Flex_connection=1.0&amp;Flex_distance=0.5&amp;Flex_width=5.0&amp;Lid_handle=none&amp;Lid_style=none&amp;Lid_handle_height=8.0&amp;Lid_height=4.0&amp;Lid_play=0.1&amp;top_edge=e&amp;bottom_edge=s&amp;x=100.0&amp;y=50&amp;h=40&amp;outside=0&amp;vertical_edges=finger+joints&amp;thickness=3.0&amp;format=svg&amp;tabs=0.0&amp;qr_code=0&amp;debug=0&amp;labels=0&amp;labels=1&amp;reference=100.0&amp;inner_corners=loop&amp;burn=0.1&amp;language=en&amp;render=2
SettingsUrl short: https://boxes.hackerspace-bamberg.de/UniversalBox?FingerJoint_surroundingspaces=2.5&amp;FingerJoint_finger=4.0&amp;FingerJoint_space=4.0&amp;bottom_edge=s&amp;y=50&amp;h=40&amp;outside=0
</dc:description>
</cc:Work></rdf:RDF></metadata>
<g id="p-0" style="fill:none;stroke-linecap:round;stroke-linejoin:round;">
  <path d="M 10.100 185.300 H 110.100 V 175.300 H 10.100 V 185.300 Z" stroke="rgb(0,0,0)" stroke-width="0.20" />
  <text dominant-baseline="hanging" font-size="6px" style="font-family: sans-serif ; font-weight: normal; font-style: normal; fill: rgb(255,0,0)" text-anchor="middle" transform="matrix( 1.000 0.000 0.000 1.000 60.100 177.300 )">100.0mm, burn:0.10mm</text>
</g>
<g id="p-1" style="fill:none;stroke-linecap:round;stroke-linejoin:round;">
  <path d="M 39.100 164.500 H 33.200 C 33.100 164.500 33.200 164.600 33.200 164.500 V 161.700 C 33.200 161.600 33.100 161.700 33.200 161.700 H 45.000 C 45.100 161.700 45.000 161.600 45.000 161.700 V 164.500 C 45.000 164.600 45.100 164.500 45.000 164.500 H 39.100 Z" stroke="rgb(0,0,255)" stroke-width="0.20" />
  <path d="M 63.100 164.500 H 57.200 C 57.100 164.500 57.200 164.600 57.200 164.500 V 161.700 C 57.200 161.600 57.100 161.700 57.200 161.700 H 69.000 C 69.100 161.700 69.000 161.600 69.000 161.700 V 164.500 C 69.000 164.600 69.100 164.500 69.000 164.500 H 63.100 Z" stroke="rgb(0,0,255)" stroke-width="0.20" />
  <path d="M 87.100 164.500 H 81.200 C 81.100 164.500 81.200 164.600 81.200 164.500 V 161.700 C 81.200 161.600 81.100 161.700 81.200 161.700 H 93.000 C 93.100 161.700 93.000 161.600 93.000 161.700 V 164.500 C 93.000 164.600 93.100 164.500 93.000 164.500 H 87.100 Z" stroke="rgb(0,0,255)" stroke-width="0.20" />
  <text dominant-baseline="hanging" font-size="4px" style="font-family: sans-serif ; font-weight: normal; font-style: normal; fill: rgb(255,0,0)" text-anchor="middle" transform="matrix( 1.000 0.000 0.000 1.000 63.100 145.600 )">front</text><path d="M 13.100 173.600 H 25.100 C 26.171 173.600 27.223 173.318 28.150 172.783 C 29.077 172.247 29.847 171.477 30.383 170.550 C 30.901 169.653 31.645 168.908 32.542 168.390 C 33.439 167.873 34.457 167.600 35.492 167.600 H 90.708 C 91.743 167.600 92.761 167.873 93.658 168.390 C 94.555 168.908 95.299 169.653 95.817 170.550 C 96.353 171.477 97.123 172.247 98.050 172.783 C 98.977 173.318 100.029 173.600 101.100 173.600 H 113.100 H 116.100 C 116.155 173.600 116.200 173.555 116.200 173.500 V 153.500 C 116.200 153.445 116.155 153.400 116.100 153.400 H 113.200 C 113.100 153.400 113.200 153.500 113.200 153.400 V 141.600 C 113.200 141.500 113.100 141.600 113.200 141.600 H 116.100 C 116.155 141.600 116.200 141.555 116.200 141.500 V 121.500 C 116.200 121.445 116.155 121.400 116.100 121.400 H 113.100 H 13.100 H 10.100 C 10.045 121.400 10.000 121.445 10.000 121.500 V 141.500 C 10.000 141.555 10.045 141.600 10.100 141.600 H 13.000 C 13.100 141.600 13.000 141.500 13.000 141.600 V 153.400 C 13.000 153.500 13.100 153.400 13.000 153.400 H 10.100 C 10.045 153.400 10.000 153.445 10.000 153.500 V 173.500 C 10.000 173.555 10.045 173.600 10.100 173.600 H 13.100" stroke="rgb(0,0,0)" stroke-width="0.20" />
</g>
<g id="p-2" style="fill:none;stroke-linecap:round;stroke-linejoin:round;">
  <path d="M 39.100 110.800 H 33.200 C 33.100 110.800 33.200 110.900 33.200 110.800 V 108.000 C 33.200 107.900 33.100 108.000 33.200 108.000 H 45.000 C 45.100 108.000 45.000 107.900 45.000 108.000 V 110.800 C 45.000 110.900 45.100 110.800 45.000 110.800 H 39.100 Z" stroke="rgb(0,0,255)" stroke-width="0.20" />
  <path d="M 63.100 110.800 H 57.200 C 57.100 110.800 57.200 110.900 57.200 110.800 V 108.000 C 57.200 107.900 57.100 108.000 57.200 108.000 H 69.000 C 69.100 108.000 69.000 107.900 69.000 108.000 V 110.800 C 69.000 110.900 69.100 110.800 69.000 110.800 H 63.100 Z" stroke="rgb(0,0,255)" stroke-width="0.20" />
  <path d="M 87.100 110.800 H 81.200 C 81.100 110.800 81.200 110.900 81.200 110.800 V 108.000 C 81.200 107.900 81.100 108.000 81.200 108.000 H 93.000 C 93.100 108.000 93.000 107.900 93.000 108.000 V 110.800 C 93.000 110.900 93.100 110.800 93.000 110.800 H 87.100 Z" stroke="rgb(0,0,255)" stroke-width="0.20" />
  <text dominant-baseline="hanging" font-size="4px" style="font-family: sans-serif ; font-weight: normal; font-style: normal; fill: rgb(255,0,0)" text-anchor="middle" transform="matrix( 1.000 0.000 0.000 1.000 63.100 91.900 )">back</text><path d="M 13.100 119.900 H 25.100 C 26.171 119.900 27.223 119.618 28.150 119.083 C 29.077 118.547 29.847 117.777 30.383 116.850 C 30.901 115.953 31.645 115.208 32.542 114.690 C 33.439 114.173 34.457 113.900 35.492 113.900 H 90.708 C 91.743 113.900 92.761 114.173 93.658 114.690 C 94.555 115.208 95.299 115.953 95.817 116.850 C 96.353 117.777 97.123 118.547 98.050 119.083 C 98.977 119.618 100.029 119.900 101.100 119.900 H 113.100 H 116.100 C 116.155 119.900 116.200 119.855 116.200 119.800 V 99.800 C 116.200 99.745 116.155 99.700 116.100 99.700 H 113.200 C 113.100 99.700 113.200 99.800 113.200 99.700 V 87.900 C 113.200 87.800 113.100 87.900 113.200 87.900 H 116.100 C 116.155 87.900 116.200 87.855 116.200 87.800 V 67.800 C 116.200 67.745 116.155 67.700 116.100 67.700 H 113.100 H 13.100 H 10.100 C 10.045 67.700 10.000 67.745 10.000 67.800 V 87.800 C 10.000 87.855 10.045 87.900 10.100 87.900 H 13.000 C 13.100 87.900 13.000 87.800 13.000 87.900 V 99.700 C 13.000 99.800 13.100 99.700 13.000 99.700 H 10.100 C 10.045 99.700 10.000 99.745 10.000 99.800 V 119.800 C 10.000 119.855 10.045 119.900 10.100 119.900 H 13.100" stroke="rgb(0,0,0)" stroke-width="0.20" />
</g>
<g id="p-3" style="fill:none;stroke-linecap:round;stroke-linejoin:round;">
  <text dominant-baseline="hanging" font-size="4px" style="font-family: sans-serif ; font-weight: normal; font-style: normal; fill: rgb(255,0,0)" text-anchor="middle" transform="matrix( 1.000 0.000 0.000 1.000 63.100 36.200 )">bottom</text><path d="M 13.100 63.200 H 33.000 C 33.100 63.200 33.000 63.100 33.000 63.200 V 66.100 C 33.000 66.155 33.045 66.200 33.100 66.200 H 45.100 C 45.155 66.200 45.200 66.155 45.200 66.100 V 63.200 C 45.200 63.100 45.100 63.200 45.200 63.200 H 57.000 C 57.100 63.200 57.000 63.100 57.000 63.200 V 66.100 C 57.000 66.155 57.045 66.200 57.100 66.200 H 69.100 C 69.155 66.200 69.200 66.155 69.200 66.100 V 63.200 C 69.200 63.100 69.100 63.200 69.200 63.200 H 81.000 C 81.100 63.200 81.000 63.100 81.000 63.200 V 66.100 C 81.000 66.155 81.045 66.200 81.100 66.200 H 93.100 C 93.155 66.200 93.200 66.155 93.200 66.100 V 63.200 C 93.200 63.100 93.100 63.200 93.200 63.200 H 113.100 C 113.155 63.200 113.200 63.155 113.200 63.100 V 44.200 C 113.200 44.100 113.100 44.200 113.200 44.200 H 116.100 C 116.155 44.200 116.200 44.155 116.200 44.100 V 32.100 C 116.200 32.045 116.155 32.000 116.100 32.000 H 113.200 C 113.100 32.000 113.200 32.100 113.200 32.000 V 13.100 C 113.200 13.045 113.155 13.000 113.100 13.000 H 93.200 C 93.100 13.000 93.200 13.100 93.200 13.000 V 10.100 C 93.200 10.045 93.155 10.000 93.100 10.000 H 81.100 C 81.045 10.000 81.000 10.045 81.000 10.100 V 13.000 C 81.000 13.100 81.100 13.000 81.000 13.000 H 69.200 C 69.100 13.000 69.200 13.100 69.200 13.000 V 10.100 C 69.200 10.045 69.155 10.000 69.100 10.000 H 57.100 C 57.045 10.000 57.000 10.045 57.000 10.100 V 13.000 C 57.000 13.100 57.100 13.000 57.000 13.000 H 45.200 C 45.100 13.000 45.200 13.100 45.200 13.000 V 10.100 C 45.200 10.045 45.155 10.000 45.100 10.000 H 33.100 C 33.045 10.000 33.000 10.045 33.000 10.100 V 13.000 C 33.000 13.100 33.100 13.000 33.000 13.000 H 13.100 C 13.045 13.000 13.000 13.045 13.000 13.100 V 32.000 C 13.000 32.100 13.100 32.000 13.000 32.000 H 10.100 C 10.045 32.000 10.000 32.045 10.000 32.100 V 44.100 C 10.000 44.155 10.045 44.200 10.100 44.200 H 13.000 C 13.100 44.200 13.000 44.100 13.000 44.200 V 63.100 C 13.000 63.155 13.045 63.200 13.100 63.200" stroke="rgb(0,0,0)" stroke-width="0.20" />
</g>
<g id="p-4" style="fill:none;stroke-linecap:round;stroke-linejoin:round;">
  <path d="M 145.800 164.500 H 139.900 C 139.800 164.500 139.900 164.600 139.900 164.500 V 161.700 C 139.900 161.600 139.800 161.700 139.900 161.700 H 151.700 C 151.800 161.700 151.700 161.600 151.700 161.700 V 164.500 C 151.700 164.600 151.800 164.500 151.700 164.500 H 145.800 Z" stroke="rgb(0,0,255)" stroke-width="0.20" />
  <text dominant-baseline="hanging" font-size="4px" style="font-family: sans-serif ; font-weight: normal; font-style: normal; fill: rgb(255,0,0)" text-anchor="middle" transform="matrix( 1.000 0.000 0.000 1.000 145.800 145.600 )">left</text><path d="M 120.800 173.600 H 132.800 C 133.871 173.600 134.923 173.318 135.850 172.783 C 136.777 172.247 137.547 171.477 138.083 170.550 C 138.601 169.653 139.345 168.908 140.242 168.390 C 141.139 167.873 142.157 167.600 143.192 167.600 H 148.408 C 149.443 167.600 150.461 167.873 151.358 168.390 C 152.255 168.908 152.999 169.653 153.517 170.550 C 154.053 171.477 154.823 172.247 155.750 172.783 C 156.677 173.318 157.729 173.600 158.800 173.600 H 170.800 C 170.855 173.600 170.900 173.555 170.900 173.500 V 153.600 C 170.900 153.500 170.800 153.600 170.900 153.600 H 173.800 C 173.855 153.600 173.900 153.555 173.900 153.500 V 141.500 C 173.900 141.445 173.855 141.400 173.800 141.400 H 170.900 C 170.800 141.400 170.900 141.500 170.900 141.400 V 121.500 C 170.900 121.445 170.855 121.400 170.800 121.400 H 120.800 C 120.745 121.400 120.700 121.445 120.700 121.500 V 141.400 C 120.700 141.500 120.800 141.400 120.700 141.400 H 117.800 C 117.745 141.400 117.700 141.445 117.700 141.500 V 153.500 C 117.700 153.555 117.745 153.600 117.800 153.600 H 120.700 C 120.800 153.600 120.700 153.500 120.700 153.600 V 173.500 C 120.700 173.555 120.745 173.600 120.800 173.600" stroke="rgb(0,0,0)" stroke-width="0.20" />
</g>
<g id="p-5" style="fill:none;stroke-linecap:round;stroke-linejoin:round;">
  <path d="M 145.800 110.800 H 139.900 C 139.800 110.800 139.900 110.900 139.900 110.800 V 108.000 C 139.900 107.900 139.800 108.000 139.900 108.000 H 151.700 C 151.800 108.000 151.700 107.900 151.700 108.000 V 110.800 C 151.700 110.900 151.800 110.800 151.700 110.800 H 145.800 Z" stroke="rgb(0,0,255)" stroke-width="0.20" />
  <text dominant-baseline="hanging" font-size="4px" style="font-family: sans-serif ; font-weight: normal; font-style: normal; fill: rgb(255,0,0)" text-anchor="middle" transform="matrix( 1.000 0.000 0.000 1.000 145.800 91.900 )">right</text><path d="M 120.800 119.900 H 132.800 C 133.871 119.900 134.923 119.618 135.850 119.083 C 136.777 118.547 137.547 117.777 138.083 116.850 C 138.601 115.953 139.345 115.208 140.242 114.690 C 141.139 114.173 142.157 113.900 143.192 113.900 H 148.408 C 149.443 113.900 150.461 114.173 151.358 114.690 C 152.255 115.208 152.999 115.953 153.517 116.850 C 154.053 117.777 154.823 118.547 155.750 119.083 C 156.677 119.618 157.729 119.900 158.800 119.900 H 170.800 C 170.855 119.900 170.900 119.855 170.900 119.800 V 99.900 C 170.900 99.800 170.800 99.900 170.900 99.900 H 173.800 C 173.855 99.900 173.900 99.855 173.900 99.800 V 87.800 C 173.900 87.745 173.855 87.700 173.800 87.700 H 170.900 C 170.800 87.700 170.900 87.800 170.900 87.700 V 67.800 C 170.900 67.745 170.855 67.700 170.800 67.700 H 120.800 C 120.745 67.700 120.700 67.745 120.700 67.800 V 87.700 C 120.700 87.800 120.800 87.700 120.700 87.700 H 117.800 C 117.745 87.700 117.700 87.745 117.700 87.800 V 99.800 C 117.700 99.855 117.745 99.900 117.800 99.900 H 120.700 C 120.800 99.900 120.700 99.800 120.700 99.900 V 119.800 C 120.700 119.855 120.745 119.900 120.800 119.900" stroke="rgb(0,0,0)" stroke-width="0.20" />
</g>
</svg>