<?xml version='1.0' encoding='utf-8'?>
<svg height="369.45mm" viewBox="0.0 0.0 597.25 369.45" width="597.25mm" xmlns="http://www.w3.org/2000/svg" xmlns:cc="http://creativecommons.org/ns#" xmlns:dc="http://purl.org/dc/elements/1.1/" xmlns:inkscape="http://www.inkscape.org/namespaces/inkscape" xmlns:rdf="http://www.w3.org/1999/02/22-rdf-syntax-ns#" xmlns:svg="http://www.w3.org/2000/svg" xmlns:xlink="http://www.w3.org/1999/xlink">
<!--
HingeBox - Box with lid attached by cabinet hinges


Needs (metal) pins as hinge axles. Pieces of nails will
do fine. They need to be cut to length as they are captured as soon as the
hinges are assembled.

Assemble the box and the lid separately. Then insert the axle into the hinges.
Then attach the hinges on the inside of the box and then connect them to lid.



Created with Boxes.py (https://boxes.hackerspace-bamberg.de/)
Creation date: 2025-08-09 09:04:02
Command line (remove spaces between dashes): boxes HingeBox - -FingerJoint_bottom_lip=3.0 - -FingerJoint_edge_width=1.5 - -FingerJoint_finger=3.0 - -CabinetHinge_bore=1.7 - -CabinetHinge_spacing=17.0 - -x=281 - -y=135 - -h=56.0 - -outside=0 - -lidheight=15.0 - -thickness=3.3 - -inner_corners=backarc
Url: https://boxes.hackerspace-bamberg.de/HingeBox?FingerJoint_style=rectangular&FingerJoint_surroundingspaces=2.0&FingerJoint_bottom_lip=3.0&FingerJoint_edge_width=1.5&FingerJoint_extra_length=0.0&FingerJoint_finger=3.0&FingerJoint_play=0.0&FingerJoint_space=2.0&FingerJoint_width=1.0&CabinetHinge_bore=1.7&CabinetHinge_eyes_per_hinge=5&CabinetHinge_hinges=2&CabinetHinge_style=inside&CabinetHinge_eye=1.5&CabinetHinge_play=0.05&CabinetHinge_spacing=17.0&x=281&y=135&h=56.0&outside=0&lidheight=15.0&splitlid=0.0&thickness=3.3&format=svg&tabs=0.0&qr_code=0&debug=0&labels=0&labels=1&reference=100.0&inner_corners=backarc&burn=0.1&language=en&render=2
Url short: https://boxes.hackerspace-bamberg.de/HingeBox?FingerJoint_bottom_lip=3.0&FingerJoint_edge_width=1.5&FingerJoint_finger=3.0&CabinetHinge_bore=1.7&CabinetHinge_spacing=17.0&x=281&y=135&h=56.0&outside=0&lidheight=15.0&thickness=3.3&inner_corners=backarc
SettingsUrl: https://boxes.hackerspace-bamberg.de/HingeBox?FingerJoint_style=rectangular&FingerJoint_surroundingspaces=2.0&FingerJoint_bottom_lip=3.0&FingerJoint_edge_width=1.5&FingerJoint_extra_length=0.0&FingerJoint_finger=3.0&FingerJoint_play=0.0&FingerJoint_space=2.0&FingerJoint_width=1.0&CabinetHinge_bore=1.7&CabinetHinge_eyes_per_hinge=5&CabinetHinge_hinges=2&CabinetHinge_style=inside&CabinetHinge_eye=1.5&CabinetHinge_play=0.05&CabinetHinge_spacing=17.0&x=281&y=135&h=56.0&outside=0&lidheight=15.0&splitlid=0.0&thickness=3.3&format=svg&tabs=0.0&qr_code=0&debug=0&labels=0&labels=1&reference=100.0&inner_corners=backarc&burn=0.1&language=en&render=2
SettingsUrl short: https://boxes.hackerspace-bamberg.de/HingeBox?FingerJoint_bottom_lip=3.0&FingerJoint_edge_width=1.5&FingerJoint_finger=3.0&CabinetHinge_bore=1.7&CabinetHinge_spacing=17.0&x=281&y=135&h=56.0&outside=0&lidheight=15.0&thickness=3.3&inner_corners=backarc
-->
<title>HingeBox</title>
<metadata>
<rdf:RDF><cc:Work>
<dc:title>Box - HingeBox</dc:title>
<dc:date>2025-08-09 09:04:02</dc:date>
<dc:source>https://boxes.hackerspace-bamberg.de/HingeBox?FingerJoint_style=rectangular&amp;FingerJoint_surroundingspaces=2.0&amp;FingerJoint_bottom_lip=3.0&amp;FingerJoint_edge_width=1.5&amp;FingerJoint_extra_length=0.0&amp;FingerJoint_finger=3.0&amp;FingerJoint_play=0.0&amp;FingerJoint_space=2.0&amp;FingerJoint_width=1.0&amp;CabinetHinge_bore=1.7&amp;CabinetHinge_eyes_per_hinge=5&amp;CabinetHinge_hinges=2&amp;CabinetHinge_style=inside&amp;CabinetHinge_eye=1.5&amp;CabinetHinge_play=0.05&amp;CabinetHinge_spacing=17.0&amp;x=281&amp;y=135&amp;h=56.0&amp;outside=0&amp;lidheight=15.0&amp;splitlid=0.0&amp;thickness=3.3&amp;format=svg&amp;tabs=0.0&amp;qr_code=0&amp;debug=0&amp;labels=0&amp;labels=1&amp;reference=100.0&amp;inner_corners=backarc&amp;burn=0.1&amp;language=en&amp;render=2</dc:source>
<dc:source>https://boxes.hackerspace-bamberg.de/HingeBox?FingerJoint_bottom_lip=3.0&amp;FingerJoint_edge_width=1.5&amp;FingerJoint_finger=3.0&amp;CabinetHinge_bore=1.7&amp;CabinetHinge_spacing=17.0&amp;x=281&amp;y=135&amp;h=56.0&amp;outside=0&amp;lidheight=15.0&amp;thickness=3.3&amp;inner_corners=backarc</dc:source>
<dc:description>Box with lid attached by cabinet hinges

Needs (metal) pins as hinge axles. Pieces of nails will
do fine. They need to be cut to length as they are captured as soon as the
hinges are assembled.

Assemble the box and the lid separately. Then insert the axle into the hinges.
Then attach the hinges on the inside of the box and then connect them to lid.


Created with Boxes.py (https://boxes.hackerspace-bamberg.de/)
Command line: boxes HingeBox --FingerJoint_style=rectangular --FingerJoint_surroundingspaces=2.0 --FingerJoint_bottom_lip=3.0 --FingerJoint_edge_width=1.5 --FingerJoint_extra_length=0.0 --FingerJoint_finger=3.0 --FingerJoint_play=0.0 --FingerJoint_space=2.0 --FingerJoint_width=1.0 --CabinetHinge_bore=1.7 --CabinetHinge_eyes_per_hinge=5 --CabinetHinge_hinges=2 --CabinetHinge_style=inside --CabinetHinge_eye=1.5 --CabinetHinge_play=0.05 --CabinetHinge_spacing=17.0 --x=281 --y=135 --h=56.0 --outside=0 --lidheight=15.0 --splitlid=0.0 --thickness=3.3 --format=svg --tabs=0.0 --qr_code=0 --debug=0 --labels=0 --labels=1 --reference=100.0 --inner_corners=backarc --burn=0.1
Command line short: boxes HingeBox --FingerJoint_bottom_lip=3.0 --FingerJoint_edge_width=1.5 --FingerJoint_finger=3.0 --CabinetHinge_bore=1.7 --CabinetHinge_spacing=17.0 --x=281 --y=135 --h=56.0 --outside=0 --lidheight=15.0 --thickness=3.3 --inner_corners=backarc
Url: https://boxes.hackerspace-bamberg.de/HingeBox?FingerJoint_style=rectangular&amp;FingerJoint_surroundingspaces=2.0&amp;FingerJoint_bottom_lip=3.0&amp;FingerJoint_edge_width=1.5&amp;FingerJoint_extra_length=0.0&amp;FingerJoint_finger=3.0&amp;FingerJoint_play=0.0&amp;FingerJoint_space=2.0&amp;FingerJoint_width=1.0&amp;CabinetHinge_bore=1.7&amp;CabinetHinge_eyes_per_hinge=5&amp;CabinetHinge_hinges=2&amp;CabinetHinge_style=inside&amp;CabinetHinge_eye=1.5&amp;CabinetHinge_play=0.05&amp;CabinetHinge_spacing=17.0&amp;x=281&amp;y=135&amp;h=56.0&amp;outside=0&amp;lidheight=15.0&amp;splitlid=0.0&amp;thickness=3.3&amp;format=svg&amp;tabs=0.0&amp;qr_code=0&amp;debug=0&amp;labels=0&amp;labels=1&amp;reference=100.0&amp;inner_corners=backarc&amp;burn=0.1&amp;language=en&amp;render=2
Url short: https://boxes.hackerspace-bamberg.de/HingeBox?FingerJoint_bottom_lip=3.0&amp;FingerJoint_edge_width=1.5&amp;FingerJoint_finger=3.0&amp;CabinetHinge_bore=1.7&amp;CabinetHinge_spacing=17.0&amp;x=281&amp;y=135&amp;h=56.0&amp;outside=0&amp;lidheight=15.0&amp;thickness=3.3&amp;inner_corners=backarc
SettingsUrl: https://boxes.hackerspace-bamberg.de/HingeBox?FingerJoint_style=rectangular&amp;FingerJoint_surroundingspaces=2.0&amp;FingerJoint_bottom_lip=3.0&amp;FingerJoint_edge_width=1.5&amp;FingerJoint_extra_length=0.0&amp;FingerJoint_finger=3.0&amp;FingerJoint_play=0.0&amp;FingerJoint_space=2.0&amp;FingerJoint_width=1.0&amp;CabinetHinge_bore=1.7&amp;CabinetHinge_eyes_per_hinge=5&amp;CabinetHinge_hinges=2&amp;CabinetHinge_style=inside&amp;CabinetHinge_eye=1.5&amp;CabinetHinge_play=0.05&amp;CabinetHinge_spacing=17.0&amp;x=281&amp;y=135&amp;h=56.0&amp;outside=0&amp;lidheight=15.0&amp;splitlid=0.0&amp;thickness=3.3&amp;format=svg&amp;tabs=0.0&amp;qr_code=0&amp;debug=0&amp;labels=0&amp;labels=1&amp;reference=100.0&amp;inner_corners=backarc&amp;burn=0.1&amp;language=en&amp;render=2
SettingsUrl short: https://boxes.hackerspace-bamberg.de/HingeBox?FingerJoint_bottom_lip=3.0&amp;FingerJoint_edge_width=1.5&amp;FingerJoint_finger=3.0&amp;CabinetHinge_bore=1.7&amp;CabinetHinge_spacing=17.0&amp;x=281&amp;y=135&amp;h=56.0&amp;outside=0&amp;lidheight=15.0&amp;thickness=3.3&amp;inner_corners=backarc
</dc:description>
</cc:Work></rdf:RDF></metadata>
<g id="p-0" style="fill:none;stroke-linecap:round;stroke-linejoin:round;">
  <path d="M 10.100 359.450 H 110.100 V 349.450 H 10.100 V 359.450 Z" stroke="rgb(0,0,0)" stroke-width="0.20" />
  <text dominant-baseline="hanging" font-size="6px" style="font-family: sans-serif ; font-weight: normal; font-style: normal; fill: rgb(255,0,0)" text-anchor="middle" transform="matrix( 1.000 0.000 0.000 1.000 60.100 351.450 )">100.0mm, burn:0.10mm</text>
</g>
<g id="p-1" style="fill:none;stroke-linecap:round;stroke-linejoin:round;">
  <path d="M 13.400 347.600 H 25.200 C 25.255 347.600 25.300 347.555 25.300 347.500 V 344.200 C 25.300 344.255 25.255 344.300 25.200 344.300 H 35.100 C 35.045 344.300 35.000 344.255 35.000 344.200 V 347.500 C 35.000 347.555 35.045 347.600 35.100 347.600 H 41.700 C 41.755 347.600 41.800 347.555 41.800 347.500 V 344.200 C 41.800 344.255 41.755 344.300 41.700 344.300 H 51.600 C 51.545 344.300 51.500 344.255 51.500 344.200 V 347.500 C 51.500 347.555 51.545 347.600 51.600 347.600 H 58.200 C 58.255 347.600 58.300 347.555 58.300 347.500 V 344.200 C 58.300 344.255 58.255 344.300 58.200 344.300 H 68.100 C 68.045 344.300 68.000 344.255 68.000 344.200 V 347.500 C 68.000 347.555 68.045 347.600 68.100 347.600 H 74.700 C 74.755 347.600 74.800 347.555 74.800 347.500 V 344.200 C 74.800 344.255 74.755 344.300 74.700 344.300 H 84.600 C 84.545 344.300 84.500 344.255 84.500 344.200 V 347.500 C 84.500 347.555 84.545 347.600 84.600 347.600 H 91.200 C 91.255 347.600 91.300 347.555 91.300 347.500 V 344.200 C 91.300 344.255 91.255 344.300 91.200 344.300 H 101.100 C 101.045 344.300 101.000 344.255 101.000 344.200 V 347.500 C 101.000 347.555 101.045 347.600 101.100 347.600 H 107.700 C 107.755 347.600 107.800 347.555 107.800 347.500 V 344.200 C 107.800 344.255 107.755 344.300 107.700 344.300 H 117.600 C 117.545 344.300 117.500 344.255 117.500 344.200 V 347.500 C 117.500 347.555 117.545 347.600 117.600 347.600 H 124.200 C 124.255 347.600 124.300 347.555 124.300 347.500 V 344.200 C 124.300 344.255 124.255 344.300 124.200 344.300 H 134.100 C 134.045 344.300 134.000 344.255 134.000 344.200 V 347.500 C 134.000 347.555 134.045 347.600 134.100 347.600 H 140.700 C 140.755 347.600 140.800 347.555 140.800 347.500 V 344.200 C 140.800 344.255 140.755 344.300 140.700 344.300 H 150.600 C 150.545 344.300 150.500 344.255 150.500 344.200 V 347.500 C 150.500 347.555 150.545 347.600 150.600 347.600 H 157.200 C 157.255 347.600 157.300 347.555 157.300 347.500 V 344.200 C 157.300 344.255 157.255 344.300 157.200 344.300 H 167.100 C 167.045 344.300 167.000 344.255 167.000 344.200 V 347.500 C 167.000 347.555 167.045 347.600 167.100 347.600 H 173.700 C 173.755 347.600 173.800 347.555 173.800 347.500 V 344.200 C 173.800 344.255 173.755 344.300 173.700 344.300 H 183.600 C 183.545 344.300 183.500 344.255 183.500 344.200 V 347.500 C 183.500 347.555 183.545 347.600 183.600 347.600 H 190.200 C 190.255 347.600 190.300 347.555 190.300 347.500 V 344.200 C 190.300 344.255 190.255 344.300 190.200 344.300 H 200.100 C 200.045 344.300 200.000 344.255 200.000 344.200 V 347.500 C 200.000 347.555 200.045 347.600 200.100 347.600 H 206.700 C 206.755 347.600 206.800 347.555 206.800 347.500 V 344.200 C 206.800 344.255 206.755 344.300 206.700 344.300 H 216.600 C 216.545 344.300 216.500 344.255 216.500 344.200 V 347.500 C 216.500 347.555 216.545 347.600 216.600 347.600 H 223.200 C 223.255 347.600 223.300 347.555 223.300 347.500 V 344.200 C 223.300 344.255 223.255 344.300 223.200 344.300 H 233.100 C 233.045 344.300 233.000 344.255 233.000 344.200 V 347.500 C 233.000 347.555 233.045 347.600 233.100 347.600 H 239.700 C 239.755 347.600 239.800 347.555 239.800 347.500 V 344.200 C 239.800 344.255 239.755 344.300 239.700 344.300 H 249.600 C 249.545 344.300 249.500 344.255 249.500 344.200 V 347.500 C 249.500 347.555 249.545 347.600 249.600 347.600 H 256.200 C 256.255 347.600 256.300 347.555 256.300 347.500 V 344.200 C 256.300 344.255 256.255 344.300 256.200 344.300 H 266.100 C 266.045 344.300 266.000 344.255 266.000 344.200 V 347.500 C 266.000 347.555 266.045 347.600 266.100 347.600 H 272.700 C 272.755 347.600 272.800 347.555 272.800 347.500 V 344.200 C 272.800 344.255 272.755 344.300 272.700 344.300 H 282.600 C 282.545 344.300 282.500 344.255 282.500 344.200 V 347.500 C 282.500 347.555 282.545 347.600 282.600 347.600 H 294.400 H 297.700 C 297.755 347.600 297.800 347.555 297.800 347.500 V 344.200 V 329.400 C 297.800 329.345 297.755 329.300 297.700 329.300 H 294.400 C 294.455 329.300 294.500 329.345 294.500 329.400 V 319.500 C 294.500 319.555 294.455 319.600 294.400 319.600 H 297.700 C 297.755 319.600 297.800 319.555 297.800 319.500 V 312.900 C 297.800 312.845 297.755 312.800 297.700 312.800 H 294.400 C 294.455 312.800 294.500 312.845 294.500 312.900 V 303.000 C 294.500 303.055 294.455 303.100 294.400 303.100 H 297.700 C 297.755 303.100 297.800 303.055 297.800 303.000 V 288.200 C 297.800 288.145 297.755 288.100 297.700 288.100 H 294.400 H 13.400 H 10.100 C 10.045 288.100 10.000 288.145 10.000 288.200 V 303.000 C 10.000 303.055 10.045 303.100 10.100 303.100 H 13.400 C 13.345 303.100 13.300 303.055 13.300 303.000 V 312.900 C 13.300 312.845 13.345 312.800 13.400 312.800 H 10.100 C 10.045 312.800 10.000 312.845 10.000 312.900 V 319.500 C 10.000 319.555 10.045 319.600 10.100 319.600 H 13.400 C 13.345 319.600 13.300 319.555 13.300 319.500 V 329.400 C 13.300 329.345 13.345 329.300 13.400 329.300 H 10.100 C 10.045 329.300 10.000 329.345 10.000 329.400 V 344.200 V 347.500 C 10.000 347.555 10.045 347.600 10.100 347.600 H 13.400 Z" stroke="rgb(0,0,0)" stroke-width="0.20" />
</g>
<g id="p-2" style="fill:none;stroke-linecap:round;stroke-linejoin:round;">
  <path d="M 302.850 347.600 H 315.900 C 315.955 347.600 316.000 347.555 316.000 347.500 V 344.200 C 316.000 344.255 315.955 344.300 315.900 344.300 H 325.800 C 325.745 344.300 325.700 344.255 325.700 344.200 V 347.500 C 325.700 347.555 325.745 347.600 325.800 347.600 H 332.400 C 332.455 347.600 332.500 347.555 332.500 347.500 V 344.200 C 332.500 344.255 332.455 344.300 332.400 344.300 H 342.300 C 342.245 344.300 342.200 344.255 342.200 344.200 V 347.500 C 342.200 347.555 342.245 347.600 342.300 347.600 H 348.900 C 348.955 347.600 349.000 347.555 349.000 347.500 V 344.200 C 349.000 344.255 348.955 344.300 348.900 344.300 H 358.800 C 358.745 344.300 358.700 344.255 358.700 344.200 V 347.500 C 358.700 347.555 358.745 347.600 358.800 347.600 H 365.400 C 365.455 347.600 365.500 347.555 365.500 347.500 V 344.200 C 365.500 344.255 365.455 344.300 365.400 344.300 H 375.300 C 375.245 344.300 375.200 344.255 375.200 344.200 V 347.500 C 375.200 347.555 375.245 347.600 375.300 347.600 H 381.900 C 381.955 347.600 382.000 347.555 382.000 347.500 V 344.200 C 382.000 344.255 381.955 344.300 381.900 344.300 H 391.800 C 391.745 344.300 391.700 344.255 391.700 344.200 V 347.500 C 391.700 347.555 391.745 347.600 391.800 347.600 H 398.400 C 398.455 347.600 398.500 347.555 398.500 347.500 V 344.200 C 398.500 344.255 398.455 344.300 398.400 344.300 H 408.300 C 408.245 344.300 408.200 344.255 408.200 344.200 V 347.500 C 408.200 347.555 408.245 347.600 408.300 347.600 H 414.900 C 414.955 347.600 415.000 347.555 415.000 347.500 V 344.200 C 415.000 344.255 414.955 344.300 414.900 344.300 H 424.800 C 424.745 344.300 424.700 344.255 424.700 344.200 V 347.500 C 424.700 347.555 424.745 347.600 424.800 347.600 H 437.850 C 437.905 347.600 437.950 347.555 437.950 347.500 V 344.200 V 329.400 C 437.950 329.455 437.905 329.500 437.850 329.500 H 441.150 C 441.205 329.500 441.250 329.455 441.250 329.400 V 319.500 C 441.250 319.445 441.205 319.400 441.150 319.400 H 437.850 C 437.905 319.400 437.950 319.445 437.950 319.500 V 312.900 C 437.950 312.955 437.905 313.000 437.850 313.000 H 441.150 C 441.205 313.000 441.250 312.955 441.250 312.900 V 303.000 C 441.250 302.945 441.205 302.900 441.150 302.900 H 437.850 C 437.905 302.900 437.950 302.945 437.950 303.000 V 288.200 C 437.950 288.145 437.905 288.100 437.850 288.100 H 302.850 C 302.795 288.100 302.750 288.145 302.750 288.200 V 303.000 C 302.750 302.945 302.795 302.900 302.850 302.900 H 299.550 C 299.495 302.900 299.450 302.945 299.450 303.000 V 312.900 C 299.450 312.955 299.495 313.000 299.550 313.000 H 302.850 C 302.795 313.000 302.750 312.955 302.750 312.900 V 319.500 C 302.750 319.445 302.795 319.400 302.850 319.400 H 299.550 C 299.495 319.400 299.450 319.445 299.450 319.500 V 329.400 C 299.450 329.455 299.495 329.500 299.550 329.500 H 302.850 C 302.795 329.500 302.750 329.455 302.750 329.400 V 344.200 V 347.500 C 302.750 347.555 302.795 347.600 302.850 347.600 Z" stroke="rgb(0,0,0)" stroke-width="0.20" />
</g>
<g id="p-3" style="fill:none;stroke-linecap:round;stroke-linejoin:round;">
  <path d="M 302.850 286.450 H 315.900 C 315.955 286.450 316.000 286.405 316.000 286.350 V 283.050 C 316.000 283.105 315.955 283.150 315.900 283.150 H 325.800 C 325.745 283.150 325.700 283.105 325.700 283.050 V 286.350 C 325.700 286.405 325.745 286.450 325.800 286.450 H 332.400 C 332.455 286.450 332.500 286.405 332.500 286.350 V 283.050 C 332.500 283.105 332.455 283.150 332.400 283.150 H 342.300 C 342.245 283.150 342.200 283.105 342.200 283.050 V 286.350 C 342.200 286.405 342.245 286.450 342.300 286.450 H 348.900 C 348.955 286.450 349.000 286.405 349.000 286.350 V 283.050 C 349.000 283.105 348.955 283.150 348.900 283.150 H 358.800 C 358.745 283.150 358.700 283.105 358.700 283.050 V 286.350 C 358.700 286.405 358.745 286.450 358.800 286.450 H 365.400 C 365.455 286.450 365.500 286.405 365.500 286.350 V 283.050 C 365.500 283.105 365.455 283.150 365.400 283.150 H 375.300 C 375.245 283.150 375.200 283.105 375.200 283.050 V 286.350 C 375.200 286.405 375.245 286.450 375.300 286.450 H 381.900 C 381.955 286.450 382.000 286.405 382.000 286.350 V 283.050 C 382.000 283.105 381.955 283.150 381.900 283.150 H 391.800 C 391.745 283.150 391.700 283.105 391.700 283.050 V 286.350 C 391.700 286.405 391.745 286.450 391.800 286.450 H 398.400 C 398.455 286.450 398.500 286.405 398.500 286.350 V 283.050 C 398.500 283.105 398.455 283.150 398.400 283.150 H 408.300 C 408.245 283.150 408.200 283.105 408.200 283.050 V 286.350 C 408.200 286.405 408.245 286.450 408.300 286.450 H 414.900 C 414.955 286.450 415.000 286.405 415.000 286.350 V 283.050 C 415.000 283.105 414.955 283.150 414.900 283.150 H 424.800 C 424.745 283.150 424.700 283.105 424.700 283.050 V 286.350 C 424.700 286.405 424.745 286.450 424.800 286.450 H 437.850 C 437.905 286.450 437.950 286.405 437.950 286.350 V 283.050 V 268.250 C 437.950 268.305 437.905 268.350 437.850 268.350 H 441.150 C 441.205 268.350 441.250 268.305 441.250 268.250 V 258.350 C 441.250 258.295 441.205 258.250 441.150 258.250 H 437.850 C 437.905 258.250 437.950 258.295 437.950 258.350 V 251.750 C 437.950 251.805 437.905 251.850 437.850 251.850 H 441.150 C 441.205 251.850 441.250 251.805 441.250 251.750 V 241.850 C 441.250 241.795 441.205 241.750 441.150 241.750 H 437.850 C 437.905 241.750 437.950 241.795 437.950 241.850 V 227.050 C 437.950 226.995 437.905 226.950 437.850 226.950 H 302.850 C 302.795 226.950 302.750 226.995 302.750 227.050 V 241.850 C 302.750 241.795 302.795 241.750 302.850 241.750 H 299.550 C 299.495 241.750 299.450 241.795 299.450 241.850 V 251.750 C 299.450 251.805 299.495 251.850 299.550 251.850 H 302.850 C 302.795 251.850 302.750 251.805 302.750 251.750 V 258.350 C 302.750 258.295 302.795 258.250 302.850 258.250 H 299.550 C 299.495 258.250 299.450 258.295 299.450 258.350 V 268.250 C 299.450 268.305 299.495 268.350 299.550 268.350 H 302.850 C 302.795 268.350 302.750 268.305 302.750 268.250 V 283.050 V 286.350 C 302.750 286.405 302.795 286.450 302.850 286.450 Z" stroke="rgb(0,0,0)" stroke-width="0.20" />
</g>
<g id="p-4" style="fill:none;stroke-linecap:round;stroke-linejoin:round;">
  <path d="M 13.400 286.450 H 25.200 C 25.255 286.450 25.300 286.405 25.300 286.350 V 283.050 C 25.300 283.105 25.255 283.150 25.200 283.150 H 35.100 C 35.045 283.150 35.000 283.105 35.000 283.050 V 286.350 C 35.000 286.405 35.045 286.450 35.100 286.450 H 41.700 C 41.755 286.450 41.800 286.405 41.800 286.350 V 283.050 C 41.800 283.105 41.755 283.150 41.700 283.150 H 51.600 C 51.545 283.150 51.500 283.105 51.500 283.050 V 286.350 C 51.500 286.405 51.545 286.450 51.600 286.450 H 58.200 C 58.255 286.450 58.300 286.405 58.300 286.350 V 283.050 C 58.300 283.105 58.255 283.150 58.200 283.150 H 68.100 C 68.045 283.150 68.000 283.105 68.000 283.050 V 286.350 C 68.000 286.405 68.045 286.450 68.100 286.450 H 74.700 C 74.755 286.450 74.800 286.405 74.800 286.350 V 283.050 C 74.800 283.105 74.755 283.150 74.700 283.150 H 84.600 C 84.545 283.150 84.500 283.105 84.500 283.050 V 286.350 C 84.500 286.405 84.545 286.450 84.600 286.450 H 91.200 C 91.255 286.450 91.300 286.405 91.300 286.350 V 283.050 C 91.300 283.105 91.255 283.150 91.200 283.150 H 101.100 C 101.045 283.150 101.000 283.105 101.000 283.050 V 286.350 C 101.000 286.405 101.045 286.450 101.100 286.450 H 107.700 C 107.755 286.450 107.800 286.405 107.800 286.350 V 283.050 C 107.800 283.105 107.755 283.150 107.700 283.150 H 117.600 C 117.545 283.150 117.500 283.105 117.500 283.050 V 286.350 C 117.500 286.405 117.545 286.450 117.600 286.450 H 124.200 C 124.255 286.450 124.300 286.405 124.300 286.350 V 283.050 C 124.300 283.105 124.255 283.150 124.200 283.150 H 134.100 C 134.045 283.150 134.000 283.105 134.000 283.050 V 286.350 C 134.000 286.405 134.045 286.450 134.100 286.450 H 140.700 C 140.755 286.450 140.800 286.405 140.800 286.350 V 283.050 C 140.800 283.105 140.755 283.150 140.700 283.150 H 150.600 C 150.545 283.150 150.500 283.105 150.500 283.050 V 286.350 C 150.500 286.405 150.545 286.450 150.600 286.450 H 157.200 C 157.255 286.450 157.300 286.405 157.300 286.350 V 283.050 C 157.300 283.105 157.255 283.150 157.200 283.150 H 167.100 C 167.045 283.150 167.000 283.105 167.000 283.050 V 286.350 C 167.000 286.405 167.045 286.450 167.100 286.450 H 173.700 C 173.755 286.450 173.800 286.405 173.800 286.350 V 283.050 C 173.800 283.105 173.755 283.150 173.700 283.150 H 183.600 C 183.545 283.150 183.500 283.105 183.500 283.050 V 286.350 C 183.500 286.405 183.545 286.450 183.600 286.450 H 190.200 C 190.255 286.450 190.300 286.405 190.300 286.350 V 283.050 C 190.300 283.105 190.255 283.150 190.200 283.150 H 200.100 C 200.045 283.150 200.000 283.105 200.000 283.050 V 286.350 C 200.000 286.405 200.045 286.450 200.100 286.450 H 206.700 C 206.755 286.450 206.800 286.405 206.800 286.350 V 283.050 C 206.800 283.105 206.755 283.150 206.700 283.150 H 216.600 C 216.545 283.150 216.500 283.105 216.500 283.050 V 286.350 C 216.500 286.405 216.545 286.450 216.600 286.450 H 223.200 C 223.255 286.450 223.300 286.405 223.300 286.350 V 283.050 C 223.300 283.105 223.255 283.150 223.200 283.150 H 233.100 C 233.045 283.150 233.000 283.105 233.000 283.050 V 286.350 C 233.000 286.405 233.045 286.450 233.100 286.450 H 239.700 C 239.755 286.450 239.800 286.405 239.800 286.350 V 283.050 C 239.800 283.105 239.755 283.150 239.700 283.150 H 249.600 C 249.545 283.150 249.500 283.105 249.500 283.050 V 286.350 C 249.500 286.405 249.545 286.450 249.600 286.450 H 256.200 C 256.255 286.450 256.300 286.405 256.300 286.350 V 283.050 C 256.300 283.105 256.255 283.150 256.200 283.150 H 266.100 C 266.045 283.150 266.000 283.105 266.000 283.050 V 286.350 C 266.000 286.405 266.045 286.450 266.100 286.450 H 272.700 C 272.755 286.450 272.800 286.405 272.800 286.350 V 283.050 C 272.800 283.105 272.755 283.150 272.700 283.150 H 282.600 C 282.545 283.150 282.500 283.105 282.500 283.050 V 286.350 C 282.500 286.405 282.545 286.450 282.600 286.450 H 294.400 H 297.700 C 297.755 286.450 297.800 286.405 297.800 286.350 V 283.050 V 268.250 C 297.800 268.195 297.755 268.150 297.700 268.150 H 294.400 C 294.455 268.150 294.500 268.195 294.500 268.250 V 258.350 C 294.500 258.405 294.455 258.450 294.400 258.450 H 297.700 C 297.755 258.450 297.800 258.405 297.800 258.350 V 251.750 C 297.800 251.695 297.755 251.650 297.700 251.650 H 294.400 C 294.455 251.650 294.500 251.695 294.500 251.750 V 241.850 C 294.500 241.905 294.455 241.950 294.400 241.950 H 297.700 C 297.755 241.950 297.800 241.905 297.800 241.850 V 227.050 C 297.800 226.995 297.755 226.950 297.700 226.950 H 294.400 H 238.135 C 238.080 226.950 238.035 226.995 238.035 227.050 V 232.165 V 235.300 C 238.035 235.245 238.080 235.200 238.135 235.200 H 234.835 C 234.890 235.200 234.935 235.245 234.935 235.300 V 232.165 C 234.935 232.110 234.890 232.065 234.835 232.065 H 231.205 C 231.150 232.065 231.105 232.110 231.105 232.165 V 235.300 C 231.105 235.245 231.150 235.200 231.205 235.200 H 227.905 C 227.960 235.200 228.005 235.245 228.005 235.300 V 232.165 C 228.005 232.110 227.960 232.065 227.905 232.065 H 224.275 C 224.220 232.065 224.175 232.110 224.175 232.165 V 235.300 C 224.175 235.245 224.220 235.200 224.275 235.200 H 220.975 C 221.030 235.200 221.075 235.245 221.075 235.300 V 232.165 V 227.050 C 221.075 226.995 221.030 226.950 220.975 226.950 H 164.710 H 143.090 H 86.825 C 86.770 226.950 86.725 226.995 86.725 227.050 V 232.165 V 235.300 C 86.725 235.245 86.770 235.200 86.825 235.200 H 83.525 C 83.580 235.200 83.625 235.245 83.625 235.300 V 232.165 C 83.625 232.110 83.580 232.065 83.525 232.065 H 79.895 C 79.840 232.065 79.795 232.110 79.795 232.165 V 235.300 C 79.795 235.245 79.840 235.200 79.895 235.200 H 76.595 C 76.650 235.200 76.695 235.245 76.695 235.300 V 232.165 C 76.695 232.110 76.650 232.065 76.595 232.065 H 72.965 C 72.910 232.065 72.865 232.110 72.865 232.165 V 235.300 C 72.865 235.245 72.910 235.200 72.965 235.200 H 69.665 C 69.720 235.200 69.765 235.245 69.765 235.300 V 232.165 V 227.050 C 69.765 226.995 69.720 226.950 69.665 226.950 H 13.400 H 10.100 C 10.045 226.950 10.000 226.995 10.000 227.050 V 241.850 C 10.000 241.905 10.045 241.950 10.100 241.950 H 13.400 C 13.345 241.950 13.300 241.905 13.300 241.850 V 251.750 C 13.300 251.695 13.345 251.650 13.400 251.650 H 10.100 C 10.045 251.650 10.000 251.695 10.000 251.750 V 258.350 C 10.000 258.405 10.045 258.450 10.100 258.450 H 13.400 C 13.345 258.450 13.300 258.405 13.300 258.350 V 268.250 C 13.300 268.195 13.345 268.150 13.400 268.150 H 10.100 C 10.045 268.150 10.000 268.195 10.000 268.250 V 283.050 V 286.350 C 10.000 286.405 10.045 286.450 10.100 286.450 H 13.400 Z" stroke="rgb(0,0,0)" stroke-width="0.20" />
  <path d="M 236.485 238.600 H 238.135 C 238.080 238.600 238.035 238.555 238.035 238.500 V 241.800 C 238.035 241.745 238.080 241.700 238.135 241.700 H 234.835 C 234.890 241.700 234.935 241.745 234.935 241.800 V 238.500 C 234.935 238.555 234.890 238.600 234.835 238.600 H 236.485 Z" stroke="rgb(0,0,255)" stroke-width="0.20" />
  <path d="M 229.555 238.600 H 231.205 C 231.150 238.600 231.105 238.555 231.105 238.500 V 241.800 C 231.105 241.745 231.150 241.700 231.205 241.700 H 227.905 C 227.960 241.700 228.005 241.745 228.005 241.800 V 238.500 C 228.005 238.555 227.960 238.600 227.905 238.600 H 229.555 Z" stroke="rgb(0,0,255)" stroke-width="0.20" />
  <path d="M 222.625 238.600 H 224.275 C 224.220 238.600 224.175 238.555 224.175 238.500 V 241.800 C 224.175 241.745 224.220 241.700 224.275 241.700 H 220.975 C 221.030 241.700 221.075 241.745 221.075 241.800 V 238.500 C 221.075 238.555 221.030 238.600 220.975 238.600 H 222.625 Z" stroke="rgb(0,0,255)" stroke-width="0.20" />
  <path d="M 85.175 238.600 H 86.825 C 86.770 238.600 86.725 238.555 86.725 238.500 V 241.800 C 86.725 241.745 86.770 241.700 86.825 241.700 H 83.525 C 83.580 241.700 83.625 241.745 83.625 241.800 V 238.500 C 83.625 238.555 83.580 238.600 83.525 238.600 H 85.175 Z" stroke="rgb(0,0,255)" stroke-width="0.20" />
  <path d="M 78.245 238.600 H 79.895 C 79.840 238.600 79.795 238.555 79.795 238.500 V 241.800 C 79.795 241.745 79.840 241.700 79.895 241.700 H 76.595 C 76.650 241.700 76.695 241.745 76.695 241.800 V 238.500 C 76.695 238.555 76.650 238.600 76.595 238.600 H 78.245 Z" stroke="rgb(0,0,255)" stroke-width="0.20" />
  <path d="M 71.315 238.600 H 72.965 C 72.910 238.600 72.865 238.555 72.865 238.500 V 241.800 C 72.865 241.745 72.910 241.700 72.965 241.700 H 69.665 C 69.720 241.700 69.765 241.745 69.765 241.800 V 238.500 C 69.765 238.555 69.720 238.600 69.665 238.600 H 71.315 Z" stroke="rgb(0,0,255)" stroke-width="0.20" />
</g>
<g id="p-5" style="fill:none;stroke-linecap:round;stroke-linejoin:round;">
  <path d="M 74.780 213.650 H 73.130 C 73.185 213.650 73.230 213.695 73.230 213.750 V 210.450 C 73.230 210.505 73.185 210.550 73.130 210.550 H 76.430 C 76.375 210.550 76.330 210.505 76.330 210.450 V 213.750 C 76.330 213.695 76.375 213.650 76.430 213.650 H 74.780 Z" stroke="rgb(0,0,255)" stroke-width="0.20" />
  <path d="M 81.710 213.650 H 80.060 C 80.115 213.650 80.160 213.695 80.160 213.750 V 210.450 C 80.160 210.505 80.115 210.550 80.060 210.550 H 83.360 C 83.305 210.550 83.260 210.505 83.260 210.450 V 213.750 C 83.260 213.695 83.305 213.650 83.360 213.650 H 81.710 Z" stroke="rgb(0,0,255)" stroke-width="0.20" />
  <path d="M 13.400 225.300 H 69.500 C 69.555 225.300 69.600 225.255 69.600 225.200 V 220.085 C 69.600 220.140 69.555 220.185 69.500 220.185 H 73.130 C 73.185 220.185 73.230 220.140 73.230 220.085 V 216.950 C 73.230 217.005 73.185 217.050 73.130 217.050 H 76.430 C 76.375 217.050 76.330 217.005 76.330 216.950 V 220.085 C 76.330 220.140 76.375 220.185 76.430 220.185 H 80.060 C 80.115 220.185 80.160 220.140 80.160 220.085 V 216.950 C 80.160 217.005 80.115 217.050 80.060 217.050 H 83.360 C 83.305 217.050 83.260 217.005 83.260 216.950 V 220.085 C 83.260 220.140 83.305 220.185 83.360 220.185 H 86.990 C 86.935 220.185 86.890 220.140 86.890 220.085 V 225.200 C 86.890 225.255 86.935 225.300 86.990 225.300 H 143.090 H 164.710 H 220.810 C 220.865 225.300 220.910 225.255 220.910 225.200 V 220.085 C 220.910 220.140 220.865 220.185 220.810 220.185 H 224.440 C 224.495 220.185 224.540 220.140 224.540 220.085 V 216.950 C 224.540 217.005 224.495 217.050 224.440 217.050 H 227.740 C 227.685 217.050 227.640 217.005 227.640 216.950 V 220.085 C 227.640 220.140 227.685 220.185 227.740 220.185 H 231.370 C 231.425 220.185 231.470 220.140 231.470 220.085 V 216.950 C 231.470 217.005 231.425 217.050 231.370 217.050 H 234.670 C 234.615 217.050 234.570 217.005 234.570 216.950 V 220.085 C 234.570 220.140 234.615 220.185 234.670 220.185 H 238.300 C 238.245 220.185 238.200 220.140 238.200 220.085 V 225.200 C 238.200 225.255 238.245 225.300 238.300 225.300 H 294.400 H 297.700 C 297.755 225.300 297.800 225.255 297.800 225.200 V 222.650 C 297.800 222.595 297.755 222.550 297.700 222.550 H 294.400 C 294.455 222.550 294.500 222.595 294.500 222.650 V 212.750 C 294.500 212.805 294.455 212.850 294.400 212.850 H 297.700 C 297.755 212.850 297.800 212.805 297.800 212.750 V 210.200 V 206.900 C 297.800 206.845 297.755 206.800 297.700 206.800 H 294.400 H 282.600 C 282.545 206.800 282.500 206.845 282.500 206.900 V 210.200 C 282.500 210.145 282.545 210.100 282.600 210.100 H 272.700 C 272.755 210.100 272.800 210.145 272.800 210.200 V 206.900 C 272.800 206.845 272.755 206.800 272.700 206.800 H 266.100 C 266.045 206.800 266.000 206.845 266.000 206.900 V 210.200 C 266.000 210.145 266.045 210.100 266.100 210.100 H 256.200 C 256.255 210.100 256.300 210.145 256.300 210.200 V 206.900 C 256.300 206.845 256.255 206.800 256.200 206.800 H 249.600 C 249.545 206.800 249.500 206.845 249.500 206.900 V 210.200 C 249.500 210.145 249.545 210.100 249.600 210.100 H 239.700 C 239.755 210.100 239.800 210.145 239.800 210.200 V 206.900 C 239.800 206.845 239.755 206.800 239.700 206.800 H 233.100 C 233.045 206.800 233.000 206.845 233.000 206.900 V 210.200 C 233.000 210.145 233.045 210.100 233.100 210.100 H 223.200 C 223.255 210.100 223.300 210.145 223.300 210.200 V 206.900 C 223.300 206.845 223.255 206.800 223.200 206.800 H 216.600 C 216.545 206.800 216.500 206.845 216.500 206.900 V 210.200 C 216.500 210.145 216.545 210.100 216.600 210.100 H 206.700 C 206.755 210.100 206.800 210.145 206.800 210.200 V 206.900 C 206.800 206.845 206.755 206.800 206.700 206.800 H 200.100 C 200.045 206.800 200.000 206.845 200.000 206.900 V 210.200 C 200.000 210.145 200.045 210.100 200.100 210.100 H 190.200 C 190.255 210.100 190.300 210.145 190.300 210.200 V 206.900 C 190.300 206.845 190.255 206.800 190.200 206.800 H 183.600 C 183.545 206.800 183.500 206.845 183.500 206.900 V 210.200 C 183.500 210.145 183.545 210.100 183.600 210.100 H 173.700 C 173.755 210.100 173.800 210.145 173.800 210.200 V 206.900 C 173.800 206.845 173.755 206.800 173.700 206.800 H 167.100 C 167.045 206.800 167.000 206.845 167.000 206.900 V 210.200 C 167.000 210.145 167.045 210.100 167.100 210.100 H 157.200 C 157.255 210.100 157.300 210.145 157.300 210.200 V 206.900 C 157.300 206.845 157.255 206.800 157.200 206.800 H 150.600 C 150.545 206.800 150.500 206.845 150.500 206.900 V 210.200 C 150.500 210.145 150.545 210.100 150.600 210.100 H 140.700 C 140.755 210.100 140.800 210.145 140.800 210.200 V 206.900 C 140.800 206.845 140.755 206.800 140.700 206.800 H 134.100 C 134.045 206.800 134.000 206.845 134.000 206.900 V 210.200 C 134.000 210.145 134.045 210.100 134.100 210.100 H 124.200 C 124.255 210.100 124.300 210.145 124.300 210.200 V 206.900 C 124.300 206.845 124.255 206.800 124.200 206.800 H 117.600 C 117.545 206.800 117.500 206.845 117.500 206.900 V 210.200 C 117.500 210.145 117.545 210.100 117.600 210.100 H 107.700 C 107.755 210.100 107.800 210.145 107.800 210.200 V 206.900 C 107.800 206.845 107.755 206.800 107.700 206.800 H 101.100 C 101.045 206.800 101.000 206.845 101.000 206.900 V 210.200 C 101.000 210.145 101.045 210.100 101.100 210.100 H 91.200 C 91.255 210.100 91.300 210.145 91.300 210.200 V 206.900 C 91.300 206.845 91.255 206.800 91.200 206.800 H 84.600 C 84.545 206.800 84.500 206.845 84.500 206.900 V 210.200 C 84.500 210.145 84.545 210.100 84.600 210.100 H 74.700 C 74.755 210.100 74.800 210.145 74.800 210.200 V 206.900 C 74.800 206.845 74.755 206.800 74.700 206.800 H 68.100 C 68.045 206.800 68.000 206.845 68.000 206.900 V 210.200 C 68.000 210.145 68.045 210.100 68.100 210.100 H 58.200 C 58.255 210.100 58.300 210.145 58.300 210.200 V 206.900 C 58.300 206.845 58.255 206.800 58.200 206.800 H 51.600 C 51.545 206.800 51.500 206.845 51.500 206.900 V 210.200 C 51.500 210.145 51.545 210.100 51.600 210.100 H 41.700 C 41.755 210.100 41.800 210.145 41.800 210.200 V 206.900 C 41.800 206.845 41.755 206.800 41.700 206.800 H 35.100 C 35.045 206.800 35.000 206.845 35.000 206.900 V 210.200 C 35.000 210.145 35.045 210.100 35.100 210.100 H 25.200 C 25.255 210.100 25.300 210.145 25.300 210.200 V 206.900 C 25.300 206.845 25.255 206.800 25.200 206.800 H 13.400 H 10.100 C 10.045 206.800 10.000 206.845 10.000 206.900 V 210.200 V 212.750 C 10.000 212.805 10.045 212.850 10.100 212.850 H 13.400 C 13.345 212.850 13.300 212.805 13.300 212.750 V 222.650 C 13.300 222.595 13.345 222.550 13.400 222.550 H 10.100 C 10.045 222.550 10.000 222.595 10.000 222.650 V 225.200 C 10.000 225.255 10.045 225.300 10.100 225.300 H 13.400 Z" stroke="rgb(0,0,0)" stroke-width="0.20" />
  <path d="M 226.090 213.650 H 224.440 C 224.495 213.650 224.540 213.695 224.540 213.750 V 210.450 C 224.540 210.505 224.495 210.550 224.440 210.550 H 227.740 C 227.685 210.550 227.640 210.505 227.640 210.450 V 213.750 C 227.640 213.695 227.685 213.650 227.740 213.650 H 226.090 Z" stroke="rgb(0,0,255)" stroke-width="0.20" />
  <path d="M 233.020 213.650 H 231.370 C 231.425 213.650 231.470 213.695 231.470 213.750 V 210.450 C 231.470 210.505 231.425 210.550 231.370 210.550 H 234.670 C 234.615 210.550 234.570 210.505 234.570 210.450 V 213.750 C 234.570 213.695 234.615 213.650 234.670 213.650 H 233.020 Z" stroke="rgb(0,0,255)" stroke-width="0.20" />
</g>
<g id="p-6" style="fill:none;stroke-linecap:round;stroke-linejoin:round;">
  <path d="M 302.850 225.300 H 437.850 C 437.905 225.300 437.950 225.255 437.950 225.200 V 222.650 C 437.950 222.705 437.905 222.750 437.850 222.750 H 441.150 C 441.205 222.750 441.250 222.705 441.250 222.650 V 212.750 C 441.250 212.695 441.205 212.650 441.150 212.650 H 437.850 C 437.905 212.650 437.950 212.695 437.950 212.750 V 210.200 V 206.900 C 437.950 206.845 437.905 206.800 437.850 206.800 H 424.800 C 424.745 206.800 424.700 206.845 424.700 206.900 V 210.200 C 424.700 210.145 424.745 210.100 424.800 210.100 H 414.900 C 414.955 210.100 415.000 210.145 415.000 210.200 V 206.900 C 415.000 206.845 414.955 206.800 414.900 206.800 H 408.300 C 408.245 206.800 408.200 206.845 408.200 206.900 V 210.200 C 408.200 210.145 408.245 210.100 408.300 210.100 H 398.400 C 398.455 210.100 398.500 210.145 398.500 210.200 V 206.900 C 398.500 206.845 398.455 206.800 398.400 206.800 H 391.800 C 391.745 206.800 391.700 206.845 391.700 206.900 V 210.200 C 391.700 210.145 391.745 210.100 391.800 210.100 H 381.900 C 381.955 210.100 382.000 210.145 382.000 210.200 V 206.900 C 382.000 206.845 381.955 206.800 381.900 206.800 H 375.300 C 375.245 206.800 375.200 206.845 375.200 206.900 V 210.200 C 375.200 210.145 375.245 210.100 375.300 210.100 H 365.400 C 365.455 210.100 365.500 210.145 365.500 210.200 V 206.900 C 365.500 206.845 365.455 206.800 365.400 206.800 H 358.800 C 358.745 206.800 358.700 206.845 358.700 206.900 V 210.200 C 358.700 210.145 358.745 210.100 358.800 210.100 H 348.900 C 348.955 210.100 349.000 210.145 349.000 210.200 V 206.900 C 349.000 206.845 348.955 206.800 348.900 206.800 H 342.300 C 342.245 206.800 342.200 206.845 342.200 206.900 V 210.200 C 342.200 210.145 342.245 210.100 342.300 210.100 H 332.400 C 332.455 210.100 332.500 210.145 332.500 210.200 V 206.900 C 332.500 206.845 332.455 206.800 332.400 206.800 H 325.800 C 325.745 206.800 325.700 206.845 325.700 206.900 V 210.200 C 325.700 210.145 325.745 210.100 325.800 210.100 H 315.900 C 315.955 210.100 316.000 210.145 316.000 210.200 V 206.900 C 316.000 206.845 315.955 206.800 315.900 206.800 H 302.850 C 302.795 206.800 302.750 206.845 302.750 206.900 V 210.200 V 212.750 C 302.750 212.695 302.795 212.650 302.850 212.650 H 299.550 C 299.495 212.650 299.450 212.695 299.450 212.750 V 222.650 C 299.450 222.705 299.495 222.750 299.550 222.750 H 302.850 C 302.795 222.750 302.750 222.705 302.750 222.650 V 225.200 C 302.750 225.255 302.795 225.300 302.850 225.300 Z" stroke="rgb(0,0,0)" stroke-width="0.20" />
</g>
<g id="p-7" style="fill:none;stroke-linecap:round;stroke-linejoin:round;">
  <path d="M 302.850 205.150 H 437.850 C 437.905 205.150 437.950 205.105 437.950 205.050 V 202.500 C 437.950 202.555 437.905 202.600 437.850 202.600 H 441.150 C 441.205 202.600 441.250 202.555 441.250 202.500 V 192.600 C 441.250 192.545 441.205 192.500 441.150 192.500 H 437.850 C 437.905 192.500 437.950 192.545 437.950 192.600 V 190.050 V 186.750 C 437.950 186.695 437.905 186.650 437.850 186.650 H 424.800 C 424.745 186.650 424.700 186.695 424.700 186.750 V 190.050 C 424.700 189.995 424.745 189.950 424.800 189.950 H 414.900 C 414.955 189.950 415.000 189.995 415.000 190.050 V 186.750 C 415.000 186.695 414.955 186.650 414.900 186.650 H 408.300 C 408.245 186.650 408.200 186.695 408.200 186.750 V 190.050 C 408.200 189.995 408.245 189.950 408.300 189.950 H 398.400 C 398.455 189.950 398.500 189.995 398.500 190.050 V 186.750 C 398.500 186.695 398.455 186.650 398.400 186.650 H 391.800 C 391.745 186.650 391.700 186.695 391.700 186.750 V 190.050 C 391.700 189.995 391.745 189.950 391.800 189.950 H 381.900 C 381.955 189.950 382.000 189.995 382.000 190.050 V 186.750 C 382.000 186.695 381.955 186.650 381.900 186.650 H 375.300 C 375.245 186.650 375.200 186.695 375.200 186.750 V 190.050 C 375.200 189.995 375.245 189.950 375.300 189.950 H 365.400 C 365.455 189.950 365.500 189.995 365.500 190.050 V 186.750 C 365.500 186.695 365.455 186.650 365.400 186.650 H 358.800 C 358.745 186.650 358.700 186.695 358.700 186.750 V 190.050 C 358.700 189.995 358.745 189.950 358.800 189.950 H 348.900 C 348.955 189.950 349.000 189.995 349.000 190.050 V 186.750 C 349.000 186.695 348.955 186.650 348.900 186.650 H 342.300 C 342.245 186.650 342.200 186.695 342.200 186.750 V 190.050 C 342.200 189.995 342.245 189.950 342.300 189.950 H 332.400 C 332.455 189.950 332.500 189.995 332.500 190.050 V 186.750 C 332.500 186.695 332.455 186.650 332.400 186.650 H 325.800 C 325.745 186.650 325.700 186.695 325.700 186.750 V 190.050 C 325.700 189.995 325.745 189.950 325.800 189.950 H 315.900 C 315.955 189.950 316.000 189.995 316.000 190.050 V 186.750 C 316.000 186.695 315.955 186.650 315.900 186.650 H 302.850 C 302.795 186.650 302.750 186.695 302.750 186.750 V 190.050 V 192.600 C 302.750 192.545 302.795 192.500 302.850 192.500 H 299.550 C 299.495 192.500 299.450 192.545 299.450 192.600 V 202.500 C 299.450 202.555 299.495 202.600 299.550 202.600 H 302.850 C 302.795 202.600 302.750 202.555 302.750 202.500 V 205.050 C 302.750 205.105 302.795 205.150 302.850 205.150 Z" stroke="rgb(0,0,0)" stroke-width="0.20" />
</g>
<g id="p-8" style="fill:none;stroke-linecap:round;stroke-linejoin:round;">
  <path d="M 13.400 205.150 H 294.400 H 297.700 C 297.755 205.150 297.800 205.105 297.800 205.050 V 202.500 C 297.800 202.445 297.755 202.400 297.700 202.400 H 294.400 C 294.455 202.400 294.500 202.445 294.500 202.500 V 192.600 C 294.500 192.655 294.455 192.700 294.400 192.700 H 297.700 C 297.755 192.700 297.800 192.655 297.800 192.600 V 190.050 V 186.750 C 297.800 186.695 297.755 186.650 297.700 186.650 H 294.400 H 282.600 C 282.545 186.650 282.500 186.695 282.500 186.750 V 190.050 C 282.500 189.995 282.545 189.950 282.600 189.950 H 272.700 C 272.755 189.950 272.800 189.995 272.800 190.050 V 186.750 C 272.800 186.695 272.755 186.650 272.700 186.650 H 266.100 C 266.045 186.650 266.000 186.695 266.000 186.750 V 190.050 C 266.000 189.995 266.045 189.950 266.100 189.950 H 256.200 C 256.255 189.950 256.300 189.995 256.300 190.050 V 186.750 C 256.300 186.695 256.255 186.650 256.200 186.650 H 249.600 C 249.545 186.650 249.500 186.695 249.500 186.750 V 190.050 C 249.500 189.995 249.545 189.950 249.600 189.950 H 239.700 C 239.755 189.950 239.800 189.995 239.800 190.050 V 186.750 C 239.800 186.695 239.755 186.650 239.700 186.650 H 233.100 C 233.045 186.650 233.000 186.695 233.000 186.750 V 190.050 C 233.000 189.995 233.045 189.950 233.100 189.950 H 223.200 C 223.255 189.950 223.300 189.995 223.300 190.050 V 186.750 C 223.300 186.695 223.255 186.650 223.200 186.650 H 216.600 C 216.545 186.650 216.500 186.695 216.500 186.750 V 190.050 C 216.500 189.995 216.545 189.950 216.600 189.950 H 206.700 C 206.755 189.950 206.800 189.995 206.800 190.050 V 186.750 C 206.800 186.695 206.755 186.650 206.700 186.650 H 200.100 C 200.045 186.650 200.000 186.695 200.000 186.750 V 190.050 C 200.000 189.995 200.045 189.950 200.100 189.950 H 190.200 C 190.255 189.950 190.300 189.995 190.300 190.050 V 186.750 C 190.300 186.695 190.255 186.650 190.200 186.650 H 183.600 C 183.545 186.650 183.500 186.695 183.500 186.750 V 190.050 C 183.500 189.995 183.545 189.950 183.600 189.950 H 173.700 C 173.755 189.950 173.800 189.995 173.800 190.050 V 186.750 C 173.800 186.695 173.755 186.650 173.700 186.650 H 167.100 C 167.045 186.650 167.000 186.695 167.000 186.750 V 190.050 C 167.000 189.995 167.045 189.950 167.100 189.950 H 157.200 C 157.255 189.950 157.300 189.995 157.300 190.050 V 186.750 C 157.300 186.695 157.255 186.650 157.200 186.650 H 150.600 C 150.545 186.650 150.500 186.695 150.500 186.750 V 190.050 C 150.500 189.995 150.545 189.950 150.600 189.950 H 140.700 C 140.755 189.950 140.800 189.995 140.800 190.050 V 186.750 C 140.800 186.695 140.755 186.650 140.700 186.650 H 134.100 C 134.045 186.650 134.000 186.695 134.000 186.750 V 190.050 C 134.000 189.995 134.045 189.950 134.100 189.950 H 124.200 C 124.255 189.950 124.300 189.995 124.300 190.050 V 186.750 C 124.300 186.695 124.255 186.650 124.200 186.650 H 117.600 C 117.545 186.650 117.500 186.695 117.500 186.750 V 190.050 C 117.500 189.995 117.545 189.950 117.600 189.950 H 107.700 C 107.755 189.950 107.800 189.995 107.800 190.050 V 186.750 C 107.800 186.695 107.755 186.650 107.700 186.650 H 101.100 C 101.045 186.650 101.000 186.695 101.000 186.750 V 190.050 C 101.000 189.995 101.045 189.950 101.100 189.950 H 91.200 C 91.255 189.950 91.300 189.995 91.300 190.050 V 186.750 C 91.300 186.695 91.255 186.650 91.200 186.650 H 84.600 C 84.545 186.650 84.500 186.695 84.500 186.750 V 190.050 C 84.500 189.995 84.545 189.950 84.600 189.950 H 74.700 C 74.755 189.950 74.800 189.995 74.800 190.050 V 186.750 C 74.800 186.695 74.755 186.650 74.700 186.650 H 68.100 C 68.045 186.650 68.000 186.695 68.000 186.750 V 190.050 C 68.000 189.995 68.045 189.950 68.100 189.950 H 58.200 C 58.255 189.950 58.300 189.995 58.300 190.050 V 186.750 C 58.300 186.695 58.255 186.650 58.200 186.650 H 51.600 C 51.545 186.650 51.500 186.695 51.500 186.750 V 190.050 C 51.500 189.995 51.545 189.950 51.600 189.950 H 41.700 C 41.755 189.950 41.800 189.995 41.800 190.050 V 186.750 C 41.800 186.695 41.755 186.650 41.700 186.650 H 35.100 C 35.045 186.650 35.000 186.695 35.000 186.750 V 190.050 C 35.000 189.995 35.045 189.950 35.100 189.950 H 25.200 C 25.255 189.950 25.300 189.995 25.300 190.050 V 186.750 C 25.300 186.695 25.255 186.650 25.200 186.650 H 13.400 H 10.100 C 10.045 186.650 10.000 186.695 10.000 186.750 V 190.050 V 192.600 C 10.000 192.655 10.045 192.700 10.100 192.700 H 13.400 C 13.345 192.700 13.300 192.655 13.300 192.600 V 202.500 C 13.300 202.445 13.345 202.400 13.400 202.400 H 10.100 C 10.045 202.400 10.000 202.445 10.000 202.500 V 205.050 C 10.000 205.105 10.045 205.150 10.100 205.150 H 13.400 Z" stroke="rgb(0,0,0)" stroke-width="0.20" />
</g>
<g id="p-9" style="fill:none;stroke-linecap:round;stroke-linejoin:round;">
  <path d="M 302.850 181.700 H 314.650 C 314.595 181.700 314.550 181.655 314.550 181.600 V 184.900 C 314.550 184.955 314.595 185.000 314.650 185.000 H 324.550 C 324.605 185.000 324.650 184.955 324.650 184.900 V 181.600 C 324.650 181.655 324.605 181.700 324.550 181.700 H 331.150 C 331.095 181.700 331.050 181.655 331.050 181.600 V 184.900 C 331.050 184.955 331.095 185.000 331.150 185.000 H 341.050 C 341.105 185.000 341.150 184.955 341.150 184.900 V 181.600 C 341.150 181.655 341.105 181.700 341.050 181.700 H 347.650 C 347.595 181.700 347.550 181.655 347.550 181.600 V 184.900 C 347.550 184.955 347.595 185.000 347.650 185.000 H 357.550 C 357.605 185.000 357.650 184.955 357.650 184.900 V 181.600 C 357.650 181.655 357.605 181.700 357.550 181.700 H 364.150 C 364.095 181.700 364.050 181.655 364.050 181.600 V 184.900 C 364.050 184.955 364.095 185.000 364.150 185.000 H 374.050 C 374.105 185.000 374.150 184.955 374.150 184.900 V 181.600 C 374.150 181.655 374.105 181.700 374.050 181.700 H 380.650 C 380.595 181.700 380.550 181.655 380.550 181.600 V 184.900 C 380.550 184.955 380.595 185.000 380.650 185.000 H 390.550 C 390.605 185.000 390.650 184.955 390.650 184.900 V 181.600 C 390.650 181.655 390.605 181.700 390.550 181.700 H 397.150 C 397.095 181.700 397.050 181.655 397.050 181.600 V 184.900 C 397.050 184.955 397.095 185.000 397.150 185.000 H 407.050 C 407.105 185.000 407.150 184.955 407.150 184.900 V 181.600 C 407.150 181.655 407.105 181.700 407.050 181.700 H 413.650 C 413.595 181.700 413.550 181.655 413.550 181.600 V 184.900 C 413.550 184.955 413.595 185.000 413.650 185.000 H 423.550 C 423.605 185.000 423.650 184.955 423.650 184.900 V 181.600 C 423.650 181.655 423.605 181.700 423.550 181.700 H 430.150 C 430.095 181.700 430.050 181.655 430.050 181.600 V 184.900 C 430.050 184.955 430.095 185.000 430.150 185.000 H 440.050 C 440.105 185.000 440.150 184.955 440.150 184.900 V 181.600 C 440.150 181.655 440.105 181.700 440.050 181.700 H 446.650 C 446.595 181.700 446.550 181.655 446.550 181.600 V 184.900 C 446.550 184.955 446.595 185.000 446.650 185.000 H 456.550 C 456.605 185.000 456.650 184.955 456.650 184.900 V 181.600 C 456.650 181.655 456.605 181.700 456.550 181.700 H 463.150 C 463.095 181.700 463.050 181.655 463.050 181.600 V 184.900 C 463.050 184.955 463.095 185.000 463.150 185.000 H 473.050 C 473.105 185.000 473.150 184.955 473.150 184.900 V 181.600 C 473.150 181.655 473.105 181.700 473.050 181.700 H 479.650 C 479.595 181.700 479.550 181.655 479.550 181.600 V 184.900 C 479.550 184.955 479.595 185.000 479.650 185.000 H 489.550 C 489.605 185.000 489.650 184.955 489.650 184.900 V 181.600 C 489.650 181.655 489.605 181.700 489.550 181.700 H 496.150 C 496.095 181.700 496.050 181.655 496.050 181.600 V 184.900 C 496.050 184.955 496.095 185.000 496.150 185.000 H 506.050 C 506.105 185.000 506.150 184.955 506.150 184.900 V 181.600 C 506.150 181.655 506.105 181.700 506.050 181.700 H 512.650 C 512.595 181.700 512.550 181.655 512.550 181.600 V 184.900 C 512.550 184.955 512.595 185.000 512.650 185.000 H 522.550 C 522.605 185.000 522.650 184.955 522.650 184.900 V 181.600 C 522.650 181.655 522.605 181.700 522.550 181.700 H 529.150 C 529.095 181.700 529.050 181.655 529.050 181.600 V 184.900 C 529.050 184.955 529.095 185.000 529.150 185.000 H 539.050 C 539.105 185.000 539.150 184.955 539.150 184.900 V 181.600 C 539.150 181.655 539.105 181.700 539.050 181.700 H 545.650 C 545.595 181.700 545.550 181.655 545.550 181.600 V 184.900 C 545.550 184.955 545.595 185.000 545.650 185.000 H 555.550 C 555.605 185.000 555.650 184.955 555.650 184.900 V 181.600 C 555.650 181.655 555.605 181.700 555.550 181.700 H 562.150 C 562.095 181.700 562.050 181.655 562.050 181.600 V 184.900 C 562.050 184.955 562.095 185.000 562.150 185.000 H 572.050 C 572.105 185.000 572.150 184.955 572.150 184.900 V 181.600 C 572.150 181.655 572.105 181.700 572.050 181.700 H 583.850 C 583.905 181.700 583.950 181.655 583.950 181.600 V 168.550 C 583.950 168.605 583.905 168.650 583.850 168.650 H 587.150 C 587.205 168.650 587.250 168.605 587.250 168.550 V 158.650 C 587.250 158.595 587.205 158.550 587.150 158.550 H 583.850 C 583.905 158.550 583.950 158.595 583.950 158.650 V 152.050 C 583.950 152.105 583.905 152.150 583.850 152.150 H 587.150 C 587.205 152.150 587.250 152.105 587.250 152.050 V 142.150 C 587.250 142.095 587.205 142.050 587.150 142.050 H 583.850 C 583.905 142.050 583.950 142.095 583.950 142.150 V 135.550 C 583.950 135.605 583.905 135.650 583.850 135.650 H 587.150 C 587.205 135.650 587.250 135.605 587.250 135.550 V 125.650 C 587.250 125.595 587.205 125.550 587.150 125.550 H 583.850 C 583.905 125.550 583.950 125.595 583.950 125.650 V 119.050 C 583.950 119.105 583.905 119.150 583.850 119.150 H 587.150 C 587.205 119.150 587.250 119.105 587.250 119.050 V 109.150 C 587.250 109.095 587.205 109.050 587.150 109.050 H 583.850 C 583.905 109.050 583.950 109.095 583.950 109.150 V 102.550 C 583.950 102.605 583.905 102.650 583.850 102.650 H 587.150 C 587.205 102.650 587.250 102.605 587.250 102.550 V 92.650 C 587.250 92.595 587.205 92.550 587.150 92.550 H 583.850 C 583.905 92.550 583.950 92.595 583.950 92.650 V 86.050 C 583.950 86.105 583.905 86.150 583.850 86.150 H 587.150 C 587.205 86.150 587.250 86.105 587.250 86.050 V 76.150 C 587.250 76.095 587.205 76.050 587.150 76.050 H 583.850 C 583.905 76.050 583.950 76.095 583.950 76.150 V 69.550 C 583.950 69.605 583.905 69.650 583.850 69.650 H 587.150 C 587.205 69.650 587.250 69.605 587.250 69.550 V 59.650 C 587.250 59.595 587.205 59.550 587.150 59.550 H 583.850 C 583.905 59.550 583.950 59.595 583.950 59.650 V 46.600 C 583.950 46.545 583.905 46.500 583.850 46.500 H 572.050 C 572.105 46.500 572.150 46.545 572.150 46.600 V 43.300 C 572.150 43.245 572.105 43.200 572.050 43.200 H 562.150 C 562.095 43.200 562.050 43.245 562.050 43.300 V 46.600 C 562.050 46.545 562.095 46.500 562.150 46.500 H 555.550 C 555.605 46.500 555.650 46.545 555.650 46.600 V 43.300 C 555.650 43.245 555.605 43.200 555.550 43.200 H 545.650 C 545.595 43.200 545.550 43.245 545.550 43.300 V 46.600 C 545.550 46.545 545.595 46.500 545.650 46.500 H 539.050 C 539.105 46.500 539.150 46.545 539.150 46.600 V 43.300 C 539.150 43.245 539.105 43.200 539.050 43.200 H 529.150 C 529.095 43.200 529.050 43.245 529.050 43.300 V 46.600 C 529.050 46.545 529.095 46.500 529.150 46.500 H 522.550 C 522.605 46.500 522.650 46.545 522.650 46.600 V 43.300 C 522.650 43.245 522.605 43.200 522.550 43.200 H 512.650 C 512.595 43.200 512.550 43.245 512.550 43.300 V 46.600 C 512.550 46.545 512.595 46.500 512.650 46.500 H 506.050 C 506.105 46.500 506.150 46.545 506.150 46.600 V 43.300 C 506.150 43.245 506.105 43.200 506.050 43.200 H 496.150 C 496.095 43.200 496.050 43.245 496.050 43.300 V 46.600 C 496.050 46.545 496.095 46.500 496.150 46.500 H 489.550 C 489.605 46.500 489.650 46.545 489.650 46.600 V 43.300 C 489.650 43.245 489.605 43.200 489.550 43.200 H 479.650 C 479.595 43.200 479.550 43.245 479.550 43.300 V 46.600 C 479.550 46.545 479.595 46.500 479.650 46.500 H 473.050 C 473.105 46.500 473.150 46.545 473.150 46.600 V 43.300 C 473.150 43.245 473.105 43.200 473.050 43.200 H 463.150 C 463.095 43.200 463.050 43.245 463.050 43.300 V 46.600 C 463.050 46.545 463.095 46.500 463.150 46.500 H 456.550 C 456.605 46.500 456.650 46.545 456.650 46.600 V 43.300 C 456.650 43.245 456.605 43.200 456.550 43.200 H 446.650 C 446.595 43.200 446.550 43.245 446.550 43.300 V 46.600 C 446.550 46.545 446.595 46.500 446.650 46.500 H 440.050 C 440.105 46.500 440.150 46.545 440.150 46.600 V 43.300 C 440.150 43.245 440.105 43.200 440.050 43.200 H 430.150 C 430.095 43.200 430.050 43.245 430.050 43.300 V 46.600 C 430.050 46.545 430.095 46.500 430.150 46.500 H 423.550 C 423.605 46.500 423.650 46.545 423.650 46.600 V 43.300 C 423.650 43.245 423.605 43.200 423.550 43.200 H 413.650 C 413.595 43.200 413.550 43.245 413.550 43.300 V 46.600 C 413.550 46.545 413.595 46.500 413.650 46.500 H 407.050 C 407.105 46.500 407.150 46.545 407.150 46.600 V 43.300 C 407.150 43.245 407.105 43.200 407.050 43.200 H 397.150 C 397.095 43.200 397.050 43.245 397.050 43.300 V 46.600 C 397.050 46.545 397.095 46.500 397.150 46.500 H 390.550 C 390.605 46.500 390.650 46.545 390.650 46.600 V 43.300 C 390.650 43.245 390.605 43.200 390.550 43.200 H 380.650 C 380.595 43.200 380.550 43.245 380.550 43.300 V 46.600 C 380.550 46.545 380.595 46.500 380.650 46.500 H 374.050 C 374.105 46.500 374.150 46.545 374.150 46.600 V 43.300 C 374.150 43.245 374.105 43.200 374.050 43.200 H 364.150 C 364.095 43.200 364.050 43.245 364.050 43.300 V 46.600 C 364.050 46.545 364.095 46.500 364.150 46.500 H 357.550 C 357.605 46.500 357.650 46.545 357.650 46.600 V 43.300 C 357.650 43.245 357.605 43.200 357.550 43.200 H 347.650 C 347.595 43.200 347.550 43.245 347.550 43.300 V 46.600 C 347.550 46.545 347.595 46.500 347.650 46.500 H 341.050 C 341.105 46.500 341.150 46.545 341.150 46.600 V 43.300 C 341.150 43.245 341.105 43.200 341.050 43.200 H 331.150 C 331.095 43.200 331.050 43.245 331.050 43.300 V 46.600 C 331.050 46.545 331.095 46.500 331.150 46.500 H 324.550 C 324.605 46.500 324.650 46.545 324.650 46.600 V 43.300 C 324.650 43.245 324.605 43.200 324.550 43.200 H 314.650 C 314.595 43.200 314.550 43.245 314.550 43.300 V 46.600 C 314.550 46.545 314.595 46.500 314.650 46.500 H 302.850 C 302.795 46.500 302.750 46.545 302.750 46.600 V 59.650 C 302.750 59.595 302.795 59.550 302.850 59.550 H 299.550 C 299.495 59.550 299.450 59.595 299.450 59.650 V 69.550 C 299.450 69.605 299.495 69.650 299.550 69.650 H 302.850 C 302.795 69.650 302.750 69.605 302.750 69.550 V 76.150 C 302.750 76.095 302.795 76.050 302.850 76.050 H 299.550 C 299.495 76.050 299.450 76.095 299.450 76.150 V 86.050 C 299.450 86.105 299.495 86.150 299.550 86.150 H 302.850 C 302.795 86.150 302.750 86.105 302.750 86.050 V 92.650 C 302.750 92.595 302.795 92.550 302.850 92.550 H 299.550 C 299.495 92.550 299.450 92.595 299.450 92.650 V 102.550 C 299.450 102.605 299.495 102.650 299.550 102.650 H 302.850 C 302.795 102.650 302.750 102.605 302.750 102.550 V 109.150 C 302.750 109.095 302.795 109.050 302.850 109.050 H 299.550 C 299.495 109.050 299.450 109.095 299.450 109.150 V 119.050 C 299.450 119.105 299.495 119.150 299.550 119.150 H 302.850 C 302.795 119.150 302.750 119.105 302.750 119.050 V 125.650 C 302.750 125.595 302.795 125.550 302.850 125.550 H 299.550 C 299.495 125.550 299.450 125.595 299.450 125.650 V 135.550 C 299.450 135.605 299.495 135.650 299.550 135.650 H 302.850 C 302.795 135.650 302.750 135.605 302.750 135.550 V 142.150 C 302.750 142.095 302.795 142.050 302.850 142.050 H 299.550 C 299.495 142.050 299.450 142.095 299.450 142.150 V 152.050 C 299.450 152.105 299.495 152.150 299.550 152.150 H 302.850 C 302.795 152.150 302.750 152.105 302.750 152.050 V 158.650 C 302.750 158.595 302.795 158.550 302.850 158.550 H 299.550 C 299.495 158.550 299.450 158.595 299.450 158.650 V 168.550 C 299.450 168.605 299.495 168.650 299.550 168.650 H 302.850 C 302.795 168.650 302.750 168.605 302.750 168.550 V 181.600 C 302.750 181.655 302.795 181.700 302.850 181.700 Z" stroke="rgb(0,0,0)" stroke-width="0.20" />
</g>
<g id="p-10" style="fill:none;stroke-linecap:round;stroke-linejoin:round;">
  <path d="M 13.400 181.700 H 25.200 C 25.145 181.700 25.100 181.655 25.100 181.600 V 184.900 C 25.100 184.955 25.145 185.000 25.200 185.000 H 35.100 C 35.155 185.000 35.200 184.955 35.200 184.900 V 181.600 C 35.200 181.655 35.155 181.700 35.100 181.700 H 41.700 C 41.645 181.700 41.600 181.655 41.600 181.600 V 184.900 C 41.600 184.955 41.645 185.000 41.700 185.000 H 51.600 C 51.655 185.000 51.700 184.955 51.700 184.900 V 181.600 C 51.700 181.655 51.655 181.700 51.600 181.700 H 58.200 C 58.145 181.700 58.100 181.655 58.100 181.600 V 184.900 C 58.100 184.955 58.145 185.000 58.200 185.000 H 68.100 C 68.155 185.000 68.200 184.955 68.200 184.900 V 181.600 C 68.200 181.655 68.155 181.700 68.100 181.700 H 74.700 C 74.645 181.700 74.600 181.655 74.600 181.600 V 184.900 C 74.600 184.955 74.645 185.000 74.700 185.000 H 84.600 C 84.655 185.000 84.700 184.955 84.700 184.900 V 181.600 C 84.700 181.655 84.655 181.700 84.600 181.700 H 91.200 C 91.145 181.700 91.100 181.655 91.100 181.600 V 184.900 C 91.100 184.955 91.145 185.000 91.200 185.000 H 101.100 C 101.155 185.000 101.200 184.955 101.200 184.900 V 181.600 C 101.200 181.655 101.155 181.700 101.100 181.700 H 107.700 C 107.645 181.700 107.600 181.655 107.600 181.600 V 184.900 C 107.600 184.955 107.645 185.000 107.700 185.000 H 117.600 C 117.655 185.000 117.700 184.955 117.700 184.900 V 181.600 C 117.700 181.655 117.655 181.700 117.600 181.700 H 124.200 C 124.145 181.700 124.100 181.655 124.100 181.600 V 184.900 C 124.100 184.955 124.145 185.000 124.200 185.000 H 134.100 C 134.155 185.000 134.200 184.955 134.200 184.900 V 181.600 C 134.200 181.655 134.155 181.700 134.100 181.700 H 140.700 C 140.645 181.700 140.600 181.655 140.600 181.600 V 184.900 C 140.600 184.955 140.645 185.000 140.700 185.000 H 150.600 C 150.655 185.000 150.700 184.955 150.700 184.900 V 181.600 C 150.700 181.655 150.655 181.700 150.600 181.700 H 157.200 C 157.145 181.700 157.100 181.655 157.100 181.600 V 184.900 C 157.100 184.955 157.145 185.000 157.200 185.000 H 167.100 C 167.155 185.000 167.200 184.955 167.200 184.900 V 181.600 C 167.200 181.655 167.155 181.700 167.100 181.700 H 173.700 C 173.645 181.700 173.600 181.655 173.600 181.600 V 184.900 C 173.600 184.955 173.645 185.000 173.700 185.000 H 183.600 C 183.655 185.000 183.700 184.955 183.700 184.900 V 181.600 C 183.700 181.655 183.655 181.700 183.600 181.700 H 190.200 C 190.145 181.700 190.100 181.655 190.100 181.600 V 184.900 C 190.100 184.955 190.145 185.000 190.200 185.000 H 200.100 C 200.155 185.000 200.200 184.955 200.200 184.900 V 181.600 C 200.200 181.655 200.155 181.700 200.100 181.700 H 206.700 C 206.645 181.700 206.600 181.655 206.600 181.600 V 184.900 C 206.600 184.955 206.645 185.000 206.700 185.000 H 216.600 C 216.655 185.000 216.700 184.955 216.700 184.900 V 181.600 C 216.700 181.655 216.655 181.700 216.600 181.700 H 223.200 C 223.145 181.700 223.100 181.655 223.100 181.600 V 184.900 C 223.100 184.955 223.145 185.000 223.200 185.000 H 233.100 C 233.155 185.000 233.200 184.955 233.200 184.900 V 181.600 C 233.200 181.655 233.155 181.700 233.100 181.700 H 239.700 C 239.645 181.700 239.600 181.655 239.600 181.600 V 184.900 C 239.600 184.955 239.645 185.000 239.700 185.000 H 249.600 C 249.655 185.000 249.700 184.955 249.700 184.900 V 181.600 C 249.700 181.655 249.655 181.700 249.600 181.700 H 256.200 C 256.145 181.700 256.100 181.655 256.100 181.600 V 184.900 C 256.100 184.955 256.145 185.000 256.200 185.000 H 266.100 C 266.155 185.000 266.200 184.955 266.200 184.900 V 181.600 C 266.200 181.655 266.155 181.700 266.100 181.700 H 272.700 C 272.645 181.700 272.600 181.655 272.600 181.600 V 184.900 C 272.600 184.955 272.645 185.000 272.700 185.000 H 282.600 C 282.655 185.000 282.700 184.955 282.700 184.900 V 181.600 C 282.700 181.655 282.655 181.700 282.600 181.700 H 294.400 C 294.455 181.700 294.500 181.655 294.500 181.600 V 168.550 C 294.500 168.605 294.455 168.650 294.400 168.650 H 297.700 C 297.755 168.650 297.800 168.605 297.800 168.550 V 158.650 C 297.800 158.595 297.755 158.550 297.700 158.550 H 294.400 C 294.455 158.550 294.500 158.595 294.500 158.650 V 152.050 C 294.500 152.105 294.455 152.150 294.400 152.150 H 297.700 C 297.755 152.150 297.800 152.105 297.800 152.050 V 142.150 C 297.800 142.095 297.755 142.050 297.700 142.050 H 294.400 C 294.455 142.050 294.500 142.095 294.500 142.150 V 135.550 C 294.500 135.605 294.455 135.650 294.400 135.650 H 297.700 C 297.755 135.650 297.800 135.605 297.800 135.550 V 125.650 C 297.800 125.595 297.755 125.550 297.700 125.550 H 294.400 C 294.455 125.550 294.500 125.595 294.500 125.650 V 119.050 C 294.500 119.105 294.455 119.150 294.400 119.150 H 297.700 C 297.755 119.150 297.800 119.105 297.800 119.050 V 109.150 C 297.800 109.095 297.755 109.050 297.700 109.050 H 294.400 C 294.455 109.050 294.500 109.095 294.500 109.150 V 102.550 C 294.500 102.605 294.455 102.650 294.400 102.650 H 297.700 C 297.755 102.650 297.800 102.605 297.800 102.550 V 92.650 C 297.800 92.595 297.755 92.550 297.700 92.550 H 294.400 C 294.455 92.550 294.500 92.595 294.500 92.650 V 86.050 C 294.500 86.105 294.455 86.150 294.400 86.150 H 297.700 C 297.755 86.150 297.800 86.105 297.800 86.050 V 76.150 C 297.800 76.095 297.755 76.050 297.700 76.050 H 294.400 C 294.455 76.050 294.500 76.095 294.500 76.150 V 69.550 C 294.500 69.605 294.455 69.650 294.400 69.650 H 297.700 C 297.755 69.650 297.800 69.605 297.800 69.550 V 59.650 C 297.800 59.595 297.755 59.550 297.700 59.550 H 294.400 C 294.455 59.550 294.500 59.595 294.500 59.650 V 46.600 C 294.500 46.545 294.455 46.500 294.400 46.500 H 282.600 C 282.655 46.500 282.700 46.545 282.700 46.600 V 43.300 C 282.700 43.245 282.655 43.200 282.600 43.200 H 272.700 C 272.645 43.200 272.600 43.245 272.600 43.300 V 46.600 C 272.600 46.545 272.645 46.500 272.700 46.500 H 266.100 C 266.155 46.500 266.200 46.545 266.200 46.600 V 43.300 C 266.200 43.245 266.155 43.200 266.100 43.200 H 256.200 C 256.145 43.200 256.100 43.245 256.100 43.300 V 46.600 C 256.100 46.545 256.145 46.500 256.200 46.500 H 249.600 C 249.655 46.500 249.700 46.545 249.700 46.600 V 43.300 C 249.700 43.245 249.655 43.200 249.600 43.200 H 239.700 C 239.645 43.200 239.600 43.245 239.600 43.300 V 46.600 C 239.600 46.545 239.645 46.500 239.700 46.500 H 233.100 C 233.155 46.500 233.200 46.545 233.200 46.600 V 43.300 C 233.200 43.245 233.155 43.200 233.100 43.200 H 223.200 C 223.145 43.200 223.100 43.245 223.100 43.300 V 46.600 C 223.100 46.545 223.145 46.500 223.200 46.500 H 216.600 C 216.655 46.500 216.700 46.545 216.700 46.600 V 43.300 C 216.700 43.245 216.655 43.200 216.600 43.200 H 206.700 C 206.645 43.200 206.600 43.245 206.600 43.300 V 46.600 C 206.600 46.545 206.645 46.500 206.700 46.500 H 200.100 C 200.155 46.500 200.200 46.545 200.200 46.600 V 43.300 C 200.200 43.245 200.155 43.200 200.100 43.200 H 190.200 C 190.145 43.200 190.100 43.245 190.100 43.300 V 46.600 C 190.100 46.545 190.145 46.500 190.200 46.500 H 183.600 C 183.655 46.500 183.700 46.545 183.700 46.600 V 43.300 C 183.700 43.245 183.655 43.200 183.600 43.200 H 173.700 C 173.645 43.200 173.600 43.245 173.600 43.300 V 46.600 C 173.600 46.545 173.645 46.500 173.700 46.500 H 167.100 C 167.155 46.500 167.200 46.545 167.200 46.600 V 43.300 C 167.200 43.245 167.155 43.200 167.100 43.200 H 157.200 C 157.145 43.200 157.100 43.245 157.100 43.300 V 46.600 C 157.100 46.545 157.145 46.500 157.200 46.500 H 150.600 C 150.655 46.500 150.700 46.545 150.700 46.600 V 43.300 C 150.700 43.245 150.655 43.200 150.600 43.200 H 140.700 C 140.645 43.200 140.600 43.245 140.600 43.300 V 46.600 C 140.600 46.545 140.645 46.500 140.700 46.500 H 134.100 C 134.155 46.500 134.200 46.545 134.200 46.600 V 43.300 C 134.200 43.245 134.155 43.200 134.100 43.200 H 124.200 C 124.145 43.200 124.100 43.245 124.100 43.300 V 46.600 C 124.100 46.545 124.145 46.500 124.200 46.500 H 117.600 C 117.655 46.500 117.700 46.545 117.700 46.600 V 43.300 C 117.700 43.245 117.655 43.200 117.600 43.200 H 107.700 C 107.645 43.200 107.600 43.245 107.600 43.300 V 46.600 C 107.600 46.545 107.645 46.500 107.700 46.500 H 101.100 C 101.155 46.500 101.200 46.545 101.200 46.600 V 43.300 C 101.200 43.245 101.155 43.200 101.100 43.200 H 91.200 C 91.145 43.200 91.100 43.245 91.100 43.300 V 46.600 C 91.100 46.545 91.145 46.500 91.200 46.500 H 84.600 C 84.655 46.500 84.700 46.545 84.700 46.600 V 43.300 C 84.700 43.245 84.655 43.200 84.600 43.200 H 74.700 C 74.645 43.200 74.600 43.245 74.600 43.300 V 46.600 C 74.600 46.545 74.645 46.500 74.700 46.500 H 68.100 C 68.155 46.500 68.200 46.545 68.200 46.600 V 43.300 C 68.200 43.245 68.155 43.200 68.100 43.200 H 58.200 C 58.145 43.200 58.100 43.245 58.100 43.300 V 46.600 C 58.100 46.545 58.145 46.500 58.200 46.500 H 51.600 C 51.655 46.500 51.700 46.545 51.700 46.600 V 43.300 C 51.700 43.245 51.655 43.200 51.600 43.200 H 41.700 C 41.645 43.200 41.600 43.245 41.600 43.300 V 46.600 C 41.600 46.545 41.645 46.500 41.700 46.500 H 35.100 C 35.155 46.500 35.200 46.545 35.200 46.600 V 43.300 C 35.200 43.245 35.155 43.200 35.100 43.200 H 25.200 C 25.145 43.200 25.100 43.245 25.100 43.300 V 46.600 C 25.100 46.545 25.145 46.500 25.200 46.500 H 13.400 C 13.345 46.500 13.300 46.545 13.300 46.600 V 59.650 C 13.300 59.595 13.345 59.550 13.400 59.550 H 10.100 C 10.045 59.550 10.000 59.595 10.000 59.650 V 69.550 C 10.000 69.605 10.045 69.650 10.100 69.650 H 13.400 C 13.345 69.650 13.300 69.605 13.300 69.550 V 76.150 C 13.300 76.095 13.345 76.050 13.400 76.050 H 10.100 C 10.045 76.050 10.000 76.095 10.000 76.150 V 86.050 C 10.000 86.105 10.045 86.150 10.100 86.150 H 13.400 C 13.345 86.150 13.300 86.105 13.300 86.050 V 92.650 C 13.300 92.595 13.345 92.550 13.400 92.550 H 10.100 C 10.045 92.550 10.000 92.595 10.000 92.650 V 102.550 C 10.000 102.605 10.045 102.650 10.100 102.650 H 13.400 C 13.345 102.650 13.300 102.605 13.300 102.550 V 109.150 C 13.300 109.095 13.345 109.050 13.400 109.050 H 10.100 C 10.045 109.050 10.000 109.095 10.000 109.150 V 119.050 C 10.000 119.105 10.045 119.150 10.100 119.150 H 13.400 C 13.345 119.150 13.300 119.105 13.300 119.050 V 125.650 C 13.300 125.595 13.345 125.550 13.400 125.550 H 10.100 C 10.045 125.550 10.000 125.595 10.000 125.650 V 135.550 C 10.000 135.605 10.045 135.650 10.100 135.650 H 13.400 C 13.345 135.650 13.300 135.605 13.300 135.550 V 142.150 C 13.300 142.095 13.345 142.050 13.400 142.050 H 10.100 C 10.045 142.050 10.000 142.095 10.000 142.150 V 152.050 C 10.000 152.105 10.045 152.150 10.100 152.150 H 13.400 C 13.345 152.150 13.300 152.105 13.300 152.050 V 158.650 C 13.300 158.595 13.345 158.550 13.400 158.550 H 10.100 C 10.045 158.550 10.000 158.595 10.000 158.650 V 168.550 C 10.000 168.605 10.045 168.650 10.100 168.650 H 13.400 C 13.345 168.650 13.300 168.605 13.300 168.550 V 181.600 C 13.300 181.655 13.345 181.700 13.400 181.700 Z" stroke="rgb(0,0,0)" stroke-width="0.20" />
</g>
<g id="p-11" style="fill:none;stroke-linecap:round;stroke-linejoin:round;">
  <path d="M 17.450 36.600 C 17.450 36.744 17.409 36.885 17.331 37.005 C 17.253 37.126 17.142 37.222 17.012 37.282 C 16.881 37.342 16.736 37.363 16.593 37.342 C 16.451 37.322 16.318 37.261 16.209 37.167 C 16.100 37.073 16.021 36.949 15.980 36.811 C 15.940 36.673 15.940 36.527 15.980 36.389 C 16.021 36.251 16.100 36.127 16.209 36.033 C 16.318 35.939 16.451 35.878 16.593 35.858 C 16.736 35.837 16.881 35.858 17.012 35.918 C 17.142 35.978 17.253 36.074 17.331 36.195 C 17.409 36.315 17.450 36.456 17.450 36.600 Z" stroke="rgb(0,0,255)" stroke-width="0.20" />
  <path d="M 16.700 41.550 C 17.586 41.550 18.457 41.317 19.225 40.873 C 19.993 40.430 20.630 39.793 21.073 39.025 C 21.517 38.257 21.750 37.386 21.750 36.500 C 21.750 35.614 21.517 34.743 21.073 33.975 C 20.630 33.207 19.993 32.570 19.225 32.127 C 18.457 31.683 17.586 31.450 16.700 31.450 C 16.755 31.450 16.800 31.495 16.800 31.550 V 28.250 C 16.800 28.195 16.755 28.150 16.700 28.150 H 13.400 C 13.455 28.150 13.500 28.195 13.500 28.250 V 24.950 C 13.500 25.005 13.455 25.050 13.400 25.050 H 16.700 C 16.755 25.050 16.800 25.005 16.800 24.950 V 21.650 C 16.800 21.595 16.755 21.550 16.700 21.550 H 13.400 C 12.803 21.550 12.217 21.707 11.700 22.006 C 11.183 22.304 10.754 22.733 10.456 23.250 C 10.157 23.767 10.000 24.353 10.000 24.950 V 34.850 C 10.000 36.026 10.310 37.181 10.898 38.200 C 11.486 39.219 12.331 40.064 13.350 40.652 C 14.369 41.240 15.524 41.550 16.700 41.550 Z" stroke="rgb(0,0,0)" stroke-width="0.20" />
  <path d="M 17.800 14.950 C 17.800 14.806 17.841 14.665 17.919 14.545 C 17.997 14.424 18.108 14.328 18.238 14.268 C 18.369 14.208 18.514 14.187 18.657 14.208 C 18.799 14.228 18.932 14.289 19.041 14.383 C 19.150 14.477 19.229 14.601 19.270 14.739 C 19.310 14.877 19.310 15.023 19.270 15.161 C 19.229 15.299 19.150 15.423 19.041 15.517 C 18.932 15.611 18.799 15.672 18.657 15.692 C 18.514 15.713 18.369 15.692 18.238 15.632 C 18.108 15.572 17.997 15.476 17.919 15.355 C 17.841 15.235 17.800 15.094 17.800 14.950 Z" stroke="rgb(0,0,255)" stroke-width="0.20" />
  <path d="M 18.550 10.000 C 17.664 10.000 16.793 10.233 16.025 10.677 C 15.257 11.120 14.620 11.757 14.177 12.525 C 13.733 13.293 13.500 14.164 13.500 15.050 C 13.500 15.936 13.733 16.807 14.177 17.575 C 14.620 18.343 15.257 18.980 16.025 19.423 C 16.793 19.867 17.664 20.100 18.550 20.100 C 18.495 20.100 18.450 20.055 18.450 20.000 V 23.300 C 18.450 23.355 18.495 23.400 18.550 23.400 H 21.850 C 21.795 23.400 21.750 23.355 21.750 23.300 V 26.600 C 21.750 26.545 21.795 26.500 21.850 26.500 H 18.550 C 18.495 26.500 18.450 26.545 18.450 26.600 V 29.900 C 18.450 29.955 18.495 30.000 18.550 30.000 H 21.850 C 22.447 30.000 23.033 29.843 23.550 29.544 C 24.067 29.246 24.496 28.817 24.794 28.300 C 25.093 27.783 25.250 27.197 25.250 26.600 V 16.700 C 25.250 15.524 24.940 14.369 24.352 13.350 C 23.764 12.331 22.919 11.486 21.900 10.898 C 20.881 10.310 19.726 10.000 18.550 10.000 Z" stroke="rgb(0,0,0)" stroke-width="0.20" />
  <path d="M 34.350 36.600 C 34.350 36.744 34.309 36.885 34.231 37.005 C 34.153 37.126 34.042 37.222 33.912 37.282 C 33.781 37.342 33.636 37.363 33.493 37.342 C 33.351 37.322 33.218 37.261 33.109 37.167 C 33.000 37.073 32.921 36.949 32.880 36.811 C 32.840 36.673 32.840 36.527 32.880 36.389 C 32.921 36.251 33.000 36.127 33.109 36.033 C 33.218 35.939 33.351 35.878 33.493 35.858 C 33.636 35.837 33.781 35.858 33.912 35.918 C 34.042 35.978 34.153 36.074 34.231 36.195 C 34.309 36.315 34.350 36.456 34.350 36.600 Z" stroke="rgb(0,0,255)" stroke-width="0.20" />
  <path d="M 33.600 41.550 C 34.486 41.550 35.357 41.317 36.125 40.873 C 36.893 40.430 37.530 39.793 37.973 39.025 C 38.417 38.257 38.650 37.386 38.650 36.500 C 38.650 35.614 38.417 34.743 37.973 33.975 C 37.530 33.207 36.893 32.570 36.125 32.127 C 35.357 31.683 34.486 31.450 33.600 31.450 C 33.655 31.450 33.700 31.495 33.700 31.550 V 28.250 C 33.700 28.195 33.655 28.150 33.600 28.150 H 30.300 C 30.355 28.150 30.400 28.195 30.400 28.250 V 24.950 C 30.400 25.005 30.355 25.050 30.300 25.050 H 33.600 C 33.655 25.050 33.700 25.005 33.700 24.950 V 21.650 C 33.700 21.595 33.655 21.550 33.600 21.550 H 30.300 C 29.703 21.550 29.117 21.707 28.600 22.006 C 28.083 22.304 27.654 22.733 27.356 23.250 C 27.057 23.767 26.900 24.353 26.900 24.950 V 34.850 C 26.900 36.026 27.210 37.181 27.798 38.200 C 28.386 39.219 29.231 40.064 30.250 40.652 C 31.269 41.240 32.424 41.550 33.600 41.550 Z" stroke="rgb(0,0,0)" stroke-width="0.20" />
  <path d="M 34.700 14.950 C 34.700 14.806 34.741 14.665 34.819 14.545 C 34.897 14.424 35.008 14.328 35.138 14.268 C 35.269 14.208 35.414 14.187 35.557 14.208 C 35.699 14.228 35.832 14.289 35.941 14.383 C 36.050 14.477 36.129 14.601 36.170 14.739 C 36.210 14.877 36.210 15.023 36.170 15.161 C 36.129 15.299 36.050 15.423 35.941 15.517 C 35.832 15.611 35.699 15.672 35.557 15.692 C 35.414 15.713 35.269 15.692 35.138 15.632 C 35.008 15.572 34.897 15.476 34.819 15.355 C 34.741 15.235 34.700 15.094 34.700 14.950 Z" stroke="rgb(0,0,255)" stroke-width="0.20" />
  <path d="M 35.450 10.000 C 34.564 10.000 33.693 10.233 32.925 10.677 C 32.157 11.120 31.520 11.757 31.077 12.525 C 30.633 13.293 30.400 14.164 30.400 15.050 C 30.400 15.936 30.633 16.807 31.077 17.575 C 31.520 18.343 32.157 18.980 32.925 19.423 C 33.693 19.867 34.564 20.100 35.450 20.100 C 35.395 20.100 35.350 20.055 35.350 20.000 V 23.300 C 35.350 23.355 35.395 23.400 35.450 23.400 H 38.750 C 38.695 23.400 38.650 23.355 38.650 23.300 V 26.600 C 38.650 26.545 38.695 26.500 38.750 26.500 H 35.450 C 35.395 26.500 35.350 26.545 35.350 26.600 V 29.900 C 35.350 29.955 35.395 30.000 35.450 30.000 H 38.750 C 39.347 30.000 39.933 29.843 40.450 29.544 C 40.967 29.246 41.396 28.817 41.694 28.300 C 41.993 27.783 42.150 27.197 42.150 26.600 V 16.700 C 42.150 15.524 41.840 14.369 41.252 13.350 C 40.664 12.331 39.819 11.486 38.800 10.898 C 37.781 10.310 36.626 10.000 35.450 10.000 Z" stroke="rgb(0,0,0)" stroke-width="0.20" />
  <path d="M 51.250 36.600 C 51.250 36.744 51.209 36.885 51.131 37.005 C 51.053 37.126 50.942 37.222 50.812 37.282 C 50.681 37.342 50.536 37.363 50.393 37.342 C 50.251 37.322 50.118 37.261 50.009 37.167 C 49.900 37.073 49.821 36.949 49.780 36.811 C 49.740 36.673 49.740 36.527 49.780 36.389 C 49.821 36.251 49.900 36.127 50.009 36.033 C 50.118 35.939 50.251 35.878 50.393 35.858 C 50.536 35.837 50.681 35.858 50.812 35.918 C 50.942 35.978 51.053 36.074 51.131 36.195 C 51.209 36.315 51.250 36.456 51.250 36.600 Z" stroke="rgb(0,0,255)" stroke-width="0.20" />
  <path d="M 50.500 41.550 C 51.386 41.550 52.257 41.317 53.025 40.873 C 53.793 40.430 54.430 39.793 54.873 39.025 C 55.317 38.257 55.550 37.386 55.550 36.500 C 55.550 35.614 55.317 34.743 54.873 33.975 C 54.430 33.207 53.793 32.570 53.025 32.127 C 52.257 31.683 51.386 31.450 50.500 31.450 C 50.555 31.450 50.600 31.495 50.600 31.550 V 28.250 C 50.600 28.195 50.555 28.150 50.500 28.150 H 47.200 C 47.255 28.150 47.300 28.195 47.300 28.250 V 24.950 C 47.300 25.005 47.255 25.050 47.200 25.050 H 50.500 C 50.555 25.050 50.600 25.005 50.600 24.950 V 21.650 C 50.600 21.595 50.555 21.550 50.500 21.550 H 47.200 C 46.603 21.550 46.017 21.707 45.500 22.006 C 44.983 22.304 44.554 22.733 44.256 23.250 C 43.957 23.767 43.800 24.353 43.800 24.950 V 34.850 C 43.800 36.026 44.110 37.181 44.698 38.200 C 45.286 39.219 46.131 40.064 47.150 40.652 C 48.169 41.240 49.324 41.550 50.500 41.550 Z" stroke="rgb(0,0,0)" stroke-width="0.20" />
  <path d="M 51.600 14.950 C 51.600 14.806 51.641 14.665 51.719 14.545 C 51.797 14.424 51.908 14.328 52.038 14.268 C 52.169 14.208 52.314 14.187 52.457 14.208 C 52.599 14.228 52.732 14.289 52.841 14.383 C 52.950 14.477 53.029 14.601 53.070 14.739 C 53.110 14.877 53.110 15.023 53.070 15.161 C 53.029 15.299 52.950 15.423 52.841 15.517 C 52.732 15.611 52.599 15.672 52.457 15.692 C 52.314 15.713 52.169 15.692 52.038 15.632 C 51.908 15.572 51.797 15.476 51.719 15.355 C 51.641 15.235 51.600 15.094 51.600 14.950 Z" stroke="rgb(0,0,255)" stroke-width="0.20" />
  <path d="M 52.350 10.000 C 51.464 10.000 50.593 10.233 49.825 10.677 C 49.057 11.120 48.420 11.757 47.977 12.525 C 47.533 13.293 47.300 14.164 47.300 15.050 C 47.300 15.936 47.533 16.807 47.977 17.575 C 48.420 18.343 49.057 18.980 49.825 19.423 C 50.593 19.867 51.464 20.100 52.350 20.100 C 52.295 20.100 52.250 20.055 52.250 20.000 V 23.300 C 52.250 23.355 52.295 23.400 52.350 23.400 H 55.650 C 55.595 23.400 55.550 23.355 55.550 23.300 V 26.600 C 55.550 26.545 55.595 26.500 55.650 26.500 H 52.350 C 52.295 26.500 52.250 26.545 52.250 26.600 V 29.900 C 52.250 29.955 52.295 30.000 52.350 30.000 H 55.650 C 56.247 30.000 56.833 29.843 57.350 29.544 C 57.867 29.246 58.296 28.817 58.594 28.300 C 58.893 27.783 59.050 27.197 59.050 26.600 V 16.700 C 59.050 15.524 58.740 14.369 58.152 13.350 C 57.564 12.331 56.719 11.486 55.700 10.898 C 54.681 10.310 53.526 10.000 52.350 10.000 Z" stroke="rgb(0,0,0)" stroke-width="0.20" />
  <path d="M 68.150 36.600 C 68.150 36.744 68.109 36.885 68.031 37.005 C 67.953 37.126 67.842 37.222 67.712 37.282 C 67.581 37.342 67.436 37.363 67.293 37.342 C 67.151 37.322 67.018 37.261 66.909 37.167 C 66.800 37.073 66.721 36.949 66.680 36.811 C 66.640 36.673 66.640 36.527 66.680 36.389 C 66.721 36.251 66.800 36.127 66.909 36.033 C 67.018 35.939 67.151 35.878 67.293 35.858 C 67.436 35.837 67.581 35.858 67.712 35.918 C 67.842 35.978 67.953 36.074 68.031 36.195 C 68.109 36.315 68.150 36.456 68.150 36.600 Z" stroke="rgb(0,0,255)" stroke-width="0.20" />
  <path d="M 67.400 41.550 C 68.286 41.550 69.157 41.317 69.925 40.873 C 70.693 40.430 71.330 39.793 71.773 39.025 C 72.217 38.257 72.450 37.386 72.450 36.500 C 72.450 35.614 72.217 34.743 71.773 33.975 C 71.330 33.207 70.693 32.570 69.925 32.127 C 69.157 31.683 68.286 31.450 67.400 31.450 C 67.455 31.450 67.500 31.495 67.500 31.550 V 28.250 C 67.500 28.195 67.455 28.150 67.400 28.150 H 64.100 C 64.155 28.150 64.200 28.195 64.200 28.250 V 24.950 C 64.200 25.005 64.155 25.050 64.100 25.050 H 67.400 C 67.455 25.050 67.500 25.005 67.500 24.950 V 21.650 C 67.500 21.595 67.455 21.550 67.400 21.550 H 64.100 C 63.503 21.550 62.917 21.707 62.400 22.006 C 61.883 22.304 61.454 22.733 61.156 23.250 C 60.857 23.767 60.700 24.353 60.700 24.950 V 34.850 C 60.700 36.026 61.010 37.181 61.598 38.200 C 62.186 39.219 63.031 40.064 64.050 40.652 C 65.069 41.240 66.224 41.550 67.400 41.550 Z" stroke="rgb(0,0,0)" stroke-width="0.20" />
  <path d="M 68.500 14.950 C 68.500 14.806 68.541 14.665 68.619 14.545 C 68.697 14.424 68.808 14.328 68.938 14.268 C 69.069 14.208 69.214 14.187 69.357 14.208 C 69.499 14.228 69.632 14.289 69.741 14.383 C 69.850 14.477 69.929 14.601 69.970 14.739 C 70.010 14.877 70.010 15.023 69.970 15.161 C 69.929 15.299 69.850 15.423 69.741 15.517 C 69.632 15.611 69.499 15.672 69.357 15.692 C 69.214 15.713 69.069 15.692 68.938 15.632 C 68.808 15.572 68.697 15.476 68.619 15.355 C 68.541 15.235 68.500 15.094 68.500 14.950 Z" stroke="rgb(0,0,255)" stroke-width="0.20" />
  <path d="M 69.250 10.000 C 68.364 10.000 67.493 10.233 66.725 10.677 C 65.957 11.120 65.320 11.757 64.877 12.525 C 64.433 13.293 64.200 14.164 64.200 15.050 C 64.200 15.936 64.433 16.807 64.877 17.575 C 65.320 18.343 65.957 18.980 66.725 19.423 C 67.493 19.867 68.364 20.100 69.250 20.100 C 69.195 20.100 69.150 20.055 69.150 20.000 V 23.300 C 69.150 23.355 69.195 23.400 69.250 23.400 H 72.550 C 72.495 23.400 72.450 23.355 72.450 23.300 V 26.600 C 72.450 26.545 72.495 26.500 72.550 26.500 H 69.250 C 69.195 26.500 69.150 26.545 69.150 26.600 V 29.900 C 69.150 29.955 69.195 30.000 69.250 30.000 H 72.550 C 73.147 30.000 73.733 29.843 74.250 29.544 C 74.767 29.246 75.196 28.817 75.494 28.300 C 75.793 27.783 75.950 27.197 75.950 26.600 V 16.700 C 75.950 15.524 75.640 14.369 75.052 13.350 C 74.464 12.331 73.619 11.486 72.600 10.898 C 71.581 10.310 70.426 10.000 69.250 10.000 Z" stroke="rgb(0,0,0)" stroke-width="0.20" />
  <path d="M 85.050 36.600 C 85.050 36.744 85.009 36.885 84.931 37.005 C 84.853 37.126 84.742 37.222 84.612 37.282 C 84.481 37.342 84.336 37.363 84.193 37.342 C 84.051 37.322 83.918 37.261 83.809 37.167 C 83.700 37.073 83.621 36.949 83.580 36.811 C 83.540 36.673 83.540 36.527 83.580 36.389 C 83.621 36.251 83.700 36.127 83.809 36.033 C 83.918 35.939 84.051 35.878 84.193 35.858 C 84.336 35.837 84.481 35.858 84.612 35.918 C 84.742 35.978 84.853 36.074 84.931 36.195 C 85.009 36.315 85.050 36.456 85.050 36.600 Z" stroke="rgb(0,0,255)" stroke-width="0.20" />
  <path d="M 84.300 41.550 C 85.186 41.550 86.057 41.317 86.825 40.873 C 87.593 40.430 88.230 39.793 88.673 39.025 C 89.117 38.257 89.350 37.386 89.350 36.500 C 89.350 35.614 89.117 34.743 88.673 33.975 C 88.230 33.207 87.593 32.570 86.825 32.127 C 86.057 31.683 85.186 31.450 84.300 31.450 C 84.355 31.450 84.400 31.495 84.400 31.550 V 28.250 C 84.400 28.195 84.355 28.150 84.300 28.150 H 81.000 C 81.055 28.150 81.100 28.195 81.100 28.250 V 24.950 C 81.100 25.005 81.055 25.050 81.000 25.050 H 84.300 C 84.355 25.050 84.400 25.005 84.400 24.950 V 21.650 C 84.400 21.595 84.355 21.550 84.300 21.550 H 81.000 C 80.403 21.550 79.817 21.707 79.300 22.006 C 78.783 22.304 78.354 22.733 78.056 23.250 C 77.757 23.767 77.600 24.353 77.600 24.950 V 34.850 C 77.600 36.026 77.910 37.181 78.498 38.200 C 79.086 39.219 79.931 40.064 80.950 40.652 C 81.969 41.240 83.124 41.550 84.300 41.550 Z" stroke="rgb(0,0,0)" stroke-width="0.20" />
  <path d="M 85.400 14.950 C 85.400 14.806 85.441 14.665 85.519 14.545 C 85.597 14.424 85.708 14.328 85.838 14.268 C 85.969 14.208 86.114 14.187 86.257 14.208 C 86.399 14.228 86.532 14.289 86.641 14.383 C 86.750 14.477 86.829 14.601 86.870 14.739 C 86.910 14.877 86.910 15.023 86.870 15.161 C 86.829 15.299 86.750 15.423 86.641 15.517 C 86.532 15.611 86.399 15.672 86.257 15.692 C 86.114 15.713 85.969 15.692 85.838 15.632 C 85.708 15.572 85.597 15.476 85.519 15.355 C 85.441 15.235 85.400 15.094 85.400 14.950 Z" stroke="rgb(0,0,255)" stroke-width="0.20" />
  <text dominant-baseline="hanging" font-size="4px" style="font-family: sans-serif ; font-weight: normal; font-style: normal; fill: rgb(255,0,0)" text-anchor="middle" transform="matrix( 1.000 0.000 0.000 1.000 25.875 23.050 )">hinges</text><path d="M 86.150 10.000 C 85.264 10.000 84.393 10.233 83.625 10.677 C 82.857 11.120 82.220 11.757 81.777 12.525 C 81.333 13.293 81.100 14.164 81.100 15.050 C 81.100 15.936 81.333 16.807 81.777 17.575 C 82.220 18.343 82.857 18.980 83.625 19.423 C 84.393 19.867 85.264 20.100 86.150 20.100 C 86.095 20.100 86.050 20.055 86.050 20.000 V 23.300 C 86.050 23.355 86.095 23.400 86.150 23.400 H 89.450 C 89.395 23.400 89.350 23.355 89.350 23.300 V 26.600 C 89.350 26.545 89.395 26.500 89.450 26.500 H 86.150 C 86.095 26.500 86.050 26.545 86.050 26.600 V 29.900 C 86.050 29.955 86.095 30.000 86.150 30.000 H 89.450 C 90.047 30.000 90.633 29.843 91.150 29.544 C 91.667 29.246 92.096 28.817 92.394 28.300 C 92.693 27.783 92.850 27.197 92.850 26.600 V 16.700 C 92.850 15.524 92.540 14.369 91.952 13.350 C 91.364 12.331 90.519 11.486 89.500 10.898 C 88.481 10.310 87.326 10.000 86.150 10.000" stroke="rgb(0,0,0)" stroke-width="0.20" />
</g>
</svg>