<?xml version='1.0' encoding='utf-8'?>
<svg height="178.95mm" viewBox="0.0 0.0 185.25 178.95" width="185.25mm" xmlns="http://www.w3.org/2000/svg" xmlns:cc="http://creativecommons.org/ns#" xmlns:dc="http://purl.org/dc/elements/1.1/" xmlns:inkscape="http://www.inkscape.org/namespaces/inkscape" xmlns:rdf="http://www.w3.org/1999/02/22-rdf-syntax-ns#" xmlns:svg="http://www.w3.org/2000/svg" xmlns:xlink="http://www.w3.org/1999/xlink">
<!--
ABox - A simple Box


This box is kept simple on purpose. If you need more features have a look at the UniversalBox.


Created with Boxes.py (https://boxes.hackerspace-bamberg.de/)
Creation date: 2025-08-09 10:24:10
Command line (remove spaces between dashes): boxes ABox - -FingerJoint_surroundingspaces=2.5 - -FingerJoint_bottom_lip=1.0 - -FingerJoint_finger=4.0 - -FingerJoint_space=3.0 - -y=50 - -h=40 - -outside=0 - -bottom_edge=F - -thickness=3.3 - -inner_corners=backarc
Url: https://boxes.hackerspace-bamberg.de/ABox?FingerJoint_style=rectangular&FingerJoint_surroundingspaces=2.5&FingerJoint_bottom_lip=1.0&FingerJoint_edge_width=1.0&FingerJoint_extra_length=0.0&FingerJoint_finger=4.0&FingerJoint_play=0.0&FingerJoint_space=3.0&FingerJoint_width=1.0&Lid_handle=none&Lid_style=none&Lid_handle_height=8.0&Lid_height=4.0&Lid_play=0.1&x=100&y=50&h=40&outside=0&bottom_edge=F&thickness=3.3&format=svg&tabs=0.0&qr_code=0&debug=0&labels=0&labels=1&reference=100.0&inner_corners=backarc&burn=0.1&language=en&render=2
Url short: https://boxes.hackerspace-bamberg.de/ABox?FingerJoint_surroundingspaces=2.5&FingerJoint_bottom_lip=1.0&FingerJoint_finger=4.0&FingerJoint_space=3.0&y=50&h=40&outside=0&bottom_edge=F&thickness=3.3&inner_corners=backarc
SettingsUrl: https://boxes.hackerspace-bamberg.de/ABox?FingerJoint_style=rectangular&FingerJoint_surroundingspaces=2.5&FingerJoint_bottom_lip=1.0&FingerJoint_edge_width=1.0&FingerJoint_extra_length=0.0&FingerJoint_finger=4.0&FingerJoint_play=0.0&FingerJoint_space=3.0&FingerJoint_width=1.0&Lid_handle=none&Lid_style=none&Lid_handle_height=8.0&Lid_height=4.0&Lid_play=0.1&x=100&y=50&h=40&outside=0&bottom_edge=F&thickness=3.3&format=svg&tabs=0.0&qr_code=0&debug=0&labels=0&labels=1&reference=100.0&inner_corners=backarc&burn=0.1&language=en&render=2
SettingsUrl short: https://boxes.hackerspace-bamberg.de/ABox?FingerJoint_surroundingspaces=2.5&FingerJoint_bottom_lip=1.0&FingerJoint_finger=4.0&FingerJoint_space=3.0&y=50&h=40&outside=0&bottom_edge=F&thickness=3.3&inner_corners=backarc
-->
<title>ABox</title>
<metadata>
<rdf:RDF><cc:Work>
<dc:title>Box - ABox</dc:title>
<dc:date>2025-08-09 10:24:10</dc:date>
<dc:source>https://boxes.hackerspace-bamberg.de/ABox?FingerJoint_style=rectangular&amp;FingerJoint_surroundingspaces=2.5&amp;FingerJoint_bottom_lip=1.0&amp;FingerJoint_edge_width=1.0&amp;FingerJoint_extra_length=0.0&amp;FingerJoint_finger=4.0&amp;FingerJoint_play=0.0&amp;FingerJoint_space=3.0&amp;FingerJoint_width=1.0&amp;Lid_handle=none&amp;Lid_style=none&amp;Lid_handle_height=8.0&amp;Lid_height=4.0&amp;Lid_play=0.1&amp;x=100&amp;y=50&amp;h=40&amp;outside=0&amp;bottom_edge=F&amp;thickness=3.3&amp;format=svg&amp;tabs=0.0&amp;qr_code=0&amp;debug=0&amp;labels=0&amp;labels=1&amp;reference=100.0&amp;inner_corners=backarc&amp;burn=0.1&amp;language=en&amp;render=2</dc:source>
<dc:source>https://boxes.hackerspace-bamberg.de/ABox?FingerJoint_surroundingspaces=2.5&amp;FingerJoint_bottom_lip=1.0&amp;FingerJoint_finger=4.0&amp;FingerJoint_space=3.0&amp;y=50&amp;h=40&amp;outside=0&amp;bottom_edge=F&amp;thickness=3.3&amp;inner_corners=backarc</dc:source>
<dc:description>A simple Box

This box is kept simple on purpose. If you need more features have a look at the UniversalBox.

Created with Boxes.py (https://boxes.hackerspace-bamberg.de/)
Command line: boxes ABox --FingerJoint_style=rectangular --FingerJoint_surroundingspaces=2.5 --FingerJoint_bottom_lip=1.0 --FingerJoint_edge_width=1.0 --FingerJoint_extra_length=0.0 --FingerJoint_finger=4.0 --FingerJoint_play=0.0 --FingerJoint_space=3.0 --FingerJoint_width=1.0 --Lid_handle=none --Lid_style=none --Lid_handle_height=8.0 --Lid_height=4.0 --Lid_play=0.1 --x=100 --y=50 --h=40 --outside=0 --bottom_edge=F --thickness=3.3 --format=svg --tabs=0.0 --qr_code=0 --debug=0 --labels=0 --labels=1 --reference=100.0 --inner_corners=backarc --burn=0.1
Command line short: boxes ABox --FingerJoint_surroundingspaces=2.5 --FingerJoint_bottom_lip=1.0 --FingerJoint_finger=4.0 --FingerJoint_space=3.0 --y=50 --h=40 --outside=0 --bottom_edge=F --thickness=3.3 --inner_corners=backarc
Url: https://boxes.hackerspace-bamberg.de/ABox?FingerJoint_style=rectangular&amp;FingerJoint_surroundingspaces=2.5&amp;FingerJoint_bottom_lip=1.0&amp;FingerJoint_edge_width=1.0&amp;FingerJoint_extra_length=0.0&amp;FingerJoint_finger=4.0&amp;FingerJoint_play=0.0&amp;FingerJoint_space=3.0&amp;FingerJoint_width=1.0&amp;Lid_handle=none&amp;Lid_style=none&amp;Lid_handle_height=8.0&amp;Lid_height=4.0&amp;Lid_play=0.1&amp;x=100&amp;y=50&amp;h=40&amp;outside=0&amp;bottom_edge=F&amp;thickness=3.3&amp;format=svg&amp;tabs=0.0&amp;qr_code=0&amp;debug=0&amp;labels=0&amp;labels=1&amp;reference=100.0&amp;inner_corners=backarc&amp;burn=0.1&amp;language=en&amp;render=2
Url short: https://boxes.hackerspace-bamberg.de/ABox?FingerJoint_surroundingspaces=2.5&amp;FingerJoint_bottom_lip=1.0&amp;FingerJoint_finger=4.0&amp;FingerJoint_space=3.0&amp;y=50&amp;h=40&amp;outside=0&amp;bottom_edge=F&amp;thickness=3.3&amp;inner_corners=backarc
SettingsUrl: https://boxes.hackerspace-bamberg.de/ABox?FingerJoint_style=rectangular&amp;FingerJoint_surroundingspaces=2.5&amp;FingerJoint_bottom_lip=1.0&amp;FingerJoint_edge_width=1.0&amp;FingerJoint_extra_length=0.0&amp;FingerJoint_finger=4.0&amp;FingerJoint_play=0.0&amp;FingerJoint_space=3.0&amp;FingerJoint_width=1.0&amp;Lid_handle=none&amp;Lid_style=none&amp;Lid_handle_height=8.0&amp;Lid_height=4.0&amp;Lid_play=0.1&amp;x=100&amp;y=50&amp;h=40&amp;outside=0&amp;bottom_edge=F&amp;thickness=3.3&amp;format=svg&amp;tabs=0.0&amp;qr_code=0&amp;debug=0&amp;labels=0&amp;labels=1&amp;reference=100.0&amp;inner_corners=backarc&amp;burn=0.1&amp;language=en&amp;render=2
SettingsUrl short: https://boxes.hackerspace-bamberg.de/ABox?FingerJoint_surroundingspaces=2.5&amp;FingerJoint_bottom_lip=1.0&amp;FingerJoint_finger=4.0&amp;FingerJoint_space=3.0&amp;y=50&amp;h=40&amp;outside=0&amp;bottom_edge=F&amp;thickness=3.3&amp;inner_corners=backarc
</dc:description>
</cc:Work></rdf:RDF></metadata>
<g id="p-0" style="fill:none;stroke-linecap:round;stroke-linejoin:round;">
  <path d="M 10.100 168.950 H 110.100 V 158.950 H 10.100 V 168.950 Z" stroke="rgb(0,0,0)" stroke-width="0.20" />
  <text dominant-baseline="hanging" font-size="6px" style="font-family: sans-serif ; font-weight: normal; font-style: normal; fill: rgb(255,0,0)" text-anchor="middle" transform="matrix( 1.000 0.000 0.000 1.000 60.100 160.950 )">100.0mm, burn:0.10mm</text>
</g>
<g id="p-1" style="fill:none;stroke-linecap:round;stroke-linejoin:round;">
  <path d="M 13.400 157.100 H 33.700 C 33.755 157.100 33.800 157.055 33.800 157.000 V 153.700 C 33.800 153.755 33.755 153.800 33.700 153.800 H 46.900 C 46.845 153.800 46.800 153.755 46.800 153.700 V 157.000 C 46.800 157.055 46.845 157.100 46.900 157.100 H 56.800 C 56.855 157.100 56.900 157.055 56.900 157.000 V 153.700 C 56.900 153.755 56.855 153.800 56.800 153.800 H 70.000 C 69.945 153.800 69.900 153.755 69.900 153.700 V 157.000 C 69.900 157.055 69.945 157.100 70.000 157.100 H 79.900 C 79.955 157.100 80.000 157.055 80.000 157.000 V 153.700 C 80.000 153.755 79.955 153.800 79.900 153.800 H 93.100 C 93.045 153.800 93.000 153.755 93.000 153.700 V 157.000 C 93.000 157.055 93.045 157.100 93.100 157.100 H 113.400 H 116.700 C 116.755 157.100 116.800 157.055 116.800 157.000 V 141.950 C 116.800 141.895 116.755 141.850 116.700 141.850 H 113.400 C 113.455 141.850 113.500 141.895 113.500 141.950 V 128.750 C 113.500 128.805 113.455 128.850 113.400 128.850 H 116.700 C 116.755 128.850 116.800 128.805 116.800 128.750 V 113.700 C 116.800 113.645 116.755 113.600 116.700 113.600 H 113.400 H 13.400 H 10.100 C 10.045 113.600 10.000 113.645 10.000 113.700 V 128.750 C 10.000 128.805 10.045 128.850 10.100 128.850 H 13.400 C 13.345 128.850 13.300 128.805 13.300 128.750 V 141.950 C 13.300 141.895 13.345 141.850 13.400 141.850 H 10.100 C 10.045 141.850 10.000 141.895 10.000 141.950 V 157.000 C 10.000 157.055 10.045 157.100 10.100 157.100 H 13.400 Z" stroke="rgb(0,0,0)" stroke-width="0.20" />
</g>
<g id="p-2" style="fill:none;stroke-linecap:round;stroke-linejoin:round;">
  <path d="M 13.400 111.950 H 33.700 C 33.755 111.950 33.800 111.905 33.800 111.850 V 108.550 C 33.800 108.605 33.755 108.650 33.700 108.650 H 46.900 C 46.845 108.650 46.800 108.605 46.800 108.550 V 111.850 C 46.800 111.905 46.845 111.950 46.900 111.950 H 56.800 C 56.855 111.950 56.900 111.905 56.900 111.850 V 108.550 C 56.900 108.605 56.855 108.650 56.800 108.650 H 70.000 C 69.945 108.650 69.900 108.605 69.900 108.550 V 111.850 C 69.900 111.905 69.945 111.950 70.000 111.950 H 79.900 C 79.955 111.950 80.000 111.905 80.000 111.850 V 108.550 C 80.000 108.605 79.955 108.650 79.900 108.650 H 93.100 C 93.045 108.650 93.000 108.605 93.000 108.550 V 111.850 C 93.000 111.905 93.045 111.950 93.100 111.950 H 113.400 H 116.700 C 116.755 111.950 116.800 111.905 116.800 111.850 V 96.800 C 116.800 96.745 116.755 96.700 116.700 96.700 H 113.400 C 113.455 96.700 113.500 96.745 113.500 96.800 V 83.600 C 113.500 83.655 113.455 83.700 113.400 83.700 H 116.700 C 116.755 83.700 116.800 83.655 116.800 83.600 V 68.550 C 116.800 68.495 116.755 68.450 116.700 68.450 H 113.400 H 13.400 H 10.100 C 10.045 68.450 10.000 68.495 10.000 68.550 V 83.600 C 10.000 83.655 10.045 83.700 10.100 83.700 H 13.400 C 13.345 83.700 13.300 83.655 13.300 83.600 V 96.800 C 13.300 96.745 13.345 96.700 13.400 96.700 H 10.100 C 10.045 96.700 10.000 96.745 10.000 96.800 V 111.850 C 10.000 111.905 10.045 111.950 10.100 111.950 H 13.400 Z" stroke="rgb(0,0,0)" stroke-width="0.20" />
</g>
<g id="p-3" style="fill:none;stroke-linecap:round;stroke-linejoin:round;">
  <path d="M 13.400 63.500 H 33.700 C 33.645 63.500 33.600 63.455 33.600 63.400 V 66.700 C 33.600 66.755 33.645 66.800 33.700 66.800 H 46.900 C 46.955 66.800 47.000 66.755 47.000 66.700 V 63.400 C 47.000 63.455 46.955 63.500 46.900 63.500 H 56.800 C 56.745 63.500 56.700 63.455 56.700 63.400 V 66.700 C 56.700 66.755 56.745 66.800 56.800 66.800 H 70.000 C 70.055 66.800 70.100 66.755 70.100 66.700 V 63.400 C 70.100 63.455 70.055 63.500 70.000 63.500 H 79.900 C 79.845 63.500 79.800 63.455 79.800 63.400 V 66.700 C 79.800 66.755 79.845 66.800 79.900 66.800 H 93.100 C 93.155 66.800 93.200 66.755 93.200 66.700 V 63.400 C 93.200 63.455 93.155 63.500 93.100 63.500 H 113.400 C 113.455 63.500 113.500 63.455 113.500 63.400 V 45.000 C 113.500 45.055 113.455 45.100 113.400 45.100 H 116.700 C 116.755 45.100 116.800 45.055 116.800 45.000 V 31.800 C 116.800 31.745 116.755 31.700 116.700 31.700 H 113.400 C 113.455 31.700 113.500 31.745 113.500 31.800 V 13.400 C 113.500 13.345 113.455 13.300 113.400 13.300 H 93.100 C 93.155 13.300 93.200 13.345 93.200 13.400 V 10.100 C 93.200 10.045 93.155 10.000 93.100 10.000 H 79.900 C 79.845 10.000 79.800 10.045 79.800 10.100 V 13.400 C 79.800 13.345 79.845 13.300 79.900 13.300 H 70.000 C 70.055 13.300 70.100 13.345 70.100 13.400 V 10.100 C 70.100 10.045 70.055 10.000 70.000 10.000 H 56.800 C 56.745 10.000 56.700 10.045 56.700 10.100 V 13.400 C 56.700 13.345 56.745 13.300 56.800 13.300 H 46.900 C 46.955 13.300 47.000 13.345 47.000 13.400 V 10.100 C 47.000 10.045 46.955 10.000 46.900 10.000 H 33.700 C 33.645 10.000 33.600 10.045 33.600 10.100 V 13.400 C 33.600 13.345 33.645 13.300 33.700 13.300 H 13.400 C 13.345 13.300 13.300 13.345 13.300 13.400 V 31.800 C 13.300 31.745 13.345 31.700 13.400 31.700 H 10.100 C 10.045 31.700 10.000 31.745 10.000 31.800 V 45.000 C 10.000 45.055 10.045 45.100 10.100 45.100 H 13.400 C 13.345 45.100 13.300 45.055 13.300 45.000 V 63.400 C 13.300 63.455 13.345 63.500 13.400 63.500 Z" stroke="rgb(0,0,0)" stroke-width="0.20" />
</g>
<g id="p-4" style="fill:none;stroke-linecap:round;stroke-linejoin:round;">
  <path d="M 121.850 157.100 H 140.250 C 140.305 157.100 140.350 157.055 140.350 157.000 V 153.700 C 140.350 153.755 140.305 153.800 140.250 153.800 H 153.450 C 153.395 153.800 153.350 153.755 153.350 153.700 V 157.000 C 153.350 157.055 153.395 157.100 153.450 157.100 H 171.850 C 171.905 157.100 171.950 157.055 171.950 157.000 V 141.950 C 171.950 142.005 171.905 142.050 171.850 142.050 H 175.150 C 175.205 142.050 175.250 142.005 175.250 141.950 V 128.750 C 175.250 128.695 175.205 128.650 175.150 128.650 H 171.850 C 171.905 128.650 171.950 128.695 171.950 128.750 V 113.700 C 171.950 113.645 171.905 113.600 171.850 113.600 H 121.850 C 121.795 113.600 121.750 113.645 121.750 113.700 V 128.750 C 121.750 128.695 121.795 128.650 121.850 128.650 H 118.550 C 118.495 128.650 118.450 128.695 118.450 128.750 V 141.950 C 118.450 142.005 118.495 142.050 118.550 142.050 H 121.850 C 121.795 142.050 121.750 142.005 121.750 141.950 V 157.000 C 121.750 157.055 121.795 157.100 121.850 157.100 Z" stroke="rgb(0,0,0)" stroke-width="0.20" />
</g>
<g id="p-5" style="fill:none;stroke-linecap:round;stroke-linejoin:round;">
  <path d="M 121.850 111.950 H 140.250 C 140.305 111.950 140.350 111.905 140.350 111.850 V 108.550 C 140.350 108.605 140.305 108.650 140.250 108.650 H 153.450 C 153.395 108.650 153.350 108.605 153.350 108.550 V 111.850 C 153.350 111.905 153.395 111.950 153.450 111.950 H 171.850 C 171.905 111.950 171.950 111.905 171.950 111.850 V 96.800 C 171.950 96.855 171.905 96.900 171.850 96.900 H 175.150 C 175.205 96.900 175.250 96.855 175.250 96.800 V 83.600 C 175.250 83.545 175.205 83.500 175.150 83.500 H 171.850 C 171.905 83.500 171.950 83.545 171.950 83.600 V 68.550 C 171.950 68.495 171.905 68.450 171.850 68.450 H 121.850 C 121.795 68.450 121.750 68.495 121.750 68.550 V 83.600 C 121.750 83.545 121.795 83.500 121.850 83.500 H 118.550 C 118.495 83.500 118.450 83.545 118.450 83.600 V 96.800 C 118.450 96.855 118.495 96.900 118.550 96.900 H 121.850 C 121.795 96.900 121.750 96.855 121.750 96.800 V 111.850 C 121.750 111.905 121.795 111.950 121.850 111.950 Z" stroke="rgb(0,0,0)" stroke-width="0.20" />
</g>
</svg>