<?xml version='1.0' encoding='utf-8'?>
<svg height="267.60mm" viewBox="0.0 0.0 358.45 267.60" width="358.45mm" xmlns="http://www.w3.org/2000/svg" xmlns:cc="http://creativecommons.org/ns#" xmlns:dc="http://purl.org/dc/elements/1.1/" xmlns:inkscape="http://www.inkscape.org/namespaces/inkscape" xmlns:rdf="http://www.w3.org/1999/02/22-rdf-syntax-ns#" xmlns:svg="http://www.w3.org/2000/svg" xmlns:xlink="http://www.w3.org/1999/xlink">
<!--
CardBox - Box for storage of playing cards, with versatile options



### Description
Versatile Box for Storage of playing cards. Multiple different styles of storage are supported, e.g. a flat storage or a trading card deck box style storage. See images for ideas.

#### Building instructions
Place inner walls on floor first (if any). Then add the outer walls. Glue the two walls without finger joins to the inside of the side walls. Make sure there is no squeeze out on top, as this is going to form the rail for the lid.

Add the top of the rails to the sides (front open) or to the back and front (right side open) and the grip rail to the lid.
Details of the lid and rails
![Details](static/samples/CardBox-detail.jpg)
Whole box (early version still missing grip rail on the lid):



Created with Boxes.py (https://boxes.hackerspace-bamberg.de/)
Creation date: 2025-08-09 08:51:16
Command line (remove spaces between dashes): boxes CardBox - -FingerJoint_surroundingspaces=3.0 - -FingerJoint_finger=3.0 - -FingerJoint_width=3.0 - -y=70 - -h=40 - -sx=155 - -fingerhole_depth=5 - -thickness=3.3
Url: https://boxes.hackerspace-bamberg.de/CardBox?FingerJoint_style=rectangular&FingerJoint_surroundingspaces=3.0&FingerJoint_bottom_lip=0.0&FingerJoint_edge_width=1.0&FingerJoint_extra_length=0.0&FingerJoint_finger=3.0&FingerJoint_play=0.0&FingerJoint_space=2.0&FingerJoint_width=3.0&y=70&h=40&outside=0&sx=155&openingdirection=front&fingerhole=regular&fingerhole_depth=5&add_lidtopper=0&thickness=3.3&format=svg&tabs=0.0&qr_code=0&debug=0&labels=0&labels=1&reference=100.0&inner_corners=loop&burn=0.1&language=en&render=2
Url short: https://boxes.hackerspace-bamberg.de/CardBox?FingerJoint_surroundingspaces=3.0&FingerJoint_finger=3.0&FingerJoint_width=3.0&y=70&h=40&sx=155&fingerhole_depth=5&thickness=3.3
SettingsUrl: https://boxes.hackerspace-bamberg.de/CardBox?FingerJoint_style=rectangular&FingerJoint_surroundingspaces=3.0&FingerJoint_bottom_lip=0.0&FingerJoint_edge_width=1.0&FingerJoint_extra_length=0.0&FingerJoint_finger=3.0&FingerJoint_play=0.0&FingerJoint_space=2.0&FingerJoint_width=3.0&y=70&h=40&outside=0&sx=155&openingdirection=front&fingerhole=regular&fingerhole_depth=5&add_lidtopper=0&thickness=3.3&format=svg&tabs=0.0&qr_code=0&debug=0&labels=0&labels=1&reference=100.0&inner_corners=loop&burn=0.1&language=en&render=2
SettingsUrl short: https://boxes.hackerspace-bamberg.de/CardBox?FingerJoint_surroundingspaces=3.0&FingerJoint_finger=3.0&FingerJoint_width=3.0&y=70&h=40&sx=155&fingerhole_depth=5&thickness=3.3
-->
<title>CardBox</title>
<metadata>
<rdf:RDF><cc:Work>
<dc:title>Box - CardBox</dc:title>
<dc:date>2025-08-09 08:51:16</dc:date>
<dc:source>https://boxes.hackerspace-bamberg.de/CardBox?FingerJoint_style=rectangular&amp;FingerJoint_surroundingspaces=3.0&amp;FingerJoint_bottom_lip=0.0&amp;FingerJoint_edge_width=1.0&amp;FingerJoint_extra_length=0.0&amp;FingerJoint_finger=3.0&amp;FingerJoint_play=0.0&amp;FingerJoint_space=2.0&amp;FingerJoint_width=3.0&amp;y=70&amp;h=40&amp;outside=0&amp;sx=155&amp;openingdirection=front&amp;fingerhole=regular&amp;fingerhole_depth=5&amp;add_lidtopper=0&amp;thickness=3.3&amp;format=svg&amp;tabs=0.0&amp;qr_code=0&amp;debug=0&amp;labels=0&amp;labels=1&amp;reference=100.0&amp;inner_corners=loop&amp;burn=0.1&amp;language=en&amp;render=2</dc:source>
<dc:source>https://boxes.hackerspace-bamberg.de/CardBox?FingerJoint_surroundingspaces=3.0&amp;FingerJoint_finger=3.0&amp;FingerJoint_width=3.0&amp;y=70&amp;h=40&amp;sx=155&amp;fingerhole_depth=5&amp;thickness=3.3</dc:source>
<dc:description>Box for storage of playing cards, with versatile options


### Description
Versatile Box for Storage of playing cards. Multiple different styles of storage are supported, e.g. a flat storage or a trading card deck box style storage. See images for ideas.

#### Building instructions
Place inner walls on floor first (if any). Then add the outer walls. Glue the two walls without finger joins to the inside of the side walls. Make sure there is no squeeze out on top, as this is going to form the rail for the lid.

Add the top of the rails to the sides (front open) or to the back and front (right side open) and the grip rail to the lid.
Details of the lid and rails
![Details](static/samples/CardBox-detail.jpg)
Whole box (early version still missing grip rail on the lid):


Created with Boxes.py (https://boxes.hackerspace-bamberg.de/)
Command line: boxes CardBox --FingerJoint_style=rectangular --FingerJoint_surroundingspaces=3.0 --FingerJoint_bottom_lip=0.0 --FingerJoint_edge_width=1.0 --FingerJoint_extra_length=0.0 --FingerJoint_finger=3.0 --FingerJoint_play=0.0 --FingerJoint_space=2.0 --FingerJoint_width=3.0 --y=70 --h=40 --outside=0 --sx=155 --openingdirection=front --fingerhole=regular --fingerhole_depth=5 --add_lidtopper=0 --thickness=3.3 --format=svg --tabs=0.0 --qr_code=0 --debug=0 --labels=0 --labels=1 --reference=100.0 --inner_corners=loop --burn=0.1
Command line short: boxes CardBox --FingerJoint_surroundingspaces=3.0 --FingerJoint_finger=3.0 --FingerJoint_width=3.0 --y=70 --h=40 --sx=155 --fingerhole_depth=5 --thickness=3.3
Url: https://boxes.hackerspace-bamberg.de/CardBox?FingerJoint_style=rectangular&amp;FingerJoint_surroundingspaces=3.0&amp;FingerJoint_bottom_lip=0.0&amp;FingerJoint_edge_width=1.0&amp;FingerJoint_extra_length=0.0&amp;FingerJoint_finger=3.0&amp;FingerJoint_play=0.0&amp;FingerJoint_space=2.0&amp;FingerJoint_width=3.0&amp;y=70&amp;h=40&amp;outside=0&amp;sx=155&amp;openingdirection=front&amp;fingerhole=regular&amp;fingerhole_depth=5&amp;add_lidtopper=0&amp;thickness=3.3&amp;format=svg&amp;tabs=0.0&amp;qr_code=0&amp;debug=0&amp;labels=0&amp;labels=1&amp;reference=100.0&amp;inner_corners=loop&amp;burn=0.1&amp;language=en&amp;render=2
Url short: https://boxes.hackerspace-bamberg.de/CardBox?FingerJoint_surroundingspaces=3.0&amp;FingerJoint_finger=3.0&amp;FingerJoint_width=3.0&amp;y=70&amp;h=40&amp;sx=155&amp;fingerhole_depth=5&amp;thickness=3.3
SettingsUrl: https://boxes.hackerspace-bamberg.de/CardBox?FingerJoint_style=rectangular&amp;FingerJoint_surroundingspaces=3.0&amp;FingerJoint_bottom_lip=0.0&amp;FingerJoint_edge_width=1.0&amp;FingerJoint_extra_length=0.0&amp;FingerJoint_finger=3.0&amp;FingerJoint_play=0.0&amp;FingerJoint_space=2.0&amp;FingerJoint_width=3.0&amp;y=70&amp;h=40&amp;outside=0&amp;sx=155&amp;openingdirection=front&amp;fingerhole=regular&amp;fingerhole_depth=5&amp;add_lidtopper=0&amp;thickness=3.3&amp;format=svg&amp;tabs=0.0&amp;qr_code=0&amp;debug=0&amp;labels=0&amp;labels=1&amp;reference=100.0&amp;inner_corners=loop&amp;burn=0.1&amp;language=en&amp;render=2
SettingsUrl short: https://boxes.hackerspace-bamberg.de/CardBox?FingerJoint_surroundingspaces=3.0&amp;FingerJoint_finger=3.0&amp;FingerJoint_width=3.0&amp;y=70&amp;h=40&amp;sx=155&amp;fingerhole_depth=5&amp;thickness=3.3
</dc:description>
</cc:Work></rdf:RDF></metadata>
<g id="p-0" style="fill:none;stroke-linecap:round;stroke-linejoin:round;">
  <path d="M 10.100 257.600 H 110.100 V 247.600 H 10.100 V 257.600 Z" stroke="rgb(0,0,0)" stroke-width="0.20" />
  <text dominant-baseline="hanging" font-size="6px" style="font-family: sans-serif ; font-weight: normal; font-style: normal; fill: rgb(255,0,0)" text-anchor="middle" transform="matrix( 1.000 0.000 0.000 1.000 60.100 249.600 )">100.0mm, burn:0.10mm</text>
</g>
<g id="p-1" style="fill:none;stroke-linecap:round;stroke-linejoin:round;">
  <text dominant-baseline="hanging" font-size="4px" style="font-family: sans-serif ; font-weight: normal; font-style: normal; fill: rgb(255,0,0)" text-anchor="middle" transform="matrix( 1.000 0.000 0.000 1.000 90.570 207.100 )">Lid</text><path d="M 10.100 245.750 H 171.040 C 171.095 245.750 171.140 245.705 171.140 245.650 V 175.650 V 172.350 C 171.140 172.295 171.095 172.250 171.040 172.250 H 153.270 C 153.215 172.250 153.170 172.295 153.170 172.350 V 175.550 C 153.170 175.650 153.270 175.550 153.170 175.550 H 143.470 C 143.370 175.550 143.470 175.650 143.470 175.550 V 172.350 C 143.470 172.295 143.425 172.250 143.370 172.250 H 136.770 C 136.715 172.250 136.670 172.295 136.670 172.350 V 175.550 C 136.670 175.650 136.770 175.550 136.670 175.550 H 126.970 C 126.870 175.550 126.970 175.650 126.970 175.550 V 172.350 C 126.970 172.295 126.925 172.250 126.870 172.250 H 120.270 C 120.215 172.250 120.170 172.295 120.170 172.350 V 175.550 C 120.170 175.650 120.270 175.550 120.170 175.550 H 110.470 C 110.370 175.550 110.470 175.650 110.470 175.550 V 172.350 C 110.470 172.295 110.425 172.250 110.370 172.250 H 103.770 C 103.715 172.250 103.670 172.295 103.670 172.350 V 175.550 C 103.670 175.650 103.770 175.550 103.670 175.550 H 93.970 C 93.870 175.550 93.970 175.650 93.970 175.550 V 172.350 C 93.970 172.295 93.925 172.250 93.870 172.250 H 87.270 C 87.215 172.250 87.170 172.295 87.170 172.350 V 175.550 C 87.170 175.650 87.270 175.550 87.170 175.550 H 77.470 C 77.370 175.550 77.470 175.650 77.470 175.550 V 172.350 C 77.470 172.295 77.425 172.250 77.370 172.250 H 70.770 C 70.715 172.250 70.670 172.295 70.670 172.350 V 175.550 C 70.670 175.650 70.770 175.550 70.670 175.550 H 60.970 C 60.870 175.550 60.970 175.650 60.970 175.550 V 172.350 C 60.970 172.295 60.925 172.250 60.870 172.250 H 54.270 C 54.215 172.250 54.170 172.295 54.170 172.350 V 175.550 C 54.170 175.650 54.270 175.550 54.170 175.550 H 44.470 C 44.370 175.550 44.470 175.650 44.470 175.550 V 172.350 C 44.470 172.295 44.425 172.250 44.370 172.250 H 37.770 C 37.715 172.250 37.670 172.295 37.670 172.350 V 175.550 C 37.670 175.650 37.770 175.550 37.670 175.550 H 27.970 C 27.870 175.550 27.970 175.650 27.970 175.550 V 172.350 C 27.970 172.295 27.925 172.250 27.870 172.250 H 10.100 C 10.045 172.250 10.000 172.295 10.000 172.350 V 175.650 V 245.650 C 10.000 245.705 10.045 245.750 10.100 245.750" stroke="rgb(0,0,0)" stroke-width="0.20" />
</g>
<g id="p-2" style="fill:none;stroke-linecap:round;stroke-linejoin:round;">
  <text dominant-baseline="hanging" font-size="4px" style="font-family: sans-serif ; font-weight: normal; font-style: normal; fill: rgb(255,0,0)" text-anchor="middle" transform="matrix( 1.000 0.000 0.000 1.000 256.990 205.450 )">Bottom</text><path d="M 176.190 242.450 H 194.190 C 194.290 242.450 194.190 242.350 194.190 242.450 V 245.650 C 194.190 245.705 194.235 245.750 194.290 245.750 H 204.190 C 204.245 245.750 204.290 245.705 204.290 245.650 V 242.450 C 204.290 242.350 204.190 242.450 204.290 242.450 H 210.690 C 210.790 242.450 210.690 242.350 210.690 242.450 V 245.650 C 210.690 245.705 210.735 245.750 210.790 245.750 H 220.690 C 220.745 245.750 220.790 245.705 220.790 245.650 V 242.450 C 220.790 242.350 220.690 242.450 220.790 242.450 H 227.190 C 227.290 242.450 227.190 242.350 227.190 242.450 V 245.650 C 227.190 245.705 227.235 245.750 227.290 245.750 H 237.190 C 237.245 245.750 237.290 245.705 237.290 245.650 V 242.450 C 237.290 242.350 237.190 242.450 237.290 242.450 H 243.690 C 243.790 242.450 243.690 242.350 243.690 242.450 V 245.650 C 243.690 245.705 243.735 245.750 243.790 245.750 H 253.690 C 253.745 245.750 253.790 245.705 253.790 245.650 V 242.450 C 253.790 242.350 253.690 242.450 253.790 242.450 H 260.190 C 260.290 242.450 260.190 242.350 260.190 242.450 V 245.650 C 260.190 245.705 260.235 245.750 260.290 245.750 H 270.190 C 270.245 245.750 270.290 245.705 270.290 245.650 V 242.450 C 270.290 242.350 270.190 242.450 270.290 242.450 H 276.690 C 276.790 242.450 276.690 242.350 276.690 242.450 V 245.650 C 276.690 245.705 276.735 245.750 276.790 245.750 H 286.690 C 286.745 245.750 286.790 245.705 286.790 245.650 V 242.450 C 286.790 242.350 286.690 242.450 286.790 242.450 H 293.190 C 293.290 242.450 293.190 242.350 293.190 242.450 V 245.650 C 293.190 245.705 293.235 245.750 293.290 245.750 H 303.190 C 303.245 245.750 303.290 245.705 303.290 245.650 V 242.450 C 303.290 242.350 303.190 242.450 303.290 242.450 H 309.690 C 309.790 242.450 309.690 242.350 309.690 242.450 V 245.650 C 309.690 245.705 309.735 245.750 309.790 245.750 H 319.690 C 319.745 245.750 319.790 245.705 319.790 245.650 V 242.450 C 319.790 242.350 319.690 242.450 319.790 242.450 H 337.790 C 337.845 242.450 337.890 242.405 337.890 242.350 V 228.900 C 337.890 228.800 337.790 228.900 337.890 228.900 H 341.090 C 341.145 228.900 341.190 228.855 341.190 228.800 V 218.900 C 341.190 218.845 341.145 218.800 341.090 218.800 H 337.890 C 337.790 218.800 337.890 218.900 337.890 218.800 V 212.400 C 337.890 212.300 337.790 212.400 337.890 212.400 H 341.090 C 341.145 212.400 341.190 212.355 341.190 212.300 V 202.400 C 341.190 202.345 341.145 202.300 341.090 202.300 H 337.890 C 337.790 202.300 337.890 202.400 337.890 202.300 V 195.900 C 337.890 195.800 337.790 195.900 337.890 195.900 H 341.090 C 341.145 195.900 341.190 195.855 341.190 195.800 V 185.900 C 341.190 185.845 341.145 185.800 341.090 185.800 H 337.890 C 337.790 185.800 337.890 185.900 337.890 185.800 V 172.350 C 337.890 172.295 337.845 172.250 337.790 172.250 H 319.790 C 319.690 172.250 319.790 172.350 319.790 172.250 V 169.050 C 319.790 168.995 319.745 168.950 319.690 168.950 H 309.790 C 309.735 168.950 309.690 168.995 309.690 169.050 V 172.250 C 309.690 172.350 309.790 172.250 309.690 172.250 H 303.290 C 303.190 172.250 303.290 172.350 303.290 172.250 V 169.050 C 303.290 168.995 303.245 168.950 303.190 168.950 H 293.290 C 293.235 168.950 293.190 168.995 293.190 169.050 V 172.250 C 293.190 172.350 293.290 172.250 293.190 172.250 H 286.790 C 286.690 172.250 286.790 172.350 286.790 172.250 V 169.050 C 286.790 168.995 286.745 168.950 286.690 168.950 H 276.790 C 276.735 168.950 276.690 168.995 276.690 169.050 V 172.250 C 276.690 172.350 276.790 172.250 276.690 172.250 H 270.290 C 270.190 172.250 270.290 172.350 270.290 172.250 V 169.050 C 270.290 168.995 270.245 168.950 270.190 168.950 H 260.290 C 260.235 168.950 260.190 168.995 260.190 169.050 V 172.250 C 260.190 172.350 260.290 172.250 260.190 172.250 H 253.790 C 253.690 172.250 253.790 172.350 253.790 172.250 V 169.050 C 253.790 168.995 253.745 168.950 253.690 168.950 H 243.790 C 243.735 168.950 243.690 168.995 243.690 169.050 V 172.250 C 243.690 172.350 243.790 172.250 243.690 172.250 H 237.290 C 237.190 172.250 237.290 172.350 237.290 172.250 V 169.050 C 237.290 168.995 237.245 168.950 237.190 168.950 H 227.290 C 227.235 168.950 227.190 168.995 227.190 169.050 V 172.250 C 227.190 172.350 227.290 172.250 227.190 172.250 H 220.790 C 220.690 172.250 220.790 172.350 220.790 172.250 V 169.050 C 220.790 168.995 220.745 168.950 220.690 168.950 H 210.790 C 210.735 168.950 210.690 168.995 210.690 169.050 V 172.250 C 210.690 172.350 210.790 172.250 210.690 172.250 H 204.290 C 204.190 172.250 204.290 172.350 204.290 172.250 V 169.050 C 204.290 168.995 204.245 168.950 204.190 168.950 H 194.290 C 194.235 168.950 194.190 168.995 194.190 169.050 V 172.250 C 194.190 172.350 194.290 172.250 194.190 172.250 H 176.190 C 176.135 172.250 176.090 172.295 176.090 172.350 V 185.800 C 176.090 185.900 176.190 185.800 176.090 185.800 H 172.890 C 172.835 185.800 172.790 185.845 172.790 185.900 V 195.800 C 172.790 195.855 172.835 195.900 172.890 195.900 H 176.090 C 176.190 195.900 176.090 195.800 176.090 195.900 V 202.300 C 176.090 202.400 176.190 202.300 176.090 202.300 H 172.890 C 172.835 202.300 172.790 202.345 172.790 202.400 V 212.300 C 172.790 212.355 172.835 212.400 172.890 212.400 H 176.090 C 176.190 212.400 176.090 212.300 176.090 212.400 V 218.800 C 176.090 218.900 176.190 218.800 176.090 218.800 H 172.890 C 172.835 218.800 172.790 218.845 172.790 218.900 V 228.800 C 172.790 228.855 172.835 228.900 172.890 228.900 H 176.090 C 176.190 228.900 176.090 228.800 176.090 228.900 V 242.350 C 176.090 242.405 176.135 242.450 176.190 242.450" stroke="rgb(0,0,0)" stroke-width="0.20" />
</g>
<g id="p-3" style="fill:none;stroke-linecap:round;stroke-linejoin:round;">
  <text dominant-baseline="hanging" font-size="4px" style="font-family: sans-serif ; font-weight: normal; font-style: normal; fill: rgb(255,0,0)" text-anchor="middle" transform="matrix( 1.000 0.000 0.000 1.000 93.870 165.300 )">Lid Lip</text><path d="M 13.400 167.300 H 31.070 C 31.170 167.300 31.070 167.200 31.070 167.300 V 170.500 C 31.070 170.555 31.115 170.600 31.170 170.600 H 41.070 C 41.125 170.600 41.170 170.555 41.170 170.500 V 167.300 C 41.170 167.200 41.070 167.300 41.170 167.300 H 47.570 C 47.670 167.300 47.570 167.200 47.570 167.300 V 170.500 C 47.570 170.555 47.615 170.600 47.670 170.600 H 57.570 C 57.625 170.600 57.670 170.555 57.670 170.500 V 167.300 C 57.670 167.200 57.570 167.300 57.670 167.300 H 64.070 C 64.170 167.300 64.070 167.200 64.070 167.300 V 170.500 C 64.070 170.555 64.115 170.600 64.170 170.600 H 74.070 C 74.125 170.600 74.170 170.555 74.170 170.500 V 167.300 C 74.170 167.200 74.070 167.300 74.170 167.300 H 80.570 C 80.670 167.300 80.570 167.200 80.570 167.300 V 170.500 C 80.570 170.555 80.615 170.600 80.670 170.600 H 90.570 C 90.625 170.600 90.670 170.555 90.670 170.500 V 167.300 C 90.670 167.200 90.570 167.300 90.670 167.300 H 97.070 C 97.170 167.300 97.070 167.200 97.070 167.300 V 170.500 C 97.070 170.555 97.115 170.600 97.170 170.600 H 107.070 C 107.125 170.600 107.170 170.555 107.170 170.500 V 167.300 C 107.170 167.200 107.070 167.300 107.170 167.300 H 113.570 C 113.670 167.300 113.570 167.200 113.570 167.300 V 170.500 C 113.570 170.555 113.615 170.600 113.670 170.600 H 123.570 C 123.625 170.600 123.670 170.555 123.670 170.500 V 167.300 C 123.670 167.200 123.570 167.300 123.670 167.300 H 130.070 C 130.170 167.300 130.070 167.200 130.070 167.300 V 170.500 C 130.070 170.555 130.115 170.600 130.170 170.600 H 140.070 C 140.125 170.600 140.170 170.555 140.170 170.500 V 167.300 C 140.170 167.200 140.070 167.300 140.170 167.300 H 146.570 C 146.670 167.300 146.570 167.200 146.570 167.300 V 170.500 C 146.570 170.555 146.615 170.600 146.670 170.600 H 156.570 C 156.625 170.600 156.670 170.555 156.670 170.500 V 167.300 C 156.670 167.200 156.570 167.300 156.670 167.300 H 174.340 H 177.640 C 177.695 167.300 177.740 167.255 177.740 167.200 V 163.900 C 177.740 163.845 177.695 163.800 177.640 163.800 H 174.340 H 13.400 H 10.100 C 10.045 163.800 10.000 163.845 10.000 163.900 V 167.200 C 10.000 167.255 10.045 167.300 10.100 167.300 H 13.400" stroke="rgb(0,0,0)" stroke-width="0.20" />
</g>
<g id="p-4" style="fill:none;stroke-linecap:round;stroke-linejoin:round;">
  <text dominant-baseline="hanging" font-size="4px" style="font-family: sans-serif ; font-weight: normal; font-style: normal; fill: rgb(255,0,0)" text-anchor="middle" transform="matrix( 1.000 0.000 0.000 1.000 94.200 135.200 )">Back</text><path d="M 13.400 162.150 H 31.500 C 31.555 162.150 31.600 162.105 31.600 162.050 V 158.850 C 31.600 158.750 31.500 158.850 31.600 158.850 H 41.300 C 41.400 158.850 41.300 158.750 41.300 158.850 V 162.050 C 41.300 162.105 41.345 162.150 41.400 162.150 H 48.000 C 48.055 162.150 48.100 162.105 48.100 162.050 V 158.850 C 48.100 158.750 48.000 158.850 48.100 158.850 H 57.800 C 57.900 158.850 57.800 158.750 57.800 158.850 V 162.050 C 57.800 162.105 57.845 162.150 57.900 162.150 H 64.500 C 64.555 162.150 64.600 162.105 64.600 162.050 V 158.850 C 64.600 158.750 64.500 158.850 64.600 158.850 H 74.300 C 74.400 158.850 74.300 158.750 74.300 158.850 V 162.050 C 74.300 162.105 74.345 162.150 74.400 162.150 H 81.000 C 81.055 162.150 81.100 162.105 81.100 162.050 V 158.850 C 81.100 158.750 81.000 158.850 81.100 158.850 H 90.800 C 90.900 158.850 90.800 158.750 90.800 158.850 V 162.050 C 90.800 162.105 90.845 162.150 90.900 162.150 H 97.500 C 97.555 162.150 97.600 162.105 97.600 162.050 V 158.850 C 97.600 158.750 97.500 158.850 97.600 158.850 H 107.300 C 107.400 158.850 107.300 158.750 107.300 158.850 V 162.050 C 107.300 162.105 107.345 162.150 107.400 162.150 H 114.000 C 114.055 162.150 114.100 162.105 114.100 162.050 V 158.850 C 114.100 158.750 114.000 158.850 114.100 158.850 H 123.800 C 123.900 158.850 123.800 158.750 123.800 158.850 V 162.050 C 123.800 162.105 123.845 162.150 123.900 162.150 H 130.500 C 130.555 162.150 130.600 162.105 130.600 162.050 V 158.850 C 130.600 158.750 130.500 158.850 130.600 158.850 H 140.300 C 140.400 158.850 140.300 158.750 140.300 158.850 V 162.050 C 140.300 162.105 140.345 162.150 140.400 162.150 H 147.000 C 147.055 162.150 147.100 162.105 147.100 162.050 V 158.850 C 147.100 158.750 147.000 158.850 147.100 158.850 H 156.800 C 156.900 158.850 156.800 158.750 156.800 158.850 V 162.050 C 156.800 162.105 156.845 162.150 156.900 162.150 H 175.000 H 178.300 C 178.355 162.150 178.400 162.105 178.400 162.050 V 158.750 V 142.050 C 178.400 141.995 178.355 141.950 178.300 141.950 H 175.100 C 175.000 141.950 175.100 142.050 175.100 141.950 V 132.250 C 175.100 132.150 175.000 132.250 175.100 132.250 H 178.300 C 178.355 132.250 178.400 132.205 178.400 132.150 V 115.450 V 112.150 C 178.400 112.095 178.355 112.050 178.300 112.050 H 175.000 H 13.400 H 10.100 C 10.045 112.050 10.000 112.095 10.000 112.150 V 115.450 V 132.150 C 10.000 132.205 10.045 132.250 10.100 132.250 H 13.300 C 13.400 132.250 13.300 132.150 13.300 132.250 V 141.950 C 13.300 142.050 13.400 141.950 13.300 141.950 H 10.100 C 10.045 141.950 10.000 141.995 10.000 142.050 V 158.750 V 162.050 C 10.000 162.105 10.045 162.150 10.100 162.150 H 13.400" stroke="rgb(0,0,0)" stroke-width="0.20" />
</g>
<g id="p-5" style="fill:none;stroke-linecap:round;stroke-linejoin:round;">
  <text dominant-baseline="hanging" font-size="4px" style="font-family: sans-serif ; font-weight: normal; font-style: normal; fill: rgb(255,0,0)" text-anchor="middle" transform="matrix( 1.000 0.000 0.000 1.000 264.250 136.850 )">Front</text><path d="M 183.450 162.150 H 201.550 C 201.605 162.150 201.650 162.105 201.650 162.050 V 158.850 C 201.650 158.750 201.550 158.850 201.650 158.850 H 211.350 C 211.450 158.850 211.350 158.750 211.350 158.850 V 162.050 C 211.350 162.105 211.395 162.150 211.450 162.150 H 218.050 C 218.105 162.150 218.150 162.105 218.150 162.050 V 158.850 C 218.150 158.750 218.050 158.850 218.150 158.850 H 227.850 C 227.950 158.850 227.850 158.750 227.850 158.850 V 162.050 C 227.850 162.105 227.895 162.150 227.950 162.150 H 234.550 C 234.605 162.150 234.650 162.105 234.650 162.050 V 158.850 C 234.650 158.750 234.550 158.850 234.650 158.850 H 244.350 C 244.450 158.850 244.350 158.750 244.350 158.850 V 162.050 C 244.350 162.105 244.395 162.150 244.450 162.150 H 251.050 C 251.105 162.150 251.150 162.105 251.150 162.050 V 158.850 C 251.150 158.750 251.050 158.850 251.150 158.850 H 260.850 C 260.950 158.850 260.850 158.750 260.850 158.850 V 162.050 C 260.850 162.105 260.895 162.150 260.950 162.150 H 267.550 C 267.605 162.150 267.650 162.105 267.650 162.050 V 158.850 C 267.650 158.750 267.550 158.850 267.650 158.850 H 277.350 C 277.450 158.850 277.350 158.750 277.350 158.850 V 162.050 C 277.350 162.105 277.395 162.150 277.450 162.150 H 284.050 C 284.105 162.150 284.150 162.105 284.150 162.050 V 158.850 C 284.150 158.750 284.050 158.850 284.150 158.850 H 293.850 C 293.950 158.850 293.850 158.750 293.850 158.850 V 162.050 C 293.850 162.105 293.895 162.150 293.950 162.150 H 300.550 C 300.605 162.150 300.650 162.105 300.650 162.050 V 158.850 C 300.650 158.750 300.550 158.850 300.650 158.850 H 310.350 C 310.450 158.850 310.350 158.750 310.350 158.850 V 162.050 C 310.350 162.105 310.395 162.150 310.450 162.150 H 317.050 C 317.105 162.150 317.150 162.105 317.150 162.050 V 158.850 C 317.150 158.750 317.050 158.850 317.150 158.850 H 326.850 C 326.950 158.850 326.850 158.750 326.850 158.850 V 162.050 C 326.850 162.105 326.895 162.150 326.950 162.150 H 345.050 H 348.350 C 348.405 162.150 348.450 162.105 348.450 162.050 V 158.750 V 142.050 C 348.450 141.995 348.405 141.950 348.350 141.950 H 345.150 C 345.050 141.950 345.150 142.050 345.150 141.950 V 132.250 C 345.150 132.150 345.050 132.250 345.150 132.250 H 348.350 C 348.405 132.250 348.450 132.205 348.450 132.150 V 115.450 C 348.450 115.395 348.405 115.350 348.350 115.350 H 345.050 C 344.995 115.350 344.950 115.395 344.950 115.450 V 118.650 C 344.950 118.750 345.050 118.650 344.950 118.650 H 183.550 C 183.450 118.650 183.550 118.750 183.550 118.650 V 115.450 C 183.550 115.395 183.505 115.350 183.450 115.350 H 180.150 C 180.095 115.350 180.050 115.395 180.050 115.450 V 132.150 C 180.050 132.205 180.095 132.250 180.150 132.250 H 183.350 C 183.450 132.250 183.350 132.150 183.350 132.250 V 141.950 C 183.350 142.050 183.450 141.950 183.350 141.950 H 180.150 C 180.095 141.950 180.050 141.995 180.050 142.050 V 158.750 V 162.050 C 180.050 162.105 180.095 162.150 180.150 162.150 H 183.450" stroke="rgb(0,0,0)" stroke-width="0.20" />
</g>
<g id="p-6" style="fill:none;stroke-linecap:round;stroke-linejoin:round;">
  <text dominant-baseline="hanging" font-size="4px" style="font-family: sans-serif ; font-weight: normal; font-style: normal; fill: rgb(255,0,0)" text-anchor="middle" transform="matrix( 1.000 0.000 0.000 1.000 48.400 83.450 )">Outer Side Left</text><path d="M 13.400 110.400 H 26.950 C 27.005 110.400 27.050 110.355 27.050 110.300 V 107.100 C 27.050 107.000 26.950 107.100 27.050 107.100 H 36.750 C 36.850 107.100 36.750 107.000 36.750 107.100 V 110.300 C 36.750 110.355 36.795 110.400 36.850 110.400 H 43.450 C 43.505 110.400 43.550 110.355 43.550 110.300 V 107.100 C 43.550 107.000 43.450 107.100 43.550 107.100 H 53.250 C 53.350 107.100 53.250 107.000 53.250 107.100 V 110.300 C 53.250 110.355 53.295 110.400 53.350 110.400 H 59.950 C 60.005 110.400 60.050 110.355 60.050 110.300 V 107.100 C 60.050 107.000 59.950 107.100 60.050 107.100 H 69.750 C 69.850 107.100 69.750 107.000 69.750 107.100 V 110.300 C 69.750 110.355 69.795 110.400 69.850 110.400 H 83.400 C 83.455 110.400 83.500 110.355 83.500 110.300 V 107.000 V 90.400 C 83.500 90.300 83.400 90.400 83.500 90.400 H 86.700 C 86.755 90.400 86.800 90.355 86.800 90.300 V 80.400 C 86.800 80.345 86.755 80.300 86.700 80.300 H 83.500 C 83.400 80.300 83.500 80.400 83.500 80.300 V 63.700 V 60.400 C 83.500 60.345 83.455 60.300 83.400 60.300 H 69.850 C 69.795 60.300 69.750 60.345 69.750 60.400 V 63.600 C 69.750 63.700 69.850 63.600 69.750 63.600 H 60.050 C 59.950 63.600 60.050 63.700 60.050 63.600 V 60.400 C 60.050 60.345 60.005 60.300 59.950 60.300 H 53.350 C 53.295 60.300 53.250 60.345 53.250 60.400 V 63.600 C 53.250 63.700 53.350 63.600 53.250 63.600 H 43.550 C 43.450 63.600 43.550 63.700 43.550 63.600 V 60.400 C 43.550 60.345 43.505 60.300 43.450 60.300 H 36.850 C 36.795 60.300 36.750 60.345 36.750 60.400 V 63.600 C 36.750 63.700 36.850 63.600 36.750 63.600 H 27.050 C 26.950 63.600 27.050 63.700 27.050 63.600 V 60.400 C 27.050 60.345 27.005 60.300 26.950 60.300 H 13.400 C 13.345 60.300 13.300 60.345 13.300 60.400 V 63.700 V 80.300 C 13.300 80.400 13.400 80.300 13.300 80.300 H 10.100 C 10.045 80.300 10.000 80.345 10.000 80.400 V 90.300 C 10.000 90.355 10.045 90.400 10.100 90.400 H 13.300 C 13.400 90.400 13.300 90.300 13.300 90.400 V 107.000 V 110.300 C 13.300 110.355 13.345 110.400 13.400 110.400" stroke="rgb(0,0,0)" stroke-width="0.20" />
</g>
<g id="p-7" style="fill:none;stroke-linecap:round;stroke-linejoin:round;">
  <text dominant-baseline="hanging" font-size="4px" style="font-family: sans-serif ; font-weight: normal; font-style: normal; fill: rgb(255,0,0)" text-anchor="middle" transform="matrix( 1.000 0.000 0.000 1.000 126.850 83.450 )">Outer Side Right</text><path d="M 91.850 110.400 H 105.400 C 105.455 110.400 105.500 110.355 105.500 110.300 V 107.100 C 105.500 107.000 105.400 107.100 105.500 107.100 H 115.200 C 115.300 107.100 115.200 107.000 115.200 107.100 V 110.300 C 115.200 110.355 115.245 110.400 115.300 110.400 H 121.900 C 121.955 110.400 122.000 110.355 122.000 110.300 V 107.100 C 122.000 107.000 121.900 107.100 122.000 107.100 H 131.700 C 131.800 107.100 131.700 107.000 131.700 107.100 V 110.300 C 131.700 110.355 131.745 110.400 131.800 110.400 H 138.400 C 138.455 110.400 138.500 110.355 138.500 110.300 V 107.100 C 138.500 107.000 138.400 107.100 138.500 107.100 H 148.200 C 148.300 107.100 148.200 107.000 148.200 107.100 V 110.300 C 148.200 110.355 148.245 110.400 148.300 110.400 H 161.850 C 161.905 110.400 161.950 110.355 161.950 110.300 V 107.000 V 90.400 C 161.950 90.300 161.850 90.400 161.950 90.400 H 165.150 C 165.205 90.400 165.250 90.355 165.250 90.300 V 80.400 C 165.250 80.345 165.205 80.300 165.150 80.300 H 161.950 C 161.850 80.300 161.950 80.400 161.950 80.300 V 63.700 V 60.400 C 161.950 60.345 161.905 60.300 161.850 60.300 H 148.300 C 148.245 60.300 148.200 60.345 148.200 60.400 V 63.600 C 148.200 63.700 148.300 63.600 148.200 63.600 H 138.500 C 138.400 63.600 138.500 63.700 138.500 63.600 V 60.400 C 138.500 60.345 138.455 60.300 138.400 60.300 H 131.800 C 131.745 60.300 131.700 60.345 131.700 60.400 V 63.600 C 131.700 63.700 131.800 63.600 131.700 63.600 H 122.000 C 121.900 63.600 122.000 63.700 122.000 63.600 V 60.400 C 122.000 60.345 121.955 60.300 121.900 60.300 H 115.300 C 115.245 60.300 115.200 60.345 115.200 60.400 V 63.600 C 115.200 63.700 115.300 63.600 115.200 63.600 H 105.500 C 105.400 63.600 105.500 63.700 105.500 63.600 V 60.400 C 105.500 60.345 105.455 60.300 105.400 60.300 H 91.850 C 91.795 60.300 91.750 60.345 91.750 60.400 V 63.700 V 80.300 C 91.750 80.400 91.850 80.300 91.750 80.300 H 88.550 C 88.495 80.300 88.450 80.345 88.450 80.400 V 90.300 C 88.450 90.355 88.495 90.400 88.550 90.400 H 91.750 C 91.850 90.400 91.750 90.300 91.750 90.400 V 107.000 V 110.300 C 91.750 110.355 91.795 110.400 91.850 110.400" stroke="rgb(0,0,0)" stroke-width="0.20" />
</g>
<g id="p-8" style="fill:none;stroke-linecap:round;stroke-linejoin:round;">
  <text dominant-baseline="hanging" font-size="4px" style="font-family: sans-serif ; font-weight: normal; font-style: normal; fill: rgb(255,0,0)" text-anchor="middle" transform="matrix( 1.000 0.000 0.000 1.000 45.100 36.650 )">Inner Side Left</text><path d="M 10.100 58.650 H 35.100 C 35.155 58.650 35.200 58.605 35.200 58.550 C 35.200 56.812 35.657 55.105 36.526 53.600 C 37.395 52.095 38.645 50.845 40.150 49.976 C 41.655 49.107 43.362 48.650 45.100 48.650 C 46.838 48.650 48.545 49.107 50.050 49.976 C 51.555 50.845 52.805 52.095 53.674 53.600 C 54.543 55.105 55.000 56.812 55.000 58.550 C 55.000 58.605 55.045 58.650 55.100 58.650 H 80.100 C 80.155 58.650 80.200 58.605 80.200 58.550 V 18.550 C 80.200 18.495 80.155 18.450 80.100 18.450 H 10.100 C 10.045 18.450 10.000 18.495 10.000 18.550 V 58.550 C 10.000 58.605 10.045 58.650 10.100 58.650" stroke="rgb(0,0,0)" stroke-width="0.20" />
</g>
<g id="p-9" style="fill:none;stroke-linecap:round;stroke-linejoin:round;">
  <text dominant-baseline="hanging" font-size="4px" style="font-family: sans-serif ; font-weight: normal; font-style: normal; fill: rgb(255,0,0)" text-anchor="middle" transform="matrix( 1.000 0.000 0.000 1.000 116.950 36.650 )">Inner Side Right</text><path d="M 81.950 58.650 H 106.950 C 107.005 58.650 107.050 58.605 107.050 58.550 C 107.050 56.812 107.507 55.105 108.376 53.600 C 109.245 52.095 110.495 50.845 112.000 49.976 C 113.505 49.107 115.212 48.650 116.950 48.650 C 118.688 48.650 120.395 49.107 121.900 49.976 C 123.405 50.845 124.655 52.095 125.524 53.600 C 126.393 55.105 126.850 56.812 126.850 58.550 C 126.850 58.605 126.895 58.650 126.950 58.650 H 151.950 C 152.005 58.650 152.050 58.605 152.050 58.550 V 18.550 C 152.050 18.495 152.005 18.450 151.950 18.450 H 81.950 C 81.895 18.450 81.850 18.495 81.850 18.550 V 58.550 C 81.850 58.605 81.895 58.650 81.950 58.650" stroke="rgb(0,0,0)" stroke-width="0.20" />
</g>
<g id="p-10" style="fill:none;stroke-linecap:round;stroke-linejoin:round;">
  <text dominant-baseline="hanging" font-size="4px" style="font-family: sans-serif ; font-weight: normal; font-style: normal; fill: rgb(255,0,0)" text-anchor="middle" transform="matrix( 1.000 0.000 0.000 1.000 45.100 11.500 )">Lip Left</text><path d="M 10.100 16.800 H 80.100 C 80.155 16.800 80.200 16.755 80.200 16.700 V 13.400 C 80.200 13.345 80.155 13.300 80.100 13.300 H 66.650 C 66.550 13.300 66.650 13.400 66.650 13.300 V 10.100 C 66.650 10.045 66.605 10.000 66.550 10.000 H 56.650 C 56.595 10.000 56.550 10.045 56.550 10.100 V 13.300 C 56.550 13.400 56.650 13.300 56.550 13.300 H 50.150 C 50.050 13.300 50.150 13.400 50.150 13.300 V 10.100 C 50.150 10.045 50.105 10.000 50.050 10.000 H 40.150 C 40.095 10.000 40.050 10.045 40.050 10.100 V 13.300 C 40.050 13.400 40.150 13.300 40.050 13.300 H 33.650 C 33.550 13.300 33.650 13.400 33.650 13.300 V 10.100 C 33.650 10.045 33.605 10.000 33.550 10.000 H 23.650 C 23.595 10.000 23.550 10.045 23.550 10.100 V 13.300 C 23.550 13.400 23.650 13.300 23.550 13.300 H 10.100 C 10.045 13.300 10.000 13.345 10.000 13.400 V 16.700 C 10.000 16.755 10.045 16.800 10.100 16.800" stroke="rgb(0,0,0)" stroke-width="0.20" />
</g>
<g id="p-11" style="fill:none;stroke-linecap:round;stroke-linejoin:round;">
  <text dominant-baseline="hanging" font-size="4px" style="font-family: sans-serif ; font-weight: normal; font-style: normal; fill: rgb(255,0,0)" text-anchor="middle" transform="matrix( 1.000 0.000 0.000 1.000 116.950 11.500 )">Lip Right</text><path d="M 81.950 13.500 H 95.400 C 95.500 13.500 95.400 13.400 95.400 13.500 V 16.700 C 95.400 16.755 95.445 16.800 95.500 16.800 H 105.400 C 105.455 16.800 105.500 16.755 105.500 16.700 V 13.500 C 105.500 13.400 105.400 13.500 105.500 13.500 H 111.900 C 112.000 13.500 111.900 13.400 111.900 13.500 V 16.700 C 111.900 16.755 111.945 16.800 112.000 16.800 H 121.900 C 121.955 16.800 122.000 16.755 122.000 16.700 V 13.500 C 122.000 13.400 121.900 13.500 122.000 13.500 H 128.400 C 128.500 13.500 128.400 13.400 128.400 13.500 V 16.700 C 128.400 16.755 128.445 16.800 128.500 16.800 H 138.400 C 138.455 16.800 138.500 16.755 138.500 16.700 V 13.500 C 138.500 13.400 138.400 13.500 138.500 13.500 H 151.950 C 152.005 13.500 152.050 13.455 152.050 13.400 V 10.100 C 152.050 10.045 152.005 10.000 151.950 10.000 H 81.950 C 81.895 10.000 81.850 10.045 81.850 10.100 V 13.400 C 81.850 13.455 81.895 13.500 81.950 13.500" stroke="rgb(0,0,0)" stroke-width="0.20" />
</g>
</svg>